<svg xmlns="http://www.w3.org/2000/svg"  viewBox="0 0 64 64" width="128px" height="128px"><path fill="#faefde" d="M56,57H8c-0.552,0-1-0.448-1-1V8c0-0.552,0.448-1,1-1h48c0.552,0,1,0.448,1,1v48 C57,56.552,56.552,57,56,57z"/><path fill="#fff8ee" d="M13.938 56.998L8.197 57.196 57.336 8.057 57 32 32.083 56.917zM7 48L48.063 6.937 53.813 7.187 7 54zM7.5 41.5L42 7 45 7 7 45z"/><path fill="#b0edcc" d="M22 25h-8c-.552 0-1-.448-1-1v-8c0-.552.448-1 1-1h8c.552 0 1 .448 1 1v8C23 24.552 22.552 25 22 25zM22 43h-8c-.552 0-1-.448-1-1v-8c0-.552.448-1 1-1h8c.552 0 1 .448 1 1v8C23 42.552 22.552 43 22 43z"/><path fill="#efd8be" d="M56,52H8c-0.552,0-1,0.448-1,1v3c0,0.552,0.448,1,1,1h48c0.552,0,1-0.448,1-1v-3 C57,52.448,56.552,52,56,52z"/><path fill="#8d6c9f" d="M56,58H8c-1.103,0-2-0.897-2-2V8c0-1.103,0.897-2,2-2h48c1.103,0,2,0.897,2,2v48 C58,57.103,57.103,58,56,58z M8,8v48h48.001L56,8H8z"/><path fill="#8d6c9f" d="M12 54c-.552 0-1-.448-1-1v-2c0-.552.448-1 1-1s1 .448 1 1v2C13 53.552 12.552 54 12 54zM17 54c-.552 0-1-.448-1-1v-2c0-.552.448-1 1-1s1 .448 1 1v2C18 53.552 17.552 54 17 54zM22 54c-.552 0-1-.448-1-1v-2c0-.552.448-1 1-1s1 .448 1 1v2C23 53.552 22.552 54 22 54zM27 54c-.552 0-1-.448-1-1v-2c0-.552.448-1 1-1s1 .448 1 1v2C28 53.552 27.552 54 27 54zM32 54c-.552 0-1-.448-1-1v-2c0-.552.448-1 1-1s1 .448 1 1v2C33 53.552 32.552 54 32 54zM37 54c-.552 0-1-.448-1-1v-2c0-.552.448-1 1-1s1 .448 1 1v2C38 53.552 37.552 54 37 54zM42 54c-.552 0-1-.448-1-1v-2c0-.552.448-1 1-1s1 .448 1 1v2C43 53.552 42.552 54 42 54zM47 54c-.552 0-1-.448-1-1v-2c0-.552.448-1 1-1s1 .448 1 1v2C48 53.552 47.552 54 47 54zM52 54c-.552 0-1-.448-1-1v-2c0-.552.448-1 1-1s1 .448 1 1v2C53 53.552 52.552 54 52 54zM51 18H29c-.552 0-1-.448-1-1s.448-1 1-1h22c.552 0 1 .448 1 1S51.552 18 51 18z"/><g><path fill="#8d6c9f" d="M45,22H29c-0.552,0-1-0.448-1-1s0.448-1,1-1h16c0.552,0,1,0.448,1,1S45.552,22,45,22z"/></g><g><path fill="#8d6c9f" d="M39,36H29c-0.552,0-1-0.448-1-1s0.448-1,1-1h10c0.552,0,1,0.448,1,1S39.552,36,39,36z"/></g><g><path fill="#8d6c9f" d="M51,36h-8c-0.552,0-1-0.448-1-1s0.448-1,1-1h8c0.552,0,1,0.448,1,1S51.552,36,51,36z"/></g><g><path fill="#8d6c9f" d="M37,40h-8c-0.552,0-1-0.448-1-1s0.448-1,1-1h8c0.552,0,1,0.448,1,1S37.552,40,37,40z"/></g><g><path fill="#8d6c9f" d="M22,44h-8c-1.103,0-2-0.897-2-2v-8c0-1.103,0.897-2,2-2h6c0.552,0,1,0.448,1,1s-0.448,1-1,1h-6v8h8 v-2.917c0-0.552,0.448-1,1-1s1,0.448,1,1V42C24,43.103,23.103,44,22,44z"/></g><g><path fill="#72caaf" d="M18,41c-0.256,0-0.512-0.098-0.707-0.293l-2-2c-0.391-0.391-0.391-1.023,0-1.414 s1.023-0.391,1.414,0L18,38.586l5.793-5.793c0.391-0.391,1.023-0.391,1.414,0s0.391,1.023,0,1.414l-6.5,6.5 C18.512,40.902,18.256,41,18,41z"/></g><g><path fill="#8d6c9f" d="M22,26h-8c-1.103,0-2-0.897-2-2v-8c0-1.103,0.897-2,2-2h6c0.552,0,1,0.448,1,1s-0.448,1-1,1h-6v8h8 v-2.917c0-0.552,0.448-1,1-1s1,0.448,1,1V24C24,25.103,23.103,26,22,26z"/></g><g><path fill="#72caaf" d="M18,23c-0.256,0-0.512-0.098-0.707-0.293l-2-2c-0.391-0.391-0.391-1.023,0-1.414 s1.023-0.391,1.414,0L18,20.586l5.793-5.793c0.391-0.391,1.023-0.391,1.414,0s0.391,1.023,0,1.414l-6.5,6.5 C18.512,22.902,18.256,23,18,23z"/></g></svg>