<svg xmlns="http://www.w3.org/2000/svg"  viewBox="0 0 128 128" width="64px" height="64px"><path fill="#fff" d="M114,109L94,89H24c-5.5,0-10-4.5-10-10V14c0-5.5,4.5-10,10-10h80c5.5,0,10,4.5,10,10V109z"/><path fill="#444b54" d="M114 112c-.8 0-1.5-.3-2.1-.9L92.8 92H24c-7.2 0-13-5.8-13-13V14c0-7.2 5.8-13 13-13h80c7.2 0 13 5.8 13 13v95c0 1.2-.7 2.3-1.9 2.8C114.8 111.9 114.4 112 114 112zM24 7c-3.9 0-7 3.1-7 7v65c0 3.9 3.1 7 7 7h70c.8 0 1.6.3 2.1.9l14.9 14.9V14c0-3.9-3.1-7-7-7H24zM114 127H39c-1.7 0-3-1.3-3-3s1.3-3 3-3h75c1.7 0 3 1.3 3 3S115.7 127 114 127z"/><path fill="#71c2ff" d="M88 42H40c-1.7 0-3-1.3-3-3s1.3-3 3-3h48c1.7 0 3 1.3 3 3S89.7 42 88 42zM73 57H40c-1.7 0-3-1.3-3-3s1.3-3 3-3h33c1.7 0 3 1.3 3 3S74.7 57 73 57zM88 51A3 3 0 1 0 88 57 3 3 0 1 0 88 51z"/><path fill="#444b54" d="M24 121A3 3 0 1 0 24 127A3 3 0 1 0 24 121Z"/></svg>