<?xml version="1.0" encoding="UTF-8"?>
<svg xmlns="http://www.w3.org/2000/svg" xmlns:xlink="http://www.w3.org/1999/xlink" width="100pt" height="100pt" viewBox="0 0 100 100" version="1.1">
<g id="surface6908531">
<path style=" stroke:none;fill-rule:nonzero;fill:rgb(93.333334%,24.313726%,32.941177%);fill-opacity:1;" d="M 13 27 C 11.894531 27 11 27.894531 11 29 C 11 30.105469 11.894531 31 13 31 C 14.105469 31 15 30.105469 15 29 C 15 27.894531 14.105469 27 13 27 Z M 13 27 "/>
<path style=" stroke:none;fill-rule:nonzero;fill:rgb(94.509804%,73.725492%,9.803922%);fill-opacity:1;" d="M 77 12 C 76.449219 12 76 12.449219 76 13 C 76 13.550781 76.449219 14 77 14 C 77.550781 14 78 13.550781 78 13 C 78 12.449219 77.550781 12 77 12 Z M 77 12 "/>
<path style=" stroke:none;fill-rule:nonzero;fill:rgb(98.823529%,87.843138%,63.529414%);fill-opacity:1;" d="M 50 13 C 29.566406 13 13 29.566406 13 50 C 13 70.433594 29.566406 87 50 87 C 70.433594 87 87 70.433594 87 50 C 87 29.566406 70.433594 13 50 13 Z M 50 13 "/>
<path style=" stroke:none;fill-rule:nonzero;fill:rgb(94.509804%,73.725492%,9.803922%);fill-opacity:1;" d="M 83 11 C 80.789062 11 79 12.789062 79 15 C 79 17.210938 80.789062 19 83 19 C 85.210938 19 87 17.210938 87 15 C 87 12.789062 85.210938 11 83 11 Z M 83 11 "/>
<path style=" stroke:none;fill-rule:nonzero;fill:rgb(93.333334%,24.313726%,32.941177%);fill-opacity:1;" d="M 87 22 C 85.894531 22 85 22.894531 85 24 C 85 25.105469 85.894531 26 87 26 C 88.105469 26 89 25.105469 89 24 C 89 22.894531 88.105469 22 87 22 Z M 87 22 "/>
<path style=" stroke:none;fill-rule:nonzero;fill:rgb(98.431373%,80.392158%,34.901962%);fill-opacity:1;" d="M 81 74 C 79.894531 74 79 74.894531 79 76 C 79 77.105469 79.894531 78 81 78 C 82.105469 78 83 77.105469 83 76 C 83 74.894531 82.105469 74 81 74 Z M 15 59 C 12.789062 59 11 60.789062 11 63 C 11 65.210938 12.789062 67 15 67 C 17.210938 67 19 65.210938 19 63 C 19 60.789062 17.210938 59 15 59 Z M 15 59 "/>
<path style=" stroke:none;fill-rule:nonzero;fill:rgb(93.333334%,24.313726%,32.941177%);fill-opacity:1;" d="M 25 85 C 23.894531 85 23 85.894531 23 87 C 23 88.105469 23.894531 89 25 89 C 26.105469 89 27 88.105469 27 87 C 27 85.894531 26.105469 85 25 85 Z M 25 85 "/>
<path style=" stroke:none;fill-rule:nonzero;fill:rgb(100%,100%,100%);fill-opacity:1;" d="M 18.5 51 C 17.121094 51 16 52.121094 16 53.5 C 16 54.878906 17.121094 56 18.5 56 C 19.878906 56 21 54.878906 21 53.5 C 21 52.121094 19.878906 51 18.5 51 Z M 18.5 51 "/>
<path style=" stroke:none;fill-rule:nonzero;fill:rgb(94.509804%,73.725492%,9.803922%);fill-opacity:1;" d="M 21 66 C 20.449219 66 20 66.449219 20 67 C 20 67.550781 20.449219 68 21 68 C 21.550781 68 22 67.550781 22 67 C 22 66.449219 21.550781 66 21 66 Z M 21 66 "/>
<path style=" stroke:none;fill-rule:nonzero;fill:rgb(100%,100%,100%);fill-opacity:1;" d="M 80 33 C 79.449219 33 79 33.449219 79 34 C 79 34.550781 79.449219 35 80 35 C 80.550781 35 81 34.550781 81 34 C 81 33.449219 80.550781 33 80 33 Z M 80 33 "/>
<path style=" stroke:none;fill-rule:nonzero;fill:rgb(94.509804%,35.686275%,42.352942%);fill-opacity:1;" d="M 26.730469 67.300781 C 26.203125 67.300781 25.730469 67.027344 25.46875 66.570312 C 25.203125 66.113281 25.203125 65.570312 25.464844 65.113281 L 48.734375 24.605469 C 49 24.148438 49.472656 23.875 50 23.875 C 50.53125 23.875 51.003906 24.148438 51.265625 24.605469 L 74.535156 65.113281 C 74.800781 65.570312 74.796875 66.117188 74.535156 66.570312 C 74.273438 67.027344 73.796875 67.300781 73.269531 67.300781 Z M 26.730469 67.300781 "/>
<path style=" stroke:none;fill-rule:nonzero;fill:rgb(27.843139%,16.862746%,16.078432%);fill-opacity:1;" d="M 50 24.574219 C 50.132812 24.574219 50.460938 24.613281 50.65625 24.957031 L 73.929688 65.464844 C 74.125 65.804688 73.992188 66.109375 73.929688 66.222656 C 73.863281 66.335938 73.664062 66.601562 73.273438 66.601562 L 26.730469 66.601562 C 26.335938 66.601562 26.136719 66.335938 26.074219 66.222656 C 26.007812 66.109375 25.875 65.804688 26.070312 65.464844 L 49.34375 24.957031 C 49.539062 24.613281 49.867188 24.574219 50 24.574219 M 50 23.175781 C 49.273438 23.175781 48.542969 23.535156 48.128906 24.257812 L 24.859375 64.765625 C 24.03125 66.203125 25.070312 68 26.730469 68 L 73.269531 68 C 74.929688 68 75.96875 66.203125 75.140625 64.765625 L 51.871094 24.257812 C 51.457031 23.535156 50.726562 23.175781 50 23.175781 Z M 50 23.175781 "/>
<path style=" stroke:none;fill-rule:nonzero;fill:rgb(99.607843%,96.470588%,66.666669%);fill-opacity:1;" d="M 67.960938 62.730469 C 67.90625 62.824219 67.816406 62.875 67.710938 62.875 L 32.289062 62.875 C 32.183594 62.875 32.09375 62.824219 32.039062 62.730469 C 31.988281 62.644531 31.988281 62.535156 32.035156 62.441406 L 49.746094 31.136719 C 49.847656 30.957031 50.148438 30.957031 50.253906 31.136719 L 67.964844 62.441406 C 68.011719 62.535156 68.011719 62.644531 67.960938 62.730469 Z M 67.960938 62.730469 "/>
<path style=" stroke:none;fill-rule:nonzero;fill:rgb(27.843139%,16.862746%,16.078432%);fill-opacity:1;" d="M 67.710938 63 L 32.289062 63 C 32 63 31.746094 62.851562 31.605469 62.605469 C 31.472656 62.386719 31.464844 62.09375 31.589844 61.84375 C 31.714844 61.601562 32.015625 61.503906 32.261719 61.628906 C 32.410156 61.703125 32.507812 61.84375 32.527344 62 L 67.347656 62 L 57.460938 44.742188 C 57.324219 44.503906 57.40625 44.199219 57.648438 44.058594 C 57.886719 43.925781 58.191406 44.007812 58.332031 44.246094 L 68.398438 61.824219 C 68.535156 62.09375 68.527344 62.386719 68.386719 62.617188 C 68.253906 62.851562 68 63 67.710938 63 Z M 67.519531 62.300781 L 67.53125 62.300781 Z M 56.421875 42.40625 C 56.25 42.40625 56.082031 42.316406 55.988281 42.15625 L 54.410156 39.398438 C 54.273438 39.160156 54.355469 38.855469 54.597656 38.714844 C 54.839844 38.578125 55.140625 38.660156 55.277344 38.902344 L 56.855469 41.660156 C 56.992188 41.898438 56.910156 42.203125 56.671875 42.34375 C 56.59375 42.386719 56.507812 42.40625 56.421875 42.40625 Z M 34.421875 58.398438 C 34.339844 58.398438 34.253906 58.378906 34.175781 58.332031 C 33.933594 58.195312 33.851562 57.890625 33.988281 57.648438 L 49.308594 30.882812 C 49.59375 30.402344 50.40625 30.410156 50.683594 30.878906 L 54.058594 36.761719 C 54.195312 37 54.113281 37.304688 53.871094 37.441406 C 53.636719 37.578125 53.328125 37.496094 53.191406 37.257812 L 50 31.691406 L 34.855469 58.148438 C 34.765625 58.308594 34.597656 58.398438 34.421875 58.398438 Z M 34.421875 58.398438 "/>
<path style=" stroke:none;fill-rule:nonzero;fill:rgb(94.509804%,35.686275%,42.352942%);fill-opacity:1;" d="M 50 55.109375 C 48.929688 55.109375 48.0625 55.980469 48.0625 57.050781 C 48.0625 58.121094 48.929688 58.988281 50 58.988281 C 51.070312 58.988281 51.9375 58.121094 51.9375 57.050781 C 51.9375 55.980469 51.070312 55.109375 50 55.109375 Z M 50 55.109375 "/>
<path style=" stroke:none;fill-rule:nonzero;fill:rgb(27.843139%,16.862746%,16.078432%);fill-opacity:1;" d="M 50 59.238281 C 48.792969 59.238281 47.8125 58.257812 47.8125 57.050781 C 47.8125 55.84375 48.792969 54.859375 50 54.859375 C 51.207031 54.859375 52.1875 55.84375 52.1875 57.050781 C 52.1875 58.257812 51.207031 59.238281 50 59.238281 Z M 50 55.359375 C 49.070312 55.359375 48.3125 56.117188 48.3125 57.050781 C 48.3125 57.980469 49.070312 58.738281 50 58.738281 C 50.929688 58.738281 51.6875 57.980469 51.6875 57.050781 C 51.6875 56.117188 50.929688 55.359375 50 55.359375 Z M 50 55.359375 "/>
<path style=" stroke:none;fill-rule:nonzero;fill:rgb(94.509804%,35.686275%,42.352942%);fill-opacity:1;" d="M 48.710938 40.5625 L 51.285156 40.5625 C 51.648438 40.5625 51.941406 40.835938 51.933594 41.167969 L 51.640625 51.863281 C 51.632812 52.183594 51.34375 52.4375 50.992188 52.4375 L 49.003906 52.4375 C 48.652344 52.4375 48.367188 52.183594 48.359375 51.863281 L 48.066406 41.167969 C 48.058594 40.835938 48.347656 40.5625 48.710938 40.5625 Z M 48.710938 40.5625 "/>
<path style=" stroke:none;fill-rule:nonzero;fill:rgb(27.843139%,16.862746%,16.078432%);fill-opacity:1;" d="M 50.992188 52.6875 L 49.003906 52.6875 C 48.515625 52.6875 48.121094 52.328125 48.109375 51.867188 L 47.816406 41.175781 C 47.808594 40.957031 47.894531 40.746094 48.050781 40.585938 C 48.21875 40.414062 48.460938 40.3125 48.714844 40.3125 L 51.289062 40.3125 C 51.539062 40.3125 51.78125 40.414062 51.949219 40.585938 C 52.109375 40.746094 52.191406 40.957031 52.183594 41.175781 L 51.890625 51.867188 C 51.878906 52.328125 51.484375 52.6875 50.992188 52.6875 Z M 48.710938 40.8125 C 48.59375 40.8125 48.484375 40.859375 48.40625 40.9375 C 48.347656 41 48.3125 41.078125 48.316406 41.160156 L 48.609375 51.855469 C 48.613281 52.039062 48.792969 52.1875 49.003906 52.1875 L 50.992188 52.1875 C 51.207031 52.1875 51.386719 52.039062 51.390625 51.855469 L 51.683594 41.160156 C 51.683594 41.078125 51.652344 41 51.589844 40.9375 C 51.515625 40.859375 51.402344 40.8125 51.285156 40.8125 Z M 48.710938 40.8125 "/>
</g>
</svg>
