<svg xmlns="http://www.w3.org/2000/svg"  viewBox="0 0 100 100" width="50px" height="50px"><path fill="#f1bc19" d="M78 13A1 1 0 1 0 78 15A1 1 0 1 0 78 13Z"/><path fill="#fce0a2" d="M50 12A38 38 0 1 0 50 88A38 38 0 1 0 50 12Z"/><path fill="#f1bc19" d="M84 12A4 4 0 1 0 84 20A4 4 0 1 0 84 12Z"/><path fill="#ee3e54" d="M14 24A2 2 0 1 0 14 28A2 2 0 1 0 14 24Z"/><path fill="#fbcd59" d="M78 75A2 2 0 1 0 78 79 2 2 0 1 0 78 75zM17 74A4 4 0 1 0 17 82 4 4 0 1 0 17 74z"/><path fill="#ee3e54" d="M24 81A2 2 0 1 0 24 85A2 2 0 1 0 24 81Z"/><path fill="#fff" d="M66.483 76.03399999999999A2.483 2.483 0 1 0 66.483 81 2.483 2.483 0 1 0 66.483 76.03399999999999zM16 47A1 1 0 1 0 16 49 1 1 0 1 0 16 47z"/><path fill="#f1bc19" d="M86 30A1 1 0 1 0 86 32A1 1 0 1 0 86 30Z"/><path fill="#fff" d="M80 64A2 2 0 1 0 80 68A2 2 0 1 0 80 64Z"/><g><path fill="#a1a1ca" d="M28.989,64.011V35.989c0-3.866,3.134-7,7-7h28.023c3.866,0,7,3.134,7,7v28.023c0,3.866-3.134,7-7,7H35.989C32.123,71.011,28.989,67.877,28.989,64.011z"/></g><g><path fill="#472b29" d="M64,29.4c3.639,0,6.6,2.961,6.6,6.6v28c0,3.639-2.961,6.6-6.6,6.6H36c-3.639,0-6.6-2.961-6.6-6.6V36c0-3.639,2.961-6.6,6.6-6.6H64 M64,28H36c-4.418,0-8,3.582-8,8v28c0,4.418,3.582,8,8,8h28c4.418,0,8-3.582,8-8V36C72,31.582,68.418,28,64,28L64,28z"/></g><g><path fill="#fdfcee" d="M33,64V36c0-1.657,1.343-3,3-3h28c1.657,0,3,1.343,3,3v28c0,1.657-1.343,3-3,3h-8.657H36C34.343,67,33,65.657,33,64z"/></g><g><path fill="#472b29" d="M67.5,45c-0.276,0-0.5-0.224-0.5-0.5v-2c0-0.276,0.224-0.5,0.5-0.5s0.5,0.224,0.5,0.5v2C68,44.776,67.776,45,67.5,45z"/></g><g><path fill="#472b29" d="M67.5,51c-0.276,0-0.5-0.224-0.5-0.5v-3c0-0.276,0.224-0.5,0.5-0.5s0.5,0.224,0.5,0.5v3C68,50.776,67.776,51,67.5,51z"/></g><g><path fill="#472b29" d="M68,53.5v10c0,2.475-2.025,4.5-4.5,4.5h-27c-2.485,0-4.5-2.015-4.5-4.5v-27c0-2.475,2.025-4.5,4.5-4.5h21c0.28,0,0.5,0.22,0.5,0.5c0,0.28-0.22,0.5-0.5,0.5h-21c-1.933,0-3.5,1.567-3.5,3.5v27c0,1.933,1.567,3.5,3.5,3.5h27c1.933,0,3.5-1.567,3.5-3.5v-10c0-0.28,0.22-0.5,0.5-0.5S68,53.22,68,53.5z"/></g><g><path fill="#fdfcee" d="M60.168 46.931L51.965 49.753 51.247 49.012 54.061 40.808z"/><path fill="#8889b9" d="M55.624 48.482L51.963 49.759 51.246 49.006 52.506 45.365z"/><path fill="#f1bc19" d="M80.16,26.83L60.087,46.87l-5.98-5.99L74.17,20.84c0.32-0.31,0.74-0.49,1.19-0.49c0.35,0,0.69,0.11,0.98,0.31c0.61,0.43,1.32,1.05,2.14,1.86c0.81,0.82,1.43,1.53,1.86,2.14C80.81,25.34,80.74,26.25,80.16,26.83z"/><path fill="#8889b9" d="M78.003 29.478L75.483 31.998 69.002 25.517 71.522 22.997z"/><path fill="#fcb9b9" d="M80.403,27.078l-2.76,2.76l-6.481-6.481l2.76-2.76c0.703-0.703,1.804-0.795,2.618-0.224c0.554,0.389,1.268,0.988,2.183,1.903c0.915,0.915,1.515,1.629,1.903,2.183C81.198,25.274,81.106,26.375,80.403,27.078z"/><path fill="#472b29" d="M56.879 39.799H57.379V47.975H56.879z" transform="rotate(-45.001 57.129 43.888)"/><path fill="#472b29" d="M75.663 27.497c-.099.099-.261.099-.36 0l-3.84-3.84c-.099-.099-.099-.261 0-.36.099-.099.261-.099.36 0l3.84 3.84C75.762 27.237 75.762 27.398 75.663 27.497zM77.643 29.478c-.099.099-.261.099-.36 0l-.9-.9c-.099-.099-.099-.261 0-.36s.261-.099.36 0l.9.9C77.742 29.217 77.742 29.378 77.643 29.478z"/><path fill="#472b29" d="M75.362,20.75L75.362,20.75c0.267,0,0.526,0.082,0.747,0.237c0.588,0.413,1.289,1.025,2.084,1.82c0.808,0.808,1.428,1.519,1.841,2.113c0.352,0.507,0.276,1.191-0.161,1.627L59.956,46.464l-8.033,2.678l-0.065-0.065l2.678-8.033l19.917-19.917C74.696,20.884,75.019,20.75,75.362,20.75 M75.362,20c-0.525,0-1.045,0.202-1.44,0.597L54.207,40.313c-0.215,0.215-0.378,0.475-0.477,0.762L51.033,48.9c-0.071,0.186-0.025,0.395,0.117,0.534l0.416,0.416c0.139,0.142,0.349,0.188,0.535,0.117l7.825-2.697c0.287-0.099,0.548-0.262,0.762-0.477l19.716-19.716c0.696-0.696,0.802-1.788,0.239-2.596c-0.388-0.557-0.991-1.278-1.919-2.205c-0.915-0.915-1.629-1.515-2.183-1.903C76.183,20.123,75.772,20,75.362,20L75.362,20z"/><path fill="#472b29" d="M53.876 44.874H54.232V48.777H53.876z" transform="rotate(-45.001 54.054 46.826)"/><path fill="#472b29" d="M55.869 34.223H73.512V34.579H55.869z" transform="rotate(-45.001 64.69 34.402)"/><path fill="#472b29" d="M58.453 40.461000000000006A0.178 0.178 0 1 0 58.453 40.817A0.178 0.178 0 1 0 58.453 40.461000000000006Z"/><path fill="#472b29" d="M59.516 35.412H75.122V35.768H59.516z" transform="rotate(-45.001 67.319 35.59)"/><path fill="#472b29" d="M61.801 40.929A0.178 0.178 0 1 0 61.801 41.285A0.178 0.178 0 1 0 61.801 40.929Z"/></g></svg>