<svg xmlns="http://www.w3.org/2000/svg"  viewBox="0 0 100 100" width="100px" height="100px"><circle cx="77" cy="13" r="1" fill="#f1bc19"/><circle cx="50" cy="50" r="37" fill="#e6edb7"/><circle cx="83" cy="15" r="4" fill="#f1bc19"/><circle cx="87" cy="24" r="2" fill="#88ae45"/><circle cx="81" cy="76" r="2" fill="#fbcd59"/><circle cx="15" cy="63" r="4" fill="#fbcd59"/><circle cx="18.5" cy="51.5" r="2.5" fill="#fff"/><circle cx="79.5" cy="33.5" r="1.5" fill="#fff"/><circle cx="23" cy="83" r="2" fill="#88ae45"/><path fill="#fdfcef" d="M44.45,65.3l-11.693-1.041c0.041-4.614,0.04-4.642,0.039-4.656c-0.003-0.633,0.509-3.8,2.943-6.283 l4.021-4.101c0.549-0.577,0.994-1.793,0-2.806l-3.749-3.822c-0.063-0.058-3.22-2.98-3.22-7.59v-3.849 c0.168-0.055,0.386-0.113,0.587-0.154h21.704c-0.004,0.002,0.024,0.036,0.052,0.097v4.399c-0.081,4.295-2.75,7.068-2.777,7.096 l-3.749,3.822c-0.995,1.013-0.55,2.229-0.009,2.799l4.029,4.109c2.46,2.509,2.971,5.654,2.966,6.298 c0,0.441,0.261,0.618,0.62,0.705l0.001,3.934L44.526,65.3H44.45z"/><path fill="#472b29" d="M54.435,31.697l0,3.77c-0.076,4.009-2.554,6.608-2.579,6.633l-3.748,3.821 c-1.188,1.21-0.895,2.846-0.001,3.788l4.021,4.101c2.304,2.35,2.769,5.316,2.766,5.814c0,0.591,0.271,0.94,0.62,1.15l0.001,2.848 l-11.012,0.978l-11.011-0.978c0.005-3.875,0.004-4.005,0.004-4.005v0c-0.003-0.493,0.463-3.483,2.742-5.807l4.036-4.116 c0.879-0.924,1.173-2.56-0.015-3.772L36.511,42.1l-0.031-0.031l-0.027-0.025c-0.03-0.027-2.961-2.764-2.961-7.044v-3.303h10.693 L54.435,31.697 M55.098,30.297c-0.005,0-0.01,0-0.015,0H44.185H33.31c0,0-1.721,0.325-1.218,0.703v4c0,5,3.42,8.081,3.42,8.081 s2.867,2.923,3.749,3.822c0.882,0.899,0,1.826,0,1.826s-1.291,1.317-4.021,4.101c-2.562,2.613-3.147,5.964-3.142,6.795 c0.001,0.031-0.005,4.632-0.005,4.632c0,0.365,0.262,0.668,0.603,0.699L44.45,66c0.036,0,0.071,0,0.107,0l11.755-1.044 c0.341-0.031,0.603-0.335,0.603-0.7l-0.001-4.542c0,0-0.62-0.059-0.62-0.091c0.007-0.857-0.606-4.183-3.166-6.794 c-2.73-2.784-4.022-4.101-4.022-4.101s-0.882-0.928,0-1.826s3.749-3.822,3.749-3.822s2.89-2.924,2.979-7.587v-4.519 C55.727,30.601,55.446,30.297,55.098,30.297L55.098,30.297z"/><g><path fill="#f6cca4" d="M55.873,65l-0.214-0.084L45,56.572V45.93c0.117-2.467,1.631-4.025,2.184-4.526l4.449-4.779 c1.908-1.672,1.936-4.373,1.938-4.625H34.599c0,0.279,0.068,2.984,1.938,4.625l4.507,4.832c0.495,0.447,1.654,2.005,1.956,4.472 v10.637L32.296,65H55.873z"/><path fill="#472b29" d="M57.187,65.25H31.574l11.176-8.806V45.929c-0.283-2.302-1.35-3.813-1.874-4.287l-4.521-4.846 c-1.982-1.739-2.006-4.671-2.006-4.795v-0.25h19.475l-0.002,0.252c-0.004,0.511-0.12,3.143-2.023,4.811l-4.432,4.761 c-0.61,0.554-2.007,2.058-2.116,4.367v10.509l10.535,8.246L57.187,65.25z M33.018,64.75h22.024L44.75,56.694V45.93 c0.119-2.508,1.624-4.13,2.266-4.711l4.435-4.764c1.549-1.359,1.817-3.408,1.862-4.205H34.858c0.046,0.725,0.312,2.843,1.844,4.187 l4.524,4.849c0.557,0.502,1.719,2.134,2.021,4.613l0.002,10.788L33.018,64.75z"/></g><g><path fill="#bd977c" d="M32.036,32.3c-0.736,0-1.336-0.694-1.336-1.548v-2.505c0-0.853,0.6-1.548,1.336-1.548h23.928 c0.736,0,1.336,0.694,1.336,1.548v2.505c0,0.853-0.6,1.548-1.336,1.548H32.036z"/><path fill="#472b29" d="M55.964,27.4c0.339,0,0.636,0.396,0.636,0.848v2.505c0,0.452-0.297,0.848-0.636,0.848H32.036 c-0.339,0-0.636-0.396-0.636-0.848v-2.505c0-0.452,0.297-0.848,0.636-0.848H55.964 M55.964,26H32.036 C30.916,26,30,27.012,30,28.248v2.505C30,31.989,30.917,33,32.036,33h23.928C57.083,33,58,31.989,58,30.752v-2.505 C58,27.011,57.083,26,55.964,26L55.964,26z"/></g><g><path fill="#bd977c" d="M31.872,69.3c-0.636,0-1.172-0.644-1.172-1.405v-2.789c0-0.762,0.536-1.405,1.172-1.405h24.256 c0.636,0,1.172,0.644,1.172,1.405v2.789c0,0.762-0.536,1.405-1.172,1.405H31.872z"/><path fill="#472b29" d="M56.128,64.4c0.223,0,0.472,0.302,0.472,0.706v2.789c0,0.404-0.249,0.706-0.472,0.706H31.872 c-0.223,0-0.472-0.302-0.472-0.706v-2.789c0-0.404,0.249-0.706,0.472-0.706H56.128 M56.128,63H31.872 C30.842,63,30,63.947,30,65.105v2.789C30,69.053,30.842,70,31.872,70h24.257C57.158,70,58,69.053,58,67.895v-2.789 C58,63.947,57.158,63,56.128,63L56.128,63z"/></g><g><circle cx="62.5" cy="62.5" r="12.5" fill="#00a5a5"/><path fill="#472b29" d="M62.5,75.5c-7.168,0-13-5.832-13-13s5.832-13,13-13s13,5.832,13,13S69.668,75.5,62.5,75.5z M62.5,50.5c-6.617,0-12,5.383-12,12s5.383,12,12,12s12-5.383,12-12S69.117,50.5,62.5,50.5z"/><circle cx="62.5" cy="62.5" r="10.5" fill="#fdfcee"/><path fill="#472b29" d="M62.5,73.25c-5.928,0-10.75-4.822-10.75-10.75s4.822-10.75,10.75-10.75s10.75,4.822,10.75,10.75 S68.428,73.25,62.5,73.25z M62.5,52.25c-5.652,0-10.25,4.598-10.25,10.25s4.598,10.25,10.25,10.25s10.25-4.598,10.25-10.25 S68.152,52.25,62.5,52.25z"/><path fill="#472b29" d="M63.939,60.547l-7.569,7.615c-0.189,0.19-0.419,0.502-0.229,0.692 c0.189,0.19,0.499-0.04,0.688-0.231l7.569-7.615c0.324,0.085,0.911,0.041,1.164-0.214l0.688-0.692 c0.378-0.381,0.378-1.004,0-1.385s-0.998-0.381-1.376,0l-0.688,0.692C63.933,59.665,63.854,60.221,63.939,60.547z"/><path fill="#472b29" d="M68.743,63.192h-5.071c-0.193,0-0.35-0.156-0.35-0.35s0.157-0.35,0.35-0.35h5.071 c0.193,0,0.35,0.156,0.35,0.35S68.936,63.192,68.743,63.192z"/><path fill="#472b29" d="M62.222,62.106c-0.193,0-0.35-0.156-0.35-0.35v-8.332c0-0.193,0.157-0.35,0.35-0.35 s0.35,0.156,0.35,0.35v8.332C62.572,61.95,62.415,62.106,62.222,62.106z"/><path fill="#fbcd59" d="M62.222,61.575c-0.7,0-1.268,0.568-1.268,1.268c0,0.7,0.568,1.268,1.268,1.268 s1.268-0.568,1.268-1.268C63.49,62.143,62.922,61.575,62.222,61.575z"/><path fill="#472b29" d="M62.222,64.46c-0.892,0-1.618-0.726-1.618-1.618c0-0.892,0.726-1.617,1.618-1.617 s1.618,0.726,1.618,1.617C63.84,63.735,63.114,64.46,62.222,64.46z M62.222,61.924c-0.506,0-0.918,0.412-0.918,0.918 c0,0.507,0.412,0.919,0.918,0.919s0.918-0.412,0.918-0.919C63.14,62.336,62.728,61.924,62.222,61.924z"/><path fill="#472b29" d="M54.5,63.75h-2.406c-0.138,0-0.25-0.112-0.25-0.25s0.112-0.25,0.25-0.25H54.5 c0.138,0,0.25,0.112,0.25,0.25S54.638,63.75,54.5,63.75z"/><path fill="#472b29" d="M72.844,63.75H70.5c-0.138,0-0.25-0.112-0.25-0.25s0.112-0.25,0.25-0.25h2.344 c0.138,0,0.25,0.112,0.25,0.25S72.981,63.75,72.844,63.75z"/><path fill="#472b29" d="M62.469,73.125c-0.138,0-0.25-0.112-0.25-0.25v-2.344c0-0.138,0.112-0.25,0.25-0.25 s0.25,0.112,0.25,0.25v2.344C62.719,73.013,62.606,73.125,62.469,73.125z"/><path fill="#472b29" d="M68.147,57.071c-0.064,0-0.128-0.024-0.177-0.073c-0.098-0.098-0.098-0.256,0-0.354l1.657-1.657 c0.098-0.098,0.256-0.098,0.354,0s0.098,0.256,0,0.354l-1.657,1.657C68.275,57.047,68.212,57.071,68.147,57.071z"/><g><path fill="#472b29" d="M56.834,57.115c-0.064,0-0.128-0.024-0.177-0.073l-1.701-1.701c-0.098-0.098-0.098-0.256,0-0.354 s0.256-0.098,0.354,0l1.701,1.701c0.098,0.098,0.098,0.256,0,0.354C56.962,57.091,56.898,57.115,56.834,57.115z"/></g><g><path fill="#472b29" d="M69.805,70.086c-0.064,0-0.128-0.024-0.177-0.073l-1.657-1.657c-0.098-0.098-0.098-0.256,0-0.354 s0.256-0.098,0.354,0l1.657,1.657c0.098,0.098,0.098,0.256,0,0.354C69.933,70.062,69.869,70.086,69.805,70.086z"/></g></g><g><path fill="#472b29" d="M38.5,29.75h-5c-0.138,0-0.25-0.112-0.25-0.25s0.112-0.25,0.25-0.25h5c0.138,0,0.25,0.112,0.25,0.25 S38.638,29.75,38.5,29.75z"/></g><g><path fill="#472b29" d="M36.5,66.75h-3c-0.138,0-0.25-0.112-0.25-0.25s0.112-0.25,0.25-0.25h3c0.138,0,0.25,0.112,0.25,0.25 S36.638,66.75,36.5,66.75z"/></g><g><path fill="#472b29" d="M48.5,66.75h-10c-0.138,0-0.25-0.112-0.25-0.25s0.112-0.25,0.25-0.25h10 c0.138,0,0.25,0.112,0.25,0.25S48.638,66.75,48.5,66.75z"/></g><g><path fill="#472b29" d="M54.5,29.75h-13c-0.138,0-0.25-0.112-0.25-0.25s0.112-0.25,0.25-0.25h13 c0.138,0,0.25,0.112,0.25,0.25S54.638,29.75,54.5,29.75z"/></g></svg>