<svg xmlns="http://www.w3.org/2000/svg"  viewBox="0 0 100 100" width="100px" height="100px"><path fill="#f1bc19" d="M77 12A1 1 0 1 0 77 14A1 1 0 1 0 77 12Z"/><path fill="#e4e4f9" d="M50 13A37 37 0 1 0 50 87A37 37 0 1 0 50 13Z"/><path fill="#f1bc19" d="M83 11A4 4 0 1 0 83 19A4 4 0 1 0 83 11Z"/><path fill="#8889b9" d="M87 22A2 2 0 1 0 87 26A2 2 0 1 0 87 22Z"/><path fill="#fbcd59" d="M81 74A2 2 0 1 0 81 78 2 2 0 1 0 81 74zM15 59A4 4 0 1 0 15 67 4 4 0 1 0 15 59z"/><path fill="#8889b9" d="M25 85A2 2 0 1 0 25 89A2 2 0 1 0 25 85Z"/><path fill="#fff" d="M79.5 32A1.5 1.5 0 1 0 79.5 35A1.5 1.5 0 1 0 79.5 32Z"/><path fill="#fdfcee" d="M29.7,72.3V34.7h40.841c1.521,0,2.758,1.237,2.758,2.758V72.3H29.7z"/><path fill="#472b29" d="M70.542,35.4c1.135,0,2.058,0.923,2.058,2.058V71.6H30.4V35.4H70.542 M70.542,34H29v39h45V37.458 C74,35.548,72.452,34,70.542,34L70.542,34z"/><path fill="#ef7d99" d="M29.583,45h43v-7.563c0-1.139-0.923-2.063-2.063-2.063H29.583V45z"/><path fill="#fff6ae" d="M65.25 49.25H69.75V53.75H65.25z"/><path fill="#472b29" d="M69.5,49.5v4h-4v-4H69.5 M70,49h-5v5h5V49L70,49z"/><path fill="#fff6ae" d="M57.25 49.25H61.75V53.75H57.25z"/><path fill="#472b29" d="M61.5,49.5v4h-4v-4H61.5 M62,49h-5v5h5V49L62,49z"/><path fill="#fff6ae" d="M49.25 49.25H53.75V53.75H49.25z"/><path fill="#472b29" d="M53.5,49.5v4h-4v-4H53.5 M54,49h-5v5h5V49L54,49z"/><path fill="#fff6ae" d="M41.25 49.25H45.75V53.75H41.25z"/><path fill="#472b29" d="M45.5,49.5v4h-4v-4H45.5 M46,49h-5v5h5V49L46,49z"/><path fill="#fff6ae" d="M33.25 49.25H37.75V53.75H33.25z"/><path fill="#472b29" d="M37.5,49.5v4h-4v-4H37.5 M38,49h-5v5h5V49L38,49z"/><path fill="#fff6ae" d="M65.25 56.25H69.75V60.75H65.25z"/><path fill="#472b29" d="M69.5,56.5v4h-4v-4H69.5 M70,56h-5v5h5V56L70,56z"/><path fill="#fff6ae" d="M57.25 56.25H61.75V60.75H57.25z"/><path fill="#472b29" d="M61.5,56.5v4h-4v-4H61.5 M62,56h-5v5h5V56L62,56z"/><g><path fill="#fff6ae" d="M49.25 56.25H53.75V60.75H49.25z"/><path fill="#472b29" d="M53.5,56.5v4h-4v-4H53.5 M54,56h-5v5h5V56L54,56z"/></g><g><path fill="#fff6ae" d="M41.25 56.25H45.75V60.75H41.25z"/><path fill="#472b29" d="M45.5,56.5v4h-4v-4H45.5 M46,56h-5v5h5V56L46,56z"/></g><g><path fill="#fff6ae" d="M33.25 56.25H37.75V60.75H33.25z"/><path fill="#472b29" d="M37.5,56.5v4h-4v-4H37.5 M38,56h-5v5h5V56L38,56z"/></g><g><path fill="#fff6ae" d="M49.25 63.25H53.75V67.75H49.25z"/><path fill="#472b29" d="M53.5,63.5v4h-4v-4H53.5 M54,63h-5v5h5V63L54,63z"/></g><g><path fill="#fff6ae" d="M41.25 63.25H45.75V67.75H41.25z"/><path fill="#472b29" d="M45.5,63.5v4h-4v-4H45.5 M46,63h-5v5h5V63L46,63z"/></g><g><path fill="#fff6ae" d="M33.25 63.25H37.75V67.75H33.25z"/><path fill="#472b29" d="M37.5,63.5v4h-4v-4H37.5 M38,63h-5v5h5V63L38,63z"/></g><g><path fill="#88cdd7" d="M35.5 24.7A12.8 12.8 0 1 0 35.5 50.3A12.8 12.8 0 1 0 35.5 24.7Z"/><path fill="#472b29" d="M35.5,25.4c6.672,0,12.1,5.428,12.1,12.1s-5.428,12.1-12.1,12.1s-12.1-5.428-12.1-12.1 S28.828,25.4,35.5,25.4 M35.5,24C28.044,24,22,30.044,22,37.5S28.044,51,35.5,51S49,44.956,49,37.5S42.956,24,35.5,24L35.5,24z"/></g><g><path fill="#472b29" d="M35.5 35A2.5 2.5 0 1 0 35.5 40A2.5 2.5 0 1 0 35.5 35Z"/></g><g><path fill="#472b29" d="M67.5,38.2c-0.387,0-0.7-0.313-0.7-0.7v-5c0-0.387,0.313-0.7,0.7-0.7s0.7,0.313,0.7,0.7v5 C68.2,37.887,67.887,38.2,67.5,38.2z"/></g><g><path fill="#472b29" d="M62.5,38.2c-0.387,0-0.7-0.313-0.7-0.7v-5c0-0.387,0.313-0.7,0.7-0.7s0.7,0.313,0.7,0.7v5 C63.2,37.887,62.887,38.2,62.5,38.2z"/></g><g><path fill="#472b29" d="M57.5,38.2c-0.387,0-0.7-0.313-0.7-0.7v-5c0-0.387,0.313-0.7,0.7-0.7s0.7,0.313,0.7,0.7v5 C58.2,37.887,57.887,38.2,57.5,38.2z"/></g><g><path fill="#472b29" d="M52.5,38.2c-0.387,0-0.7-0.313-0.7-0.7v-5c0-0.387,0.313-0.7,0.7-0.7s0.7,0.313,0.7,0.7v5 C53.2,37.887,52.887,38.2,52.5,38.2z"/></g><g><path fill="#472b29" d="M35.5,37c-0.276,0-0.5-0.224-0.5-0.5v-9c0-0.276,0.224-0.5,0.5-0.5s0.5,0.224,0.5,0.5v9 C36,36.776,35.776,37,35.5,37z"/></g><g><path fill="#fdfcee" d="M35.478 37.447L40.974 42.943"/><path fill="#472b29" d="M40.974,43.643c-0.179,0-0.358-0.068-0.495-0.205l-5.496-5.496c-0.273-0.273-0.273-0.717,0-0.99 s0.717-0.273,0.99,0l5.496,5.496c0.273,0.273,0.273,0.717,0,0.99C41.333,43.574,41.153,43.643,40.974,43.643z"/></g></svg>