<svg xmlns="http://www.w3.org/2000/svg"  viewBox="0 0 64 64" width="256px" height="256px"><path fill="#faefde" d="M55,55H4a3,3,0,0,1-3-3V12A3,3,0,0,1,4,9H20l6,6H52a3,3,0,0,1,3,3Z"/><path fill="#fff7f0" d="M4,9H20l7,7H1V12A3,3,0,0,1,4,9Z"/><path fill="#cda1a7" d="M55,19h4a2,2,0,0,1,2,2V52a3,3,0,0,1-3,3H55a0,0,0,0,1,0,0V19A0,0,0,0,1,55,19Z"/><path fill="#efd8be" d="M1,45H55a0,0,0,0,1,0,0V55a0,0,0,0,1,0,0H4a3,3,0,0,1-3-3V45a0,0,0,0,1,0,0Z"/><path fill="#72caaf" d="M35.93,39.59a9,9,0,0,0-17.79,0c0,.12.14.35.14.35H35.73S36,39.71,35.93,39.59Z"/><rect width="8" height="10" x="23" y="23" fill="#f9e3ae" rx="4" ry="4"/><path fill="#8d6c9f" d="M51,44H47a1,1,0,0,0,0,2h4a1,1,0,0,0,0-2Z"/><path fill="#8d6c9f" d="M59,18H56V17a3,3,0,0,0-3-3H27.71a3,3,0,0,1-2.11-.87L21.87,9.45A5,5,0,0,0,18.36,8H3a3,3,0,0,0-3,3V52a4,4,0,0,0,4,4H58a4,4,0,0,0,4-4V21A3,3,0,0,0,59,18ZM4,54a2,2,0,0,1-2-2V46H43a1,1,0,0,0,0-2H2V11a1,1,0,0,1,1-1H18.36a3,3,0,0,1,2.11.87l3.73,3.69A5,5,0,0,0,27.71,16H53a1,1,0,0,1,1,1V52a3.94,3.94,0,0,0,.63,2Zm56-2a2,2,0,0,1-2,2,2.26,2.26,0,0,1-2-2V20h3a1,1,0,0,1,1,1Z"/><path fill="#8d6c9f" d="M5 48a1 1 0 0 0-1 1v2a1 1 0 0 0 2 0V49A1 1 0 0 0 5 48zM10 48a1 1 0 0 0-1 1v2a1 1 0 0 0 2 0V49A1 1 0 0 0 10 48zM15 48a1 1 0 0 0-1 1v2a1 1 0 0 0 2 0V49A1 1 0 0 0 15 48zM20 48a1 1 0 0 0-1 1v2a1 1 0 0 0 2 0V49A1 1 0 0 0 20 48zM25 48a1 1 0 0 0-1 1v2a1 1 0 0 0 2 0V49A1 1 0 0 0 25 48zM30 48a1 1 0 0 0-1 1v2a1 1 0 0 0 2 0V49A1 1 0 0 0 30 48zM35 48a1 1 0 0 0-1 1v2a1 1 0 0 0 2 0V49A1 1 0 0 0 35 48zM40 48a1 1 0 0 0-1 1v2a1 1 0 0 0 2 0V49A1 1 0 0 0 40 48zM45 48a1 1 0 0 0-1 1v2a1 1 0 0 0 2 0V49A1 1 0 0 0 45 48zM50 48a1 1 0 0 0-1 1v2a1 1 0 0 0 2 0V49A1 1 0 0 0 50 48zM31.2 31.69A5 5 0 0 0 32 29V27a5 5 0 0 0-10 0v2a5 5 0 0 0 .8 2.69 9.65 9.65 0 0 0-5.52 7.07 1 1 0 1 0 2 .37 7.52 7.52 0 0 1 5.12-5.9 4.9 4.9 0 0 0 5.26 0 7.52 7.52 0 0 1 5.12 5.9 1 1 0 0 0 1 .82l.18 0a1 1 0 0 0 .8-1.17A9.66 9.66 0 0 0 31.2 31.69zM24 27a3 3 0 0 1 6 0v2a3 3 0 0 1-6 0z"/></svg>