<?xml version="1.0" encoding="UTF-8"?>
<svg xmlns="http://www.w3.org/2000/svg" xmlns:xlink="http://www.w3.org/1999/xlink" width="100pt" height="100pt" viewBox="0 0 100 100" version="1.1">
<g id="surface6900807">
<path style=" stroke:none;fill-rule:nonzero;fill:rgb(93.333334%,24.313726%,32.941177%);fill-opacity:1;" d="M 13 27 C 11.894531 27 11 27.894531 11 29 C 11 30.105469 11.894531 31 13 31 C 14.105469 31 15 30.105469 15 29 C 15 27.894531 14.105469 27 13 27 Z M 13 27 "/>
<path style=" stroke:none;fill-rule:nonzero;fill:rgb(94.509804%,73.725492%,9.803922%);fill-opacity:1;" d="M 77 12 C 76.449219 12 76 12.449219 76 13 C 76 13.550781 76.449219 14 77 14 C 77.550781 14 78 13.550781 78 13 C 78 12.449219 77.550781 12 77 12 Z M 77 12 "/>
<path style=" stroke:none;fill-rule:nonzero;fill:rgb(92.54902%,94.117647%,94.509804%);fill-opacity:1;" d="M 50 13 C 29.566406 13 13 29.566406 13 50 C 13 70.433594 29.566406 87 50 87 C 70.433594 87 87 70.433594 87 50 C 87 29.566406 70.433594 13 50 13 Z M 50 13 "/>
<path style=" stroke:none;fill-rule:nonzero;fill:rgb(94.509804%,73.725492%,9.803922%);fill-opacity:1;" d="M 83 11 C 80.789062 11 79 12.789062 79 15 C 79 17.210938 80.789062 19 83 19 C 85.210938 19 87 17.210938 87 15 C 87 12.789062 85.210938 11 83 11 Z M 83 11 "/>
<path style=" stroke:none;fill-rule:nonzero;fill:rgb(93.333334%,24.313726%,32.941177%);fill-opacity:1;" d="M 87 22 C 85.894531 22 85 22.894531 85 24 C 85 25.105469 85.894531 26 87 26 C 88.105469 26 89 25.105469 89 24 C 89 22.894531 88.105469 22 87 22 Z M 87 22 "/>
<path style=" stroke:none;fill-rule:nonzero;fill:rgb(98.431373%,80.392158%,34.901962%);fill-opacity:1;" d="M 81 74 C 79.894531 74 79 74.894531 79 76 C 79 77.105469 79.894531 78 81 78 C 82.105469 78 83 77.105469 83 76 C 83 74.894531 82.105469 74 81 74 Z M 15 59 C 12.789062 59 11 60.789062 11 63 C 11 65.210938 12.789062 67 15 67 C 17.210938 67 19 65.210938 19 63 C 19 60.789062 17.210938 59 15 59 Z M 15 59 "/>
<path style=" stroke:none;fill-rule:nonzero;fill:rgb(93.333334%,24.313726%,32.941177%);fill-opacity:1;" d="M 25 85 C 23.894531 85 23 85.894531 23 87 C 23 88.105469 23.894531 89 25 89 C 26.105469 89 27 88.105469 27 87 C 27 85.894531 26.105469 85 25 85 Z M 25 85 "/>
<path style=" stroke:none;fill-rule:nonzero;fill:rgb(100%,100%,100%);fill-opacity:1;" d="M 18.5 51 C 17.121094 51 16 52.121094 16 53.5 C 16 54.878906 17.121094 56 18.5 56 C 19.878906 56 21 54.878906 21 53.5 C 21 52.121094 19.878906 51 18.5 51 Z M 18.5 51 "/>
<path style=" stroke:none;fill-rule:nonzero;fill:rgb(94.509804%,73.725492%,9.803922%);fill-opacity:1;" d="M 21 66 C 20.449219 66 20 66.449219 20 67 C 20 67.550781 20.449219 68 21 68 C 21.550781 68 22 67.550781 22 67 C 22 66.449219 21.550781 66 21 66 Z M 21 66 "/>
<path style=" stroke:none;fill-rule:nonzero;fill:rgb(100%,100%,100%);fill-opacity:1;" d="M 80 33 C 79.449219 33 79 33.449219 79 34 C 79 34.550781 79.449219 35 80 35 C 80.550781 35 81 34.550781 81 34 C 81 33.449219 80.550781 33 80 33 Z M 80 33 "/>
<path style=" stroke:none;fill-rule:nonzero;fill:rgb(47.058824%,63.529414%,82.352942%);fill-opacity:1;" d="M 35 72.300781 C 31 72.300781 27.699219 69 27.699219 65 L 27.699219 35 C 27.699219 31 31 27.699219 35 27.699219 L 65 27.699219 C 69 27.699219 72.300781 31 72.300781 35 L 72.300781 65 C 72.300781 69 69 72.300781 65 72.300781 Z M 35 72.300781 "/>
<path style=" stroke:none;fill-rule:nonzero;fill:rgb(27.843139%,16.862746%,16.078432%);fill-opacity:1;" d="M 65 28.398438 C 68.601562 28.398438 71.601562 31.398438 71.601562 35 L 71.601562 65 C 71.601562 68.601562 68.601562 71.601562 65 71.601562 L 35 71.601562 C 31.398438 71.601562 28.398438 68.601562 28.398438 65 L 28.398438 35 C 28.398438 31.398438 31.398438 28.398438 35 28.398438 L 65 28.398438 M 65 27 L 35 27 C 30.601562 27 27 30.601562 27 35 L 27 65 C 27 69.398438 30.601562 73 35 73 L 65 73 C 69.398438 73 73 69.398438 73 65 L 73 35 C 73 30.601562 69.398438 27 65 27 Z M 65 27 "/>
<path style=" stroke:none;fill-rule:nonzero;fill:rgb(27.843139%,16.862746%,16.078432%);fill-opacity:1;" d="M 68.5 47.398438 C 68.199219 47.398438 68 47.199219 68 46.898438 L 68 43 C 68 42.699219 68.199219 42.5 68.5 42.5 C 68.800781 42.5 69 42.699219 69 43 L 69 46.898438 C 69 47.199219 68.800781 47.398438 68.5 47.398438 Z M 68.5 47.398438 "/>
<path style=" stroke:none;fill-rule:nonzero;fill:rgb(27.843139%,16.862746%,16.078432%);fill-opacity:1;" d="M 68.5 40.5 C 68.199219 40.5 68 40.300781 68 40 L 68 38 C 68 37.699219 68.199219 37.5 68.5 37.5 C 68.800781 37.5 69 37.699219 69 38 L 69 40 C 69 40.300781 68.800781 40.5 68.5 40.5 Z M 68.5 40.5 "/>
<path style=" stroke:none;fill-rule:nonzero;fill:rgb(27.843139%,16.862746%,16.078432%);fill-opacity:1;" d="M 64 69 L 36 69 C 33.199219 69 31 66.800781 31 64 L 31 36 C 31 33.199219 33.199219 31 36 31 L 61.398438 31 C 61.699219 31 61.898438 31.199219 61.898438 31.5 C 61.898438 31.800781 61.699219 32 61.398438 32 L 36 32 C 33.800781 32 32 33.800781 32 36 L 32 64 C 32 66.199219 33.800781 68 36 68 L 64 68 C 66.199219 68 68 66.199219 68 64 L 68 49.601562 C 68 49.300781 68.199219 49.101562 68.5 49.101562 C 68.800781 49.101562 69 49.300781 69 49.601562 L 69 64 C 69 66.800781 66.800781 69 64 69 Z M 64 69 "/>
<path style=" stroke:none;fill-rule:nonzero;fill:rgb(99.215686%,98.823529%,93.333334%);fill-opacity:1;" d="M 52.300781 58.199219 C 52.300781 59.101562 53.300781 59.601562 55.300781 59.601562 L 55.300781 61.398438 L 44.699219 61.398438 L 44.699219 59.601562 C 46.699219 59.601562 47.699219 59.101562 47.699219 58.199219 L 47.699219 48.601562 C 47.699219 47.601562 46.699219 47.101562 44.699219 47.101562 L 44.699219 45.300781 L 52.398438 45.300781 L 52.398438 58.199219 Z M 52.800781 40.101562 C 52.800781 40.800781 52.5 41.5 52 42 C 51.5 42.5 50.699219 42.800781 49.898438 42.800781 C 49.5 42.800781 49.101562 42.699219 48.699219 42.601562 C 48.300781 42.5 48 42.300781 47.800781 42 C 47.601562 41.699219 47.300781 41.5 47.199219 41.101562 C 47 40.800781 47 40.398438 47 40 C 47 39.199219 47.300781 38.601562 47.898438 38.101562 C 48.5 37.601562 49.199219 37.300781 50 37.300781 C 50.800781 37.300781 51.5 37.601562 52.101562 38.101562 C 52.5 38.699219 52.800781 39.300781 52.800781 40.101562 Z M 52.800781 40.101562 "/>
<path style=" stroke:none;fill-rule:nonzero;fill:rgb(27.843139%,16.862746%,16.078432%);fill-opacity:1;" d="M 55.800781 62 L 44.199219 62 L 44.199219 59.199219 L 44.699219 59.199219 C 45.800781 59.199219 47.199219 59 47.199219 58.300781 L 47.199219 48.699219 C 47.199219 47.898438 45.898438 47.699219 44.699219 47.699219 L 44.199219 47.699219 L 44.199219 44.898438 L 52.898438 44.898438 L 52.898438 58.300781 C 52.898438 58.5 52.898438 58.601562 53 58.699219 C 53.199219 58.898438 53.699219 59.199219 55.398438 59.199219 L 55.898438 59.199219 L 55.898438 62 Z M 45.199219 61 L 54.898438 61 L 54.898438 60.199219 C 53.601562 60.101562 52.800781 59.898438 52.300781 59.398438 C 52 59.101562 51.898438 58.699219 51.898438 58.300781 L 51.898438 45.898438 L 45.199219 45.898438 L 45.199219 46.699219 C 47.199219 46.800781 48.199219 47.398438 48.199219 48.601562 L 48.199219 58.199219 C 48.199219 59.398438 47.199219 60 45.199219 60.101562 Z M 49.800781 43.300781 C 49.300781 43.300781 48.898438 43.199219 48.5 43 C 48.101562 42.800781 47.699219 42.601562 47.398438 42.300781 C 47.101562 42 46.800781 41.699219 46.699219 41.300781 C 46.5 40.898438 46.398438 40.5 46.398438 40 C 46.398438 39.101562 46.800781 38.300781 47.398438 37.699219 C 48.101562 37.101562 48.898438 36.800781 49.800781 36.800781 C 50.699219 36.800781 51.5 37.101562 52.199219 37.699219 C 52.898438 38.300781 53.199219 39.101562 53.199219 40 C 53.199219 40.898438 52.898438 41.601562 52.199219 42.300781 C 51.601562 43 50.800781 43.300781 49.800781 43.300781 Z M 49.800781 37.898438 C 49.101562 37.898438 48.5 38.101562 48 38.5 C 47.5 38.898438 47.300781 39.398438 47.300781 40 C 47.300781 40.300781 47.398438 40.601562 47.5 40.800781 C 47.601562 41.101562 47.800781 41.300781 48 41.5 C 48.199219 41.699219 48.5 41.898438 48.800781 42 C 49.101562 42.101562 49.398438 42.199219 49.800781 42.199219 C 50.5 42.199219 51.101562 42 51.5 41.5 C 52 41.101562 52.199219 40.601562 52.199219 40 C 52.199219 39.398438 52 38.898438 51.5 38.5 C 51.101562 38.101562 50.5 37.898438 49.800781 37.898438 Z M 49.800781 37.898438 "/>
</g>
</svg>
