<?xml version="1.0" encoding="UTF-8"?>
<svg xmlns="http://www.w3.org/2000/svg" xmlns:xlink="http://www.w3.org/1999/xlink" width="100pt" height="100pt" viewBox="0 0 100 100" version="1.1">
<g id="surface488797">
<path style=" stroke:none;fill-rule:nonzero;fill:rgb(100%,100%,100%);fill-opacity:1;" d="M 78 13 C 77.449219 13 77 13.449219 77 14 C 77 14.550781 77.449219 15 78 15 C 78.550781 15 79 14.550781 79 14 C 79 13.449219 78.550781 13 78 13 Z M 78 13 "/>
<path style=" stroke:none;fill-rule:nonzero;fill:rgb(92.54902%,94.117647%,94.509804%);fill-opacity:1;" d="M 50 12 C 29.011719 12 12 29.011719 12 50 C 12 70.988281 29.011719 88 50 88 C 70.988281 88 88 70.988281 88 50 C 88 29.011719 70.988281 12 50 12 Z M 50 12 "/>
<path style=" stroke:none;fill-rule:nonzero;fill:rgb(100%,100%,100%);fill-opacity:1;" d="M 84 12 C 81.789062 12 80 13.789062 80 16 C 80 18.210938 81.789062 20 84 20 C 86.210938 20 88 18.210938 88 16 C 88 13.789062 86.210938 12 84 12 Z M 84 12 "/>
<path style=" stroke:none;fill-rule:nonzero;fill:rgb(100%,100%,100%);fill-opacity:1;" d="M 14 24 C 12.894531 24 12 24.894531 12 26 C 12 27.105469 12.894531 28 14 28 C 15.105469 28 16 27.105469 16 26 C 16 24.894531 15.105469 24 14 24 Z M 14 24 "/>
<path style=" stroke:none;fill-rule:nonzero;fill:rgb(100%,100%,100%);fill-opacity:1;" d="M 78 75 C 76.894531 75 76 75.894531 76 77 C 76 78.105469 76.894531 79 78 79 C 79.105469 79 80 78.105469 80 77 C 80 75.894531 79.105469 75 78 75 Z M 17 74 C 14.789062 74 13 75.789062 13 78 C 13 80.210938 14.789062 82 17 82 C 19.210938 82 21 80.210938 21 78 C 21 75.789062 19.210938 74 17 74 Z M 17 74 "/>
<path style=" stroke:none;fill-rule:nonzero;fill:rgb(100%,100%,100%);fill-opacity:1;" d="M 24 81 C 22.894531 81 22 81.894531 22 83 C 22 84.105469 22.894531 85 24 85 C 25.105469 85 26 84.105469 26 83 C 26 81.894531 25.105469 81 24 81 Z M 24 81 "/>
<path style=" stroke:none;fill-rule:nonzero;fill:rgb(100%,100%,100%);fill-opacity:1;" d="M 66.5 76 C 65.121094 76 64 77.121094 64 78.5 C 64 79.878906 65.121094 81 66.5 81 C 67.878906 81 69 79.878906 69 78.5 C 69 77.121094 67.878906 76 66.5 76 Z M 16 47 C 15.449219 47 15 47.449219 15 48 C 15 48.550781 15.449219 49 16 49 C 16.550781 49 17 48.550781 17 48 C 17 47.449219 16.550781 47 16 47 Z M 16 47 "/>
<path style=" stroke:none;fill-rule:nonzero;fill:rgb(100%,100%,100%);fill-opacity:1;" d="M 86 30 C 85.449219 30 85 30.449219 85 31 C 85 31.550781 85.449219 32 86 32 C 86.550781 32 87 31.550781 87 31 C 87 30.449219 86.550781 30 86 30 Z M 86 30 "/>
<path style=" stroke:none;fill-rule:nonzero;fill:rgb(100%,100%,100%);fill-opacity:1;" d="M 80 64 C 78.894531 64 78 64.894531 78 66 C 78 67.105469 78.894531 68 80 68 C 81.105469 68 82 67.105469 82 66 C 82 64.894531 81.105469 64 80 64 Z M 80 64 "/>
<path style=" stroke:none;fill-rule:nonzero;fill:rgb(48.235294%,65.882355%,74.901962%);fill-opacity:1;" d="M 38 73.300781 C 34 73.300781 30.699219 70 30.699219 66 L 30.699219 33 C 30.699219 29 34 25.699219 38 25.699219 L 61 25.699219 C 65 25.699219 68.300781 29 68.300781 33 L 68.300781 66 C 68.300781 70 65 73.300781 61 73.300781 Z M 38 73.300781 "/>
<path style=" stroke:none;fill-rule:nonzero;fill:rgb(98.039216%,90.980393%,90.196079%);fill-opacity:1;" d="M 62.398438 64.601562 L 62.398438 37 C 62.398438 35.699219 63.398438 34.601562 64.699219 34.601562 L 68.199219 34.601562 L 68.199219 64.601562 Z M 62.398438 64.601562 "/>
<path style=" stroke:none;fill-rule:nonzero;fill:rgb(27.843139%,16.862746%,16.078432%);fill-opacity:1;" d="M 61 26.398438 C 64.601562 26.398438 67.601562 29.398438 67.601562 33 L 67.601562 66 C 67.601562 69.601562 64.601562 72.601562 61 72.601562 L 38 72.601562 C 34.398438 72.601562 31.398438 69.601562 31.398438 66 L 31.398438 33 C 31.398438 29.398438 34.398438 26.398438 38 26.398438 L 61 26.398438 M 61 25 L 38 25 C 33.601562 25 30 28.601562 30 33 L 30 66 C 30 70.398438 33.601562 74 38 74 L 61 74 C 65.398438 74 69 70.398438 69 66 L 69 33 C 69 28.601562 65.398438 25 61 25 Z M 61 25 "/>
<path style=" stroke:none;fill-rule:nonzero;fill:rgb(27.843139%,16.862746%,16.078432%);fill-opacity:1;" d="M 62.5 70 C 62.199219 70 62 69.800781 62 69.5 L 62 36.898438 C 62 35.300781 63.300781 34 64.898438 34 L 68.5 34 C 68.800781 34 69 34.199219 69 34.5 C 69 34.800781 68.800781 35 68.5 35 L 64.898438 35 C 63.800781 35 63 35.898438 63 36.898438 L 63 69.5 C 63 69.800781 62.800781 70 62.5 70 Z M 62.5 70 "/>
<path style=" stroke:none;fill-rule:nonzero;fill:rgb(99.607843%,99.215686%,93.725491%);fill-opacity:1;" d="M 41.300781 49.5 L 55.699219 49.5 C 56.699219 49.5 57.5 48.699219 57.5 47.699219 L 57.5 37.300781 C 57.5 36.300781 56.699219 35.5 55.699219 35.5 L 41.300781 35.5 C 40.300781 35.5 39.5 36.300781 39.5 37.300781 L 39.5 47.699219 C 39.5 48.699219 40.300781 49.5 41.300781 49.5 Z M 41.300781 49.5 "/>
<path style=" stroke:none;fill-rule:nonzero;fill:rgb(27.843139%,16.862746%,16.078432%);fill-opacity:1;" d="M 47.101562 36 L 44.898438 36 C 44.601562 36 44.398438 35.800781 44.398438 35.5 C 44.398438 35.199219 44.601562 35 44.898438 35 L 47.101562 35 C 47.398438 35 47.601562 35.199219 47.601562 35.5 C 47.601562 35.800781 47.398438 36 47.101562 36 Z M 47.101562 36 "/>
<path style=" stroke:none;fill-rule:nonzero;fill:rgb(27.843139%,16.862746%,16.078432%);fill-opacity:1;" d="M 55.800781 50 L 41.199219 50 C 40 50 39 48.898438 39 47.699219 L 39 37.300781 C 39 36 40 35 41.199219 35 L 42.5 35 C 42.800781 35 43 35.199219 43 35.5 C 43 35.800781 42.800781 36 42.5 36 L 41.199219 36 C 40.5 36 40 36.601562 40 37.300781 L 40 47.601562 C 40 48.300781 40.601562 48.898438 41.199219 48.898438 L 55.699219 48.898438 C 56.398438 48.898438 56.898438 48.300781 56.898438 47.601562 L 56.898438 37.300781 C 56.898438 36.601562 56.300781 36 55.699219 36 L 49.398438 36 C 49.101562 36 48.898438 35.800781 48.898438 35.5 C 48.898438 35.199219 49.101562 35 49.398438 35 L 55.699219 35 C 56.898438 35 57.898438 36.101562 57.898438 37.300781 L 57.898438 47.601562 C 58 48.898438 57 50 55.800781 50 Z M 33.5 35 L 28.5 35 C 28.199219 35 28 34.800781 28 34.5 C 28 34.199219 28.199219 34 28.5 34 L 33.5 34 C 33.800781 34 34 34.199219 34 34.5 C 34 34.800781 33.800781 35 33.5 35 Z M 67.5 41 L 62.5 41 C 62.199219 41 62 40.800781 62 40.5 C 62 40.199219 62.199219 40 62.5 40 L 67.5 40 C 67.800781 40 68 40.199219 68 40.5 C 68 40.800781 67.800781 41 67.5 41 Z M 67.5 47 L 62.5 47 C 62.199219 47 62 46.800781 62 46.5 C 62 46.199219 62.199219 46 62.5 46 L 67.5 46 C 67.800781 46 68 46.199219 68 46.5 C 68 46.800781 67.800781 47 67.5 47 Z M 67.5 53 L 62.5 53 C 62.199219 53 62 52.800781 62 52.5 C 62 52.199219 62.199219 52 62.5 52 L 67.5 52 C 67.800781 52 68 52.199219 68 52.5 C 68 52.800781 67.800781 53 67.5 53 Z M 67.5 59 L 62.5 59 C 62.199219 59 62 58.800781 62 58.5 C 62 58.199219 62.199219 58 62.5 58 L 67.5 58 C 67.800781 58 68 58.199219 68 58.5 C 68 58.800781 67.800781 59 67.5 59 Z M 67.5 59 "/>
<path style=" stroke:none;fill-rule:nonzero;fill:rgb(27.843139%,16.862746%,16.078432%);fill-opacity:1;" d="M 67.5 65 L 62.5 65 C 62.199219 65 62 64.800781 62 64.5 C 62 64.199219 62.199219 64 62.5 64 L 67.5 64 C 67.800781 64 68 64.199219 68 64.5 C 68 64.800781 67.800781 65 67.5 65 Z M 67.5 65 "/>
<path style=" stroke:none;fill-rule:nonzero;fill:rgb(27.843139%,16.862746%,16.078432%);fill-opacity:1;" d="M 33.5 40 L 28.5 40 C 28.199219 40 28 39.800781 28 39.5 C 28 39.199219 28.199219 39 28.5 39 L 33.5 39 C 33.800781 39 34 39.199219 34 39.5 C 34 39.800781 33.800781 40 33.5 40 Z M 33.5 40 "/>
<path style=" stroke:none;fill-rule:nonzero;fill:rgb(27.843139%,16.862746%,16.078432%);fill-opacity:1;" d="M 33.5 45 L 28.5 45 C 28.199219 45 28 44.800781 28 44.5 C 28 44.199219 28.199219 44 28.5 44 L 33.5 44 C 33.800781 44 34 44.199219 34 44.5 C 34 44.800781 33.800781 45 33.5 45 Z M 33.5 45 "/>
<path style=" stroke:none;fill-rule:nonzero;fill:rgb(27.843139%,16.862746%,16.078432%);fill-opacity:1;" d="M 33.5 50 L 28.5 50 C 28.199219 50 28 49.800781 28 49.5 C 28 49.199219 28.199219 49 28.5 49 L 33.5 49 C 33.800781 49 34 49.199219 34 49.5 C 34 49.800781 33.800781 50 33.5 50 Z M 33.5 50 "/>
<path style=" stroke:none;fill-rule:nonzero;fill:rgb(27.843139%,16.862746%,16.078432%);fill-opacity:1;" d="M 33.5 55 L 28.5 55 C 28.199219 55 28 54.800781 28 54.5 C 28 54.199219 28.199219 54 28.5 54 L 33.5 54 C 33.800781 54 34 54.199219 34 54.5 C 34 54.800781 33.800781 55 33.5 55 Z M 33.5 55 "/>
<path style=" stroke:none;fill-rule:nonzero;fill:rgb(27.843139%,16.862746%,16.078432%);fill-opacity:1;" d="M 33.5 60 L 28.5 60 C 28.199219 60 28 59.800781 28 59.5 C 28 59.199219 28.199219 59 28.5 59 L 33.5 59 C 33.800781 59 34 59.199219 34 59.5 C 34 59.800781 33.800781 60 33.5 60 Z M 33.5 60 "/>
<path style=" stroke:none;fill-rule:nonzero;fill:rgb(27.843139%,16.862746%,16.078432%);fill-opacity:1;" d="M 33.5 65 L 28.5 65 C 28.199219 65 28 64.800781 28 64.5 C 28 64.199219 28.199219 64 28.5 64 L 33.5 64 C 33.800781 64 34 64.199219 34 64.5 C 34 64.800781 33.800781 65 33.5 65 Z M 33.5 65 "/>
<path style=" stroke:none;fill-rule:nonzero;fill:rgb(63.921571%,63.921571%,80.392158%);fill-opacity:1;" d="M 48.5 38.5 C 46.84375 38.5 45.5 39.84375 45.5 41.5 C 45.5 43.15625 46.84375 44.5 48.5 44.5 C 50.15625 44.5 51.5 43.15625 51.5 41.5 C 51.5 39.84375 50.15625 38.5 48.5 38.5 Z M 48.5 38.5 "/>
<path style=" stroke:none;fill-rule:nonzero;fill:rgb(27.843139%,16.862746%,16.078432%);fill-opacity:1;" d="M 48.5 39 C 49.898438 39 51 40.101562 51 41.5 C 51 42.898438 49.898438 44 48.5 44 C 47.101562 44 46 42.898438 46 41.5 C 46 40.101562 47.101562 39 48.5 39 M 48.5 38 C 46.601562 38 45 39.601562 45 41.5 C 45 43.398438 46.601562 45 48.5 45 C 50.398438 45 52 43.398438 52 41.5 C 52 39.601562 50.398438 38 48.5 38 Z M 48.5 38 "/>
<path style=" stroke:none;fill-rule:nonzero;fill:rgb(63.921571%,63.921571%,80.392158%);fill-opacity:1;" d="M 43.5 49.5 C 43.699219 46.699219 45.898438 44.5 48.5 44.5 C 51.101562 44.5 53.199219 46.699219 53.5 49.5 Z M 43.5 49.5 "/>
<path style=" stroke:none;fill-rule:nonzero;fill:rgb(27.843139%,16.862746%,16.078432%);fill-opacity:1;" d="M 48.5 45 C 50.699219 45 52.5 46.699219 52.898438 49 L 44.101562 49 C 44.5 46.699219 46.300781 45 48.5 45 M 48.5 44 C 45.5 44 43 46.699219 43 50 L 54 50 C 54 46.699219 51.5 44 48.5 44 Z M 48.5 44 "/>
<path style=" stroke:none;fill-rule:nonzero;fill:rgb(63.921571%,63.921571%,80.392158%);fill-opacity:1;" d="M 41.5 76.5 L 39.5 77.300781 L 39.5 73.5 L 43.5 73.5 L 43.5 77.300781 Z M 41.5 76.5 "/>
<path style=" stroke:none;fill-rule:nonzero;fill:rgb(27.843139%,16.862746%,16.078432%);fill-opacity:1;" d="M 43 74 L 43 76.5 L 41.800781 76 L 41.398438 75.898438 L 41 76.101562 L 40 76.5 L 40 74 L 43 74 M 44 73 L 39 73 L 39 78 L 41.5 77 L 44 78 Z M 44 73 "/>
</g>
</svg>
