<svg xmlns="http://www.w3.org/2000/svg"  viewBox="0 0 512 512" width="96px" height="96px"><path fill="#D6E5E5" d="M410,320.4c-3.1-15.9-13.9-38.4-32-41.1c-11.4-1.7-20.9,6.1-29.4,12.5c-5,3.8-11.1,9.2-17.3,10.8c-6.2,1.6-12.7,2.1-19,0.4c-13.5-3.8-25.2-12.9-36.1-21.5c-11.8-9.3-22.8-19.5-33.7-29.8c-7.6-7.1-16.6-14.3-20.9-24c-4.5-10.1,0.2-19.4,8.8-25.4c4.3-3,9.1-5.2,13.6-8c4.6-2.8,8.6-7.7,10.9-12.6c5.3-11.6,1.1-24.9-5.4-35.2c-6.7-10.5-15.9-19.6-27.1-25.3c-5.5-2.8-11.3-5.1-17.5-5.9c-3.8-0.5-7.5-0.4-11.2,0c-0.5,0.5-1.1,0.9-1.9,1.3c-5.2,2.3-10.1,5.1-14.6,8.7c-18.3,14.9-26.3,40.8-19.9,63.5c6.9,24.7,24.7,43.4,39.6,63.6c17.5,23.8,36,47.6,57,68.4c10.2,10,21.1,19.5,32.7,27.9c10.8,7.9,22.8,15.3,35.8,19.1c12.3,3.5,24.2,3.5,36.8,2.1c9.7-1.1,19.4-2.7,28.5-6.4c8.1-3.2,16.3-8.2,20.2-16.4C411.8,338.9,411.8,329.2,410,320.4z"/><path fill="#3AB37C" d="M450,323.6c0-28.8-0.2-57.7-1.6-86.4c-1.3-27.6-5.7-55-5.6-82.7c0.1-13.5,0.5-26.9,0.6-40.4c0.1-6.9-0.1-13.6-1.9-20.3c-1.2-4.4-2.5-8.9-3.1-13.4c-13.4-0.7-26.7-2.7-40.1-2.8c-15.1-0.1-30.1-0.4-45.2-0.4c-30.2,0.1-60.5,0.7-90.7,1.8c-30.5,1.1-61,1.5-91.5,1.6c-23.7,0.1-48.2,2.7-71.5-2.6c2.6,26.9,3.9,53.9,4.5,80.9c0.3,14,0.1,28,0.4,41.9c0.3,12.6,2,25.1,3.4,37.7c1.5,13.4,2,26.7,1.1,40.2c-0.8,13-2.5,25.9-3.2,38.9c-1.3,25.6-0.4,51.4-0.4,77c0,0.1,0,0.2,0,0.4v2c48.9,0.3,97.8,3,146.7,3c3.9,0,5.9,3.3,5.8,6.4c10.2,14.1,21.9,27.1,31.6,41.5c0.9-4.7,2-9.4,3.5-13.9c2.4-7.3,5.1-15.4,9.9-21.6c7.7-10,19.7-9.3,31.1-9.3c21.3,0,42.6-0.8,63.9-2.3c9.2-0.7,18-0.8,27.2-0.4c7.6,0.4,15.6,0.9,22.8-2.1c0.1,0,0.1,0,0.2-0.1c0-4.4,0.5-8.8,1.1-13.2c0.8-6.4,1.1-12.5,1.1-18.9C450,351.9,450,337.8,450,323.6z M405.4,366.4c-15.8,11.5-37,14.4-56,15.5c-27.9,1.7-52.6-11.2-74.1-27.8c-23.2-17.9-43.2-39.1-61.6-61.9c-9.2-11.4-18.2-23.1-27-34.8c-7.5-10.1-15.6-19.7-22.7-30.1c-14.2-20.7-24-45-18.2-70.4c4.5-19.7,16.1-35.8,32.8-46c0.3-2.4,1.9-4.6,4.8-5.2c15.4-3.1,29.8-2.1,43.8,5.4c12.6,6.8,23.9,16.8,31.4,29.1c6.1,10.1,11.4,23,9.6,35.1c-1.7,11.3-8.9,22.9-19,28.6c-5.5,3.1-21.3,9.1-18,17.8c3.5,9.3,13,16.2,20,22.8c11.4,10.6,22.9,21.3,35.3,30.7c10.3,7.8,23.5,19.4,37.5,17.4c7-1,12.9-6,18.4-10.2c5-3.8,10-7.6,15.7-10.4c9-4.4,18.9-5.7,28.4-2c17.9,6.8,29.4,26.7,33.5,44.6C424.5,333.7,422.2,354.3,405.4,366.4z"/><path d="M461.1,365.2c0-14.2,0-28.3,0-42.5c0-28.8-0.3-57.7-1.6-86.4c-1.3-27.6-5.6-55-5.6-82.7c0-13.5,0.4-26.9,0.6-40.4c0.1-6.7-0.2-13.2-1.6-19.7c-1-4.4-2.3-8.7-3.2-13.1c2.4-2,3.4-5.8,0.5-8.6c-1.5-1.4-3-2-4.8-2.2c-0.4-0.1-0.9-0.1-1.3-0.2c-14.3-0.1-28.4-2.3-42.7-2.9c-15-0.7-30.1-0.5-45.1-0.5c-30.2,0-60.5,0.6-90.7,1.7c-30.5,1.1-60.9,1.7-91.4,1.8c-24.6,0-50.1,3.1-74.2-2.9c-0.9-0.7-2.1-1.2-3.5-1.2h-2c-4.2,0-5.6,3.6-4.7,6.8c-1,1-1.6,2.4-1.5,4.3c2.7,27,4,54.1,4.6,81.2c0.3,13.4,0.4,26.7,0.4,40.1c0,13.3,1.7,26.5,3.2,39.7c1.5,12.9,2.2,25.7,1.5,38.7c-0.7,13.5-2.5,26.9-3.3,40.4c-1.6,27.4-0.5,55.1-0.4,82.5c-2.1,3.2-0.2,9,5,9.1c49.4,0,98.8,2.8,148.3,3c13.4,18.9,29.8,35.7,40.7,56.2c2.2,4.1,9.7,2.7,10.1-2c0.7-8.8,2.2-17.4,4.6-25.9c1.9-6.8,4.5-14.8,8.9-20.5c2.5-3.3,6-4.2,10-4.5c7.5-0.7,15.1-0.2,22.6-0.3c20.1-0.2,40.2-1.2,60.2-2.7c15.2-1.1,32.4,3.4,46.8-2.6c1.1-0.5,1.9-1.1,2.5-1.9c2.9-0.1,5.7-2.1,5.3-5.8c-0.6-5.8,0.5-11.5,1.2-17.2C461,377.6,461.1,371.5,461.1,365.2z M448.9,385c-0.6,4.4-1.1,8.8-1.1,13.2c-0.1,0-0.1,0-0.2,0.1c-7.1,3-15.2,2.4-22.8,2.1c-9.2-0.4-18-0.2-27.2,0.4c-21.3,1.5-42.6,2.3-63.9,2.3c-11.4,0-23.4-0.7-31.1,9.3c-4.8,6.2-7.4,14.3-9.9,21.6c-1.5,4.5-2.6,9.2-3.5,13.9c-9.7-14.4-21.4-27.4-31.6-41.5c0.1-3-1.9-6.4-5.8-6.4c-48.9,0-97.8-2.7-146.7-3v-2c0-0.1,0-0.2,0-0.4c-0.1-25.6-0.9-51.4,0.4-77c0.6-13,2.4-25.9,3.2-38.9c0.9-13.5,0.3-26.8-1.1-40.2c-1.4-12.6-3.1-25.1-3.4-37.7c-0.3-14-0.1-28-0.4-41.9c-0.5-27-1.9-54-4.5-80.9c23.3,5.4,47.8,2.7,71.5,2.6c30.5-0.1,61-0.5,91.5-1.6c30.2-1.1,60.5-1.8,90.7-1.8c15.1,0,30.1,0.3,45.2,0.4c13.4,0.1,26.7,2.2,40.1,2.8c0.7,4.5,1.9,9,3.1,13.4c1.8,6.7,2,13.4,1.9,20.3c-0.1,13.5-0.5,26.9-0.6,40.4c-0.1,27.6,4.3,55.1,5.6,82.7c1.4,28.8,1.6,57.6,1.6,86.4c0,14.2,0,28.3,0,42.5C450,372.5,449.7,378.7,448.9,385z"/><path d="M420.1,314.8c-4.1-17.8-15.7-37.7-33.5-44.6c-9.5-3.6-19.4-2.4-28.4,2c-5.7,2.8-10.7,6.6-15.7,10.4c-5.5,4.2-11.4,9.2-18.4,10.2c-13.9,1.9-27.2-9.6-37.5-17.4c-12.4-9.4-23.9-20.1-35.3-30.7c-7.1-6.6-16.5-13.5-20-22.8c-3.3-8.7,12.5-14.7,18-17.8c10.1-5.7,17.3-17.3,19-28.6c1.8-12.1-3.5-25-9.6-35.1c-7.4-12.3-18.8-22.3-31.4-29.1c-14-7.5-28.4-8.5-43.8-5.4c-2.9,0.6-4.5,2.9-4.8,5.2c-16.7,10.2-28.3,26.3-32.8,46c-5.8,25.4,4,49.6,18.2,70.4c7.1,10.4,15.2,20,22.7,30.1c8.8,11.8,17.8,23.4,27,34.8c18.4,22.8,38.3,44,61.6,61.9c21.5,16.6,46.2,29.4,74.1,27.8c19-1.1,40.2-4.1,56-15.5C422.2,354.3,424.5,333.7,420.1,314.8z M407.9,347.1c-3.9,8.1-12.1,13.2-20.2,16.4c-9.1,3.6-18.8,5.3-28.5,6.4c-12.6,1.4-24.5,1.4-36.8-2.1c-13-3.7-24.9-11.2-35.8-19.1c-11.6-8.4-22.5-17.9-32.7-27.9c-21.1-20.8-39.6-44.5-57-68.4c-14.8-20.2-32.7-38.9-39.6-63.6c-6.3-22.7,1.7-48.6,19.9-63.5c4.4-3.6,9.4-6.5,14.6-8.7c0.8-0.3,1.4-0.8,1.9-1.3c3.7-0.4,7.4-0.6,11.2,0c6.2,0.8,12,3.1,17.5,5.9c11.1,5.7,20.4,14.8,27.1,25.3c6.5,10.3,10.8,23.6,5.4,35.2c-2.3,4.9-6.2,9.8-10.9,12.6c-4.5,2.7-9.2,5-13.6,8c-8.7,6-13.3,15.2-8.8,25.4c4.4,9.7,13.3,16.8,20.9,24c10.9,10.3,22,20.4,33.7,29.8c10.8,8.6,22.6,17.8,36.1,21.5c6.3,1.7,12.8,1.2,19-0.4c6.2-1.6,12.3-7,17.3-10.8c8.5-6.5,18-14.2,29.4-12.5c18.1,2.6,28.8,25.2,32,41.1C411.8,329.2,411.8,338.9,407.9,347.1z"/></svg>
