<svg xmlns="http://www.w3.org/2000/svg"  viewBox="0 0 100 100" width="100px" height="100px"><path fill="#78a0cf" d="M13 27A2 2 0 1 0 13 31A2 2 0 1 0 13 27Z"/><path fill="#f1bc19" d="M77 12A1 1 0 1 0 77 14A1 1 0 1 0 77 12Z"/><path fill="#cee1f4" d="M50 13A37 37 0 1 0 50 87A37 37 0 1 0 50 13Z"/><path fill="#f1bc19" d="M83 11A4 4 0 1 0 83 19A4 4 0 1 0 83 11Z"/><path fill="#78a0cf" d="M87 22A2 2 0 1 0 87 26A2 2 0 1 0 87 22Z"/><path fill="#fbcd59" d="M81 74A2 2 0 1 0 81 78 2 2 0 1 0 81 74zM15 59A4 4 0 1 0 15 67 4 4 0 1 0 15 59z"/><path fill="#78a0cf" d="M25 85A2 2 0 1 0 25 89A2 2 0 1 0 25 85Z"/><path fill="#fff" d="M18.5 51A2.5 2.5 0 1 0 18.5 56A2.5 2.5 0 1 0 18.5 51Z"/><path fill="#f1bc19" d="M21 66A1 1 0 1 0 21 68A1 1 0 1 0 21 66Z"/><path fill="#fff" d="M80 33A1 1 0 1 0 80 35A1 1 0 1 0 80 33Z"/><path fill="#ee3e54" d="M35,72.3c-4,0-7.3-3.3-7.3-7.3V35c0-4,3.3-7.3,7.3-7.3h30c4,0,7.3,3.3,7.3,7.3v30c0,4-3.3,7.3-7.3,7.3H35z"/><path fill="#472b29" d="M65,28.4c3.6,0,6.6,3,6.6,6.6v30c0,3.6-3,6.6-6.6,6.6H35c-3.6,0-6.6-3-6.6-6.6V35c0-3.6,3-6.6,6.6-6.6H65 M65,27H35c-4.4,0-8,3.6-8,8v30c0,4.4,3.6,8,8,8h30c4.4,0,8-3.6,8-8V35C73,30.6,69.4,27,65,27L65,27z"/><path fill="#fdfcee" d="M68.5,47.9v1.8V64c0,2.5-2,4.5-4.5,4.5H36c-2.5,0-4.5-2-4.5-4.5V36c0-2.5,2-4.5,4.5-4.5h25.4H64 c2.5,0,4.5,2,4.5,4.5v3.4v2v1v1.1v2.9V47.9"/><path fill="#472b29" d="M68.5 47.4c-.3 0-.5-.2-.5-.5V43c0-.3.2-.5.5-.5S69 42.7 69 43v3.9C69 47.2 68.8 47.4 68.5 47.4zM68.5 40.5c-.3 0-.5-.2-.5-.5v-2c0-.3.2-.5.5-.5S69 37.7 69 38v2C69 40.3 68.8 40.5 68.5 40.5z"/><path fill="#472b29" d="M64,69H36c-2.8,0-5-2.2-5-5V36c0-2.8,2.2-5,5-5h25.4c0.3,0,0.5,0.2,0.5,0.5S61.7,32,61.4,32H36 c-2.2,0-4,1.8-4,4v28c0,2.2,1.8,4,4,4h28c2.2,0,4-1.8,4-4V49.6c0-0.3,0.2-0.5,0.5-0.5s0.5,0.2,0.5,0.5V64C69,66.8,66.8,69,64,69z"/><path fill="#f2f0e7" d="M57.3,60.5H43.2c-1.7,0-3.2-1.4-3.2-3.2V43.7c0-1.7,1.4-3.2,3.2-3.2h14.2c1.7,0,3.2,1.4,3.2,3.2v13.7 C60.5,59.1,59.1,60.5,57.3,60.5z"/><path fill="#f76976" d="M57.3,40.6H43.2c-1.7,0-3.2,1.4-3.2,3.2v2.7h20.5v-2.7C60.5,42.1,59.1,40.6,57.3,40.6z"/><path fill="#472b29" d="M57.3,61H42.7c-2.1,0-3.7-1.6-3.7-3.7V43.7c0-2,1.7-3.7,3.7-3.7h14.5c2.1,0,3.7,1.6,3.7,3.7v13.7 C61,59.4,59.3,61,57.3,61z M42.7,41c-1.5,0-2.7,1.2-2.7,2.7v13.7c0,1.5,1.2,2.7,2.7,2.7h14.5c1.5,0,2.7-1.2,2.7-2.7V43.7 c0-1.5-1.2-2.7-2.7-2.7H42.7z"/><path fill="#cdcbbd" d="M44.2,51.6c0-1.5,1.4-2.1,2.7-2.1c1.4,0,2.9,0.6,2.9,2.3c0,1.8-1.3,2.1-2.8,2.1c-0.6,0-1.5,0.2-1.5,0.9v0.6 h4.4v1.2h-5.7c0-0.6,0-1.2,0-1.9c0-1.6,1.5-2.1,2.9-2.1c0.5,0,1.5-0.1,1.5-0.9c0-0.8-0.7-1.1-1.6-1.1c-0.7,0-1.4,0.4-1.4,1 L44.2,51.6z"/><path fill="#472b29" d="M49.9,56.9h-5.7c-0.1,0-0.3-0.1-0.3-0.3v-1.9c0-1.5,1.2-2.4,3.1-2.4c0.8,0,1.3-0.2,1.3-0.7 c0-0.8-0.9-0.9-1.4-0.9c-0.6,0-1.2,0.3-1.2,0.7c0,0.1-0.1,0.2-0.3,0.2l0,0l-1.3,0c-0.1,0-0.1,0-0.2-0.1c0,0-0.1-0.1-0.1-0.2 c0-1.6,1.5-2.4,3-2.4c1.5,0,3.2,0.7,3.2,2.5c0,2.1-1.8,2.4-3.1,2.4c-0.3,0-1.3,0-1.3,0.7v0.4h4.1c0.1,0,0.3,0.1,0.3,0.3v1.2 C50.1,56.8,50,56.9,49.9,56.9z M44.4,56.4h5.2v-0.7h-4.1c-0.1,0-0.3-0.1-0.3-0.3v-0.6c0-0.7,0.7-1.2,1.8-1.2c1.8,0,2.6-0.6,2.6-1.9 c0-1.9-2.1-2-2.7-2c-1.1,0-2.3,0.5-2.5,1.6l0.8,0c0.2-0.6,0.9-1,1.6-1c1.1,0,1.9,0.5,1.9,1.4c0,0.4-0.2,1.2-1.8,1.2 c-1,0-2.6,0.2-2.6,1.9V56.4z"/><path fill="#cdcbbd" d="M55.9,50.9h-3.8v1.2h1.4c1.5,0,2.8,0.6,2.8,2.3c0,1.6-1.3,2.4-2.8,2.4c-1.5,0-2.9-0.6-2.9-2.2H52 c0,0.8,0.9,1,1.5,1c0.6,0,1.5-0.3,1.5-1.1c0-0.8-0.8-1-1.5-1h-2.7c0-1.3,0-2.5,0-3.7h5.1L55.9,50.9L55.9,50.9L55.9,50.9z"/><path fill="#472b29" d="M53.6 57c-2 0-3.1-.9-3.1-2.5 0-.1 0-.1.1-.2 0 0 .1-.1.2-.1H52c.1 0 .3.1.3.3 0 .7 1 .7 1.3.7.4 0 1.2-.2 1.2-.9 0-.2-.1-.3-.2-.5-.2-.2-.6-.3-1.1-.3h-2.7c-.1 0-.3-.1-.3-.3v-3.7c0-.1.1-.3.3-.3h5.1c.1 0 .3.1.3.3v1.2c0 .1 0 .1-.1.2l0 0c-.1.1-.1.1-.2.1h-3.5v.7h1.1c.7 0 1.8.1 2.4.8.4.4.6 1 .6 1.7C56.6 56.2 55.1 57 53.6 57zM50.9 54.8c.1 1.4 1.5 1.7 2.6 1.7 1.2 0 2.5-.7 2.5-2.1 0-.6-.2-1-.5-1.3-.4-.4-1.2-.7-2.1-.7h-1.4c-.1 0-.3-.1-.3-.3v-1.2c0-.1.1-.3.3-.3h3.6v-.8h-4.6v3.2h2.4c.4 0 1.1.1 1.4.5.2.2.3.5.3.8 0 1-.9 1.4-1.7 1.4-1 0-1.6-.4-1.8-1H50.9zM50.5 47h-11c-.3 0-.5-.2-.5-.5s.2-.5.5-.5h11c.3 0 .5.2.5.5S50.8 47 50.5 47zM60.5 47h-1.8c-.3 0-.5-.2-.5-.5s.2-.5.5-.5h1.8c.3 0 .5.2.5.5S60.8 47 60.5 47z"/><g><path fill="#472b29" d="M56.5,47h-4c-0.3,0-0.5-0.2-0.5-0.5s0.2-0.5,0.5-0.5h4c0.3,0,0.5,0.2,0.5,0.5S56.8,47,56.5,47z"/></g><g><path fill="#472b29" d="M45.5,43c-0.3,0-0.5-0.2-0.5-0.5v-4c0-0.3,0.2-0.5,0.5-0.5s0.5,0.2,0.5,0.5v4C46,42.8,45.8,43,45.5,43z"/></g><g><path fill="#472b29" d="M54.5,43c-0.3,0-0.5-0.2-0.5-0.5v-4c0-0.3,0.2-0.5,0.5-0.5s0.5,0.2,0.5,0.5v4C55,42.8,54.8,43,54.5,43z"/></g></svg>