<svg xmlns="http://www.w3.org/2000/svg"  viewBox="0 0 100 100" width="100px" height="100px"><circle cx="77" cy="13" r="1" fill="#f1bc19"/><circle cx="50" cy="50" r="37" fill="#e6edb7"/><circle cx="83" cy="15" r="4" fill="#f1bc19"/><circle cx="87" cy="24" r="2" fill="#88ae45"/><circle cx="81" cy="76" r="2" fill="#fbcd59"/><circle cx="15" cy="63" r="4" fill="#fbcd59"/><circle cx="25" cy="87" r="2" fill="#88ae45"/><circle cx="18.5" cy="51.5" r="2.5" fill="#fff"/><circle cx="79.5" cy="33.5" r="1.5" fill="#fff"/><g><path fill="#a3a3cd" d="M31.128,71.3c-1.891,0-3.428-1.579-3.428-3.52V30.22c0-1.94,1.537-3.52,3.428-3.52h29.256 L71.3,37.858V67.78c0,1.94-1.537,3.52-3.428,3.52H31.128z"/><path fill="#472b29" d="M60.089,27.4L70.6,38.144V67.78c0,1.555-1.224,2.82-2.728,2.82H31.128 c-1.504,0-2.728-1.265-2.728-2.82V30.22c0-1.555,1.224-2.82,2.728-2.82H60.089 M60.678,26h-29.55C28.858,26,27,27.899,27,30.22 v37.56c0,2.321,1.858,4.22,4.128,4.22h36.744C70.142,72,72,70.101,72,67.78V37.573L60.678,26L60.678,26z"/><path fill="#fef6aa" d="M42.5,26.5v8.269c0,0.952,0.779,1.731,1.731,1.731h13.538c0.952,0,1.731-0.779,1.731-1.731V26.5 H42.5z"/><path fill="#472b29" d="M57.77,37H44.231C43.001,37,42,35.999,42,34.769V26h18v8.77C60,35.999,58.999,37,57.77,37z M43,27 v7.769C43,35.447,43.553,36,44.231,36H57.77c0.679,0,1.23-0.552,1.23-1.23V27H43z"/><path fill="#fefdef" d="M67.5,70.501V44.108c0-1.984-1.522-3.608-3.382-3.608H35.882c-1.86,0-3.382,1.623-3.382,3.608V71.5 h35V70.501z"/><path fill="#472b29" d="M68,72H32V44.107C32,41.843,33.741,40,35.882,40h28.236C66.259,40,68,41.843,68,44.107V72z M33,71 h34V44.107C67,42.394,65.707,41,64.118,41H35.882C34.293,41,33,42.394,33,44.107V71z"/><rect width="2" height="6" x="54.5" y="28.5" fill="#a3a3cd"/><path fill="#472b29" d="M57,35h-3v-7h3V35z M55,34h1v-5h-1V34z"/><path fill="#472b29" d="M54.5,46.75h-19c-0.138,0-0.25-0.112-0.25-0.25s0.112-0.25,0.25-0.25h19 c0.138,0,0.25,0.112,0.25,0.25S54.638,46.75,54.5,46.75z"/><path fill="#472b29" d="M64.5,46.75h-7c-0.138,0-0.25-0.112-0.25-0.25s0.112-0.25,0.25-0.25h7 c0.138,0,0.25,0.112,0.25,0.25S64.638,46.75,64.5,46.75z"/><path fill="#472b29" d="M40.5,51.75h-5c-0.138,0-0.25-0.112-0.25-0.25s0.112-0.25,0.25-0.25h5 c0.138,0,0.25,0.112,0.25,0.25S40.638,51.75,40.5,51.75z"/><path fill="#472b29" d="M64.5,51.75h-21c-0.138,0-0.25-0.112-0.25-0.25s0.112-0.25,0.25-0.25h21 c0.138,0,0.25,0.112,0.25,0.25S64.638,51.75,64.5,51.75z"/><g><path fill="#472b29" d="M49.5,56.75h-14c-0.138,0-0.25-0.112-0.25-0.25s0.112-0.25,0.25-0.25h14 c0.138,0,0.25,0.112,0.25,0.25S49.638,56.75,49.5,56.75z"/></g><g><path fill="#472b29" d="M64.5,56.75h-11c-0.138,0-0.25-0.112-0.25-0.25s0.112-0.25,0.25-0.25h11 c0.138,0,0.25,0.112,0.25,0.25S64.638,56.75,64.5,56.75z"/></g><g><path fill="#472b29" d="M40.5,61.75h-5c-0.138,0-0.25-0.112-0.25-0.25s0.112-0.25,0.25-0.25h5 c0.138,0,0.25,0.112,0.25,0.25S40.638,61.75,40.5,61.75z"/></g><g><path fill="#472b29" d="M64.5,61.75h-21c-0.138,0-0.25-0.112-0.25-0.25s0.112-0.25,0.25-0.25h21 c0.138,0,0.25,0.112,0.25,0.25S64.638,61.75,64.5,61.75z"/></g></g><g><circle cx="64.5" cy="61.5" r="15" fill="#fdfcef"/><path fill="#472b29" d="M64.5,47.4c7.775,0,14.1,6.325,14.1,14.1s-6.325,14.1-14.1,14.1s-14.1-6.325-14.1-14.1 S56.725,47.4,64.5,47.4 M64.5,46C55.94,46,49,52.94,49,61.5S55.94,77,64.5,77S80,70.06,80,61.5S73.06,46,64.5,46L64.5,46z"/><circle cx="64.499" cy="61.5" r="12.25" fill="#93bc39"/><path fill="#b7cc6b" d="M64.5,49.25c-6.755,0-12.25,5.495-12.25,12.25c0,0.153,0.017,0.301,0.023,0.453 C53.45,56.273,58.47,52,64.5,52c6.031,0,11.052,4.275,12.227,9.958c0.006-0.153,0.023-0.303,0.023-0.458 C76.75,54.745,71.254,49.25,64.5,49.25z"/><path fill="#472b29" d="M64.499,49.5c6.617,0,12.001,5.383,12.001,12s-5.383,12-12.001,12c-6.616,0-11.999-5.383-11.999-12 S57.883,49.5,64.499,49.5 M64.499,49C57.607,49,52,54.608,52,61.5S57.607,74,64.499,74C71.393,74,77,68.392,77,61.5 S71.393,49,64.499,49L64.499,49z"/><path fill="#fdfcee" d="M59.5,61.376c-0.288,0-0.576,0.11-0.795,0.329c-0.212,0.212-0.33,0.495-0.33,0.795 s0.117,0.583,0.33,0.795l4,4c0.209,0.209,0.499,0.33,0.795,0.33l0.045-0.001c0.31-0.012,0.605-0.155,0.808-0.392l7.003-8.002 c0.401-0.468,0.347-1.18-0.124-1.583c-0.229-0.196-0.519-0.287-0.819-0.269c-0.299,0.023-0.572,0.162-0.768,0.39l-6.213,7.073 l-3.137-3.137C60.076,61.486,59.788,61.376,59.5,61.376z"/><path fill="#472b29" d="M70.5,57.75L70.5,57.75c0.126,0,0.313,0.032,0.488,0.182c0.152,0.13,0.244,0.312,0.259,0.511 c0.015,0.2-0.048,0.394-0.174,0.54l-7.006,8.005c-0.135,0.158-0.332,0.253-0.569,0.261c-0.198,0-0.391-0.08-0.53-0.22l-4-4 c-0.142-0.141-0.22-0.33-0.22-0.53s0.078-0.389,0.22-0.53c0.142-0.142,0.33-0.22,0.53-0.22s0.388,0.078,0.53,0.22l2.854,2.854 l0.566,0.566l0.528-0.601l5.953-6.776C70.074,57.846,70.281,57.75,70.5,57.75 M70.5,57c-0.423,0-0.842,0.178-1.139,0.525 l-5.946,6.769l-2.854-2.854c-0.293-0.293-0.677-0.439-1.061-0.439s-0.768,0.146-1.061,0.439c-0.586,0.585-0.586,1.536,0,2.121l4,4 C62.72,67.843,63.102,68,63.5,68c0.02,0,0.038,0,0.058-0.001c0.417-0.016,0.81-0.206,1.081-0.523l7-7.999 c0.539-0.629,0.467-1.576-0.162-2.115C71.193,57.119,70.846,57,70.5,57L70.5,57z"/></g></svg>