<svg xmlns="http://www.w3.org/2000/svg"  viewBox="0 0 100 100" width="150px" height="150px"><path fill="#c7ede6" d="M87.215,56.71C88.35,54.555,89,52.105,89,49.5c0-6.621-4.159-12.257-10.001-14.478 C78.999,35.015,79,35.008,79,35c0-11.598-9.402-21-21-21c-9.784,0-17.981,6.701-20.313,15.757C36.211,29.272,34.638,29,33,29 c-7.692,0-14.023,5.793-14.89,13.252C12.906,43.353,9,47.969,9,53.5C9,59.851,14.149,65,20.5,65c0.177,0,0.352-0.012,0.526-0.022 C21.022,65.153,21,65.324,21,65.5C21,76.822,30.178,86,41.5,86c6.437,0,12.175-2.972,15.934-7.614C59.612,80.611,62.64,82,66,82 c4.65,0,8.674-2.65,10.666-6.518C77.718,75.817,78.837,76,80,76c6.075,0,11-4.925,11-11C91,61.689,89.53,58.727,87.215,56.71z"/><path fill="#fdfcef" d="M73.5,47.5V48h-3v-0.5c0,0-4.242,0-5.5,0c-2.485,0-4.5-2.015-4.5-4.5 c0-2.333,1.782-4.229,4.055-4.455C64.533,38.364,64.5,38.187,64.5,38c0-2.485,2.015-4.5,4.5-4.5c1.438,0,2.703,0.686,3.527,1.736 C72.667,32.6,74.829,30.5,77.5,30.5c2.761,0,5,2.239,5,5c0,0.446-0.077,0.87-0.187,1.282c0.642-0.777,1.6-1.282,2.687-1.282 c1.781,0,3.234,1.335,3.455,3.055C88.636,38.533,88.813,38.5,89,38.5c2.485,0,4.5,2.015,4.5,4.5s-2.015,4.5-4.5,4.5s-9.5,0-9.5,0 H73.5z"/><path fill="#472b29" d="M77.5,30c3.033,0,5.5,2.467,5.5,5.5c0,0.016,0,0.031,0,0.047C83.602,35.192,84.29,35,85,35 c1.831,0,3.411,1.261,3.858,3.005C88.905,38.002,88.952,38,89,38c2.757,0,5,2.243,5,5s-2.243,5-5,5H73.5 c-0.276,0-0.5-0.224-0.5-0.5s0.224-0.5,0.5-0.5H89c2.206,0,4-1.794,4-4s-1.794-4-4-4c-0.117,0-0.23,0.017-0.343,0.032 l-0.141,0.019c-0.021,0.003-0.041,0.004-0.062,0.004c-0.246,0-0.462-0.185-0.495-0.437C87.768,37.125,86.496,36,85,36 c-0.885,0-1.723,0.401-2.301,1.1c-0.098,0.118-0.241,0.182-0.386,0.182c-0.078,0-0.156-0.018-0.228-0.056 c-0.209-0.107-0.314-0.346-0.254-0.573C81.946,36.218,82,35.852,82,35.5c0-2.481-2.019-4.5-4.5-4.5 c-2.381,0-4.347,1.872-4.474,4.263c-0.011,0.208-0.15,0.387-0.349,0.45c-0.05,0.016-0.101,0.024-0.152,0.024 c-0.15,0-0.296-0.069-0.392-0.192C71.362,34.563,70.221,34,69,34c-2.206,0-4,1.794-4,4c0,0.117,0.017,0.23,0.032,0.343 l0.019,0.141c0.016,0.134-0.022,0.268-0.106,0.373c-0.084,0.105-0.207,0.172-0.34,0.185C62.549,39.247,61,40.949,61,43 c0,2.206,1.794,4,4,4h5.5c0.276,0,0.5,0.224,0.5,0.5S70.776,48,70.5,48H65c-2.757,0-5-2.243-5-5c0-2.397,1.689-4.413,4.003-4.877 C64.001,38.082,64,38.041,64,38c0-2.757,2.243-5,5-5c1.176,0,2.293,0.416,3.183,1.164C72.781,31.76,74.945,30,77.5,30L77.5,30z"/><path fill="#472b29" d="M79 37c1.403 0 2.609.999 2.913 2.341C82.28 39.119 82.699 39 83.125 39c1.202 0 2.198.897 2.353 2.068C85.681 41.022 85.874 41 86.063 41c1.529 0 2.811 1.2 2.918 2.732C88.99 43.87 88.886 43.99 88.749 44c-.006 0-.012 0-.018 0-.13 0-.24-.101-.249-.232-.089-1.271-1.151-2.268-2.419-2.268-.229 0-.47.042-.738.127-.022.007-.045.01-.067.01-.055 0-.11-.02-.156-.054C85.038 41.537 85 41.455 85 41.375c0-1.034-.841-1.875-1.875-1.875-.447 0-.885.168-1.231.473-.047.041-.106.063-.165.063-.032 0-.063-.006-.093-.019-.088-.035-.148-.117-.155-.212C81.377 38.512 80.288 37.5 79 37.5c-.208 0-.425.034-.682.107-.023.007-.047.01-.07.01-.109 0-.207-.073-.239-.182-.038-.133.039-.271.172-.309C78.483 37.04 78.744 37 79 37L79 37zM65.117 38.5c1.326 0 2.508.897 2.874 2.182.038.133-.039.271-.172.309C67.795 40.997 67.772 41 67.75 41c-.109 0-.209-.072-.24-.182C67.205 39.748 66.221 39 65.117 39c-.117 0-.23.014-.342.029-.012.002-.023.003-.035.003-.121 0-.229-.092-.246-.217-.019-.137.077-.263.214-.281C64.842 38.516 64.978 38.5 65.117 38.5L65.117 38.5z"/><path fill="#fff" d="M26.5 41h-10c-.276 0-.5-.224-.5-.5s.224-.5.5-.5h10c.276 0 .5.224.5.5S26.777 41 26.5 41zM29.5 41h-1c-.276 0-.5-.224-.5-.5s.224-.5.5-.5h1c.276 0 .5.224.5.5S29.777 41 29.5 41zM34.491 43H25.5c-.276 0-.5-.224-.5-.5s.224-.5.5-.5h8.991c.276 0 .5.224.5.5S34.767 43 34.491 43zM23.5 43h-1c-.276 0-.5-.224-.5-.5s.224-.5.5-.5h1c.276 0 .5.224.5.5S23.777 43 23.5 43zM20.5 43h-2c-.276 0-.5-.224-.5-.5s.224-.5.5-.5h2c.276 0 .5.224.5.5S20.777 43 20.5 43zM26.5 45h-2c-.276 0-.5-.224-.5-.5s.224-.5.5-.5h2c.276 0 .5.224.5.5S26.776 45 26.5 45zM29.5 36c-.177 0-.823 0-1 0-.276 0-.5.224-.5.5 0 .276.224.5.5.5.177 0 .823 0 1 0 .276 0 .5-.224.5-.5C30 36.224 29.776 36 29.5 36zM29.5 38c-.177 0-4.823 0-5 0-.276 0-.5.224-.5.5 0 .276.224.5.5.5.177 0 4.823 0 5 0 .276 0 .5-.224.5-.5C30 38.224 29.776 38 29.5 38zM34.5 40c-.177 0-2.823 0-3 0-.276 0-.5.224-.5.5 0 .276.224.5.5.5.177 0 2.823 0 3 0 .276 0 .5-.224.5-.5C35 40.224 34.776 40 34.5 40z"/><g><path fill="#fff" d="M83.5 65h-10c-.276 0-.5-.224-.5-.5s.224-.5.5-.5h10c.276 0 .5.224.5.5S83.776 65 83.5 65zM87.5 65h-2c-.276 0-.5-.224-.5-.5s.224-.5.5-.5h2c.276 0 .5.224.5.5S87.776 65 87.5 65zM92.5 67h-10c-.276 0-.5-.224-.5-.5s.224-.5.5-.5h10c.276 0 .5.224.5.5S92.777 67 92.5 67zM80.5 67h-1c-.276 0-.5-.224-.5-.5s.224-.5.5-.5h1c.276 0 .5.224.5.5S80.776 67 80.5 67zM77.47 67H75.5c-.276 0-.5-.224-.5-.5s.224-.5.5-.5h1.97c.276 0 .5.224.5.5S77.746 67 77.47 67zM86.5 63h-5c-.276 0-.5-.224-.5-.5s.224-.5.5-.5h5c.276 0 .5.224.5.5S86.777 63 86.5 63zM83.5 69h-2c-.276 0-.5-.224-.5-.5s.224-.5.5-.5h2c.276 0 .5.224.5.5S83.776 69 83.5 69z"/></g><g><path fill="#fdfcef" d="M30.5,69.5c0,0,1.567,0,3.5,0s3.5-1.567,3.5-3.5c0-1.781-1.335-3.234-3.055-3.455 C34.473,62.366,34.5,62.187,34.5,62c0-1.933-1.567-3.5-3.5-3.5c-1.032,0-1.95,0.455-2.59,1.165 c-0.384-1.808-1.987-3.165-3.91-3.165c-2.209,0-4,1.791-4,4c0,0.191,0.03,0.374,0.056,0.558C20.128,60.714,19.592,60.5,19,60.5 c-1.228,0-2.245,0.887-2.455,2.055C16.366,62.527,16.187,62.5,16,62.5c-1.933,0-3.5,1.567-3.5,3.5s1.567,3.5,3.5,3.5s7.5,0,7.5,0 V70h7V69.5z"/><path fill="#472b29" d="M32.25 65C32.112 65 32 64.888 32 64.75c0-1.223.995-2.218 2.218-2.218.034.009.737-.001 1.244.136.133.036.212.173.176.306-.036.134-.173.213-.306.176-.444-.12-1.1-.12-1.113-.118-.948 0-1.719.771-1.719 1.718C32.5 64.888 32.388 65 32.25 65zM25.5 69A.5.5 0 1 0 25.5 70 .5.5 0 1 0 25.5 69z"/><path fill="#472b29" d="M34,70h-3.5c-0.276,0-0.5-0.224-0.5-0.5s0.224-0.5,0.5-0.5H34c1.654,0,3-1.346,3-3 c0-1.496-1.125-2.768-2.618-2.959c-0.134-0.018-0.255-0.088-0.336-0.196s-0.115-0.244-0.094-0.377C33.975,62.314,34,62.16,34,62 c0-1.654-1.346-3-3-3c-0.85,0-1.638,0.355-2.219,1c-0.125,0.139-0.321,0.198-0.5,0.148c-0.182-0.049-0.321-0.195-0.36-0.379 C27.58,58.165,26.141,57,24.5,57c-1.93,0-3.5,1.57-3.5,3.5c0,0.143,0.021,0.28,0.041,0.418c0.029,0.203-0.063,0.438-0.242,0.54 c-0.179,0.102-0.396,0.118-0.556-0.01C19.878,61.155,19.449,61,19,61c-0.966,0-1.792,0.691-1.963,1.644 c-0.048,0.267-0.296,0.446-0.569,0.405C16.314,63.025,16.16,63,16,63c-1.654,0-3,1.346-3,3s1.346,3,3,3h7.5 c0.276,0,0.5,0.224,0.5,0.5S23.776,70,23.5,70H16c-2.206,0-4-1.794-4-4s1.794-4,4-4c0.059,0,0.116,0.002,0.174,0.006 C16.588,60.82,17.711,60,19,60c0.349,0,0.689,0.061,1.011,0.18C20.176,57.847,22.126,56,24.5,56c1.831,0,3.466,1.127,4.153,2.774 C29.333,58.276,30.155,58,31,58c2.206,0,4,1.794,4,4c0,0.048-0.001,0.095-0.004,0.142C36.739,62.59,38,64.169,38,66 C38,68.206,36.206,70,34,70z"/><path fill="#472b29" d="M28.5,69c-0.159,0-0.841,0-1,0c-0.276,0-0.5,0.224-0.5,0.5c0,0.276,0.224,0.5,0.5,0.5 c0.159,0,0.841,0,1,0c0.276,0,0.5-0.224,0.5-0.5C29,69.224,28.776,69,28.5,69z"/></g><g><path fill="#48bed8" d="M50 24.701A7.481 7.481 0 1 0 50 39.663000000000004A7.481 7.481 0 1 0 50 24.701Z"/><path fill="#472b29" d="M50,25.4c3.74,0,6.782,3.042,6.782,6.782S53.74,38.964,50,38.964s-6.782-3.042-6.782-6.782 S46.26,25.4,50,25.4 M50,24c-4.519,0-8.182,3.663-8.182,8.182s3.663,8.182,8.182,8.182s8.182-3.663,8.182-8.182S54.519,24,50,24 L50,24z"/></g><g><path fill="#472b29" d="M49.872 37.156c-2.813 0-5.103-2.289-5.103-5.103s2.289-5.102 5.103-5.102c.276 0 .5.224.5.5s-.224.5-.5.5c-2.262 0-4.103 1.84-4.103 4.102s1.841 4.103 4.103 4.103c.276 0 .5.224.5.5S50.148 37.156 49.872 37.156zM53.879 34.82c-.084 0-.169-.021-.246-.065-.24-.136-.325-.44-.188-.681.347-.613.53-1.312.53-2.021 0-.276.224-.5.5-.5s.5.224.5.5c0 .881-.229 1.75-.661 2.513C54.222 34.729 54.053 34.82 53.879 34.82zM53.996 30.508c-.184 0-.36-.102-.447-.277-.374-.751-.96-1.362-1.694-1.769-.241-.134-.329-.438-.195-.68.133-.242.438-.327.68-.195.912.505 1.641 1.265 2.104 2.198.123.247.022.547-.225.67C54.147 30.491 54.071 30.508 53.996 30.508z"/></g><g><path fill="#48bed8" d="M50 43.519A7.481 7.481 0 1 0 50 58.481A7.481 7.481 0 1 0 50 43.519Z"/><path fill="#472b29" d="M50,44.218c3.74,0,6.782,3.042,6.782,6.782S53.74,57.782,50,57.782S43.218,54.74,43.218,51 S46.26,44.218,50,44.218 M50,42.818c-4.519,0-8.182,3.663-8.182,8.182s3.663,8.182,8.182,8.182s8.182-3.663,8.182-8.182 S54.519,42.818,50,42.818L50,42.818z"/></g><g><path fill="#472b29" d="M49.872 55.975c-2.813 0-5.103-2.289-5.103-5.103s2.289-5.103 5.103-5.103c.276 0 .5.224.5.5s-.224.5-.5.5c-2.262 0-4.103 1.841-4.103 4.103s1.841 4.103 4.103 4.103 4.103-1.841 4.103-4.103c0-.276.224-.5.5-.5s.5.224.5.5C54.975 53.686 52.686 55.975 49.872 55.975zM53.996 49.326c-.184 0-.36-.102-.447-.277-.374-.751-.96-1.363-1.694-1.77-.241-.134-.329-.438-.195-.68.133-.242.438-.327.68-.195.913.505 1.641 1.266 2.104 2.199.123.247.022.548-.225.67C54.147 49.31 54.071 49.326 53.996 49.326z"/></g><g><path fill="#48bed8" d="M50 62.336999999999996A7.481 7.481 0 1 0 50 77.29899999999999A7.481 7.481 0 1 0 50 62.336999999999996Z"/><path fill="#472b29" d="M50,63.036c3.74,0,6.782,3.042,6.782,6.782S53.74,76.6,50,76.6s-6.782-3.042-6.782-6.782 S46.26,63.036,50,63.036 M50,61.636c-4.519,0-8.182,3.663-8.182,8.182S45.481,78,50,78s8.182-3.663,8.182-8.182 S54.519,61.636,50,61.636L50,61.636z"/></g><g><path fill="#472b29" d="M47.188 73.929c-.102 0-.203-.03-.292-.094-1.331-.958-2.126-2.507-2.126-4.145 0-2.813 2.289-5.103 5.103-5.103.276 0 .5.224.5.5s-.224.5-.5.5c-2.262 0-4.103 1.841-4.103 4.103 0 1.316.64 2.563 1.71 3.332.224.161.275.474.114.698C47.496 73.856 47.343 73.929 47.188 73.929zM53.996 68.145c-.184 0-.36-.102-.447-.277-.374-.751-.96-1.363-1.694-1.77-.241-.134-.329-.438-.195-.68.133-.242.438-.327.68-.195.913.505 1.641 1.266 2.104 2.199.123.247.022.548-.225.67C54.147 68.128 54.071 68.145 53.996 68.145z"/></g></svg>