<svg xmlns="http://www.w3.org/2000/svg"  viewBox="0 0 100 100" width="100px" height="100px"><path fill="#ee3e54" d="M13 27A2 2 0 1 0 13 31A2 2 0 1 0 13 27Z"/><path fill="#f1bc19" d="M77 12A1 1 0 1 0 77 14A1 1 0 1 0 77 12Z"/><path fill="#fce0a2" d="M50 13A37 37 0 1 0 50 87A37 37 0 1 0 50 13Z"/><path fill="#f1bc19" d="M83 11A4 4 0 1 0 83 19A4 4 0 1 0 83 11Z"/><path fill="#ee3e54" d="M87 22A2 2 0 1 0 87 26A2 2 0 1 0 87 22Z"/><path fill="#fbcd59" d="M81 74A2 2 0 1 0 81 78 2 2 0 1 0 81 74zM15 59A4 4 0 1 0 15 67 4 4 0 1 0 15 59z"/><path fill="#ee3e54" d="M25 85A2 2 0 1 0 25 89A2 2 0 1 0 25 85Z"/><path fill="#fff" d="M18.5 51A2.5 2.5 0 1 0 18.5 56A2.5 2.5 0 1 0 18.5 51Z"/><path fill="#f1bc19" d="M21 66A1 1 0 1 0 21 68A1 1 0 1 0 21 66Z"/><path fill="#fff" d="M80 33A1 1 0 1 0 80 35A1 1 0 1 0 80 33Z"/><g><path fill="#52bfa1" d="M25.75,49.875c0-1.471,0.131-2.912,0.382-4.311C28.166,34.228,38.078,25.625,50,25.625 c13.393,0,24.25,10.857,24.25,24.25S63.393,74.125,50,74.125c-12.053,0-22.051-8.793-23.932-20.313 C25.859,52.53,25.75,51.215,25.75,49.875"/></g><g><path fill="#472b29" d="M50,74.825c-12.291,0-22.646-8.79-24.623-20.901c-0.062-0.381,0.197-0.741,0.578-0.803 c0.382-0.065,0.741,0.196,0.804,0.577C28.625,65.129,38.399,73.425,50,73.425c12.985,0,23.55-10.564,23.55-23.55 S62.985,26.325,50,26.325c-11.418,0-21.166,8.143-23.179,19.362c-0.068,0.38-0.435,0.63-0.813,0.565 c-0.38-0.068-0.634-0.433-0.565-0.813C27.576,33.553,37.903,24.925,50,24.925c13.758,0,24.95,11.192,24.95,24.95 S63.758,74.825,50,74.825z"/></g><g><path fill="#472b29" d="M69.424,44.625c-0.214,0-0.412-0.138-0.478-0.353c-0.089-0.288-0.184-0.572-0.284-0.854 c-0.39-1.089-0.885-2.155-1.47-3.169c-0.139-0.239-0.057-0.545,0.183-0.683c0.239-0.139,0.543-0.058,0.683,0.183 c0.616,1.065,1.136,2.187,1.546,3.331c0.106,0.297,0.205,0.595,0.298,0.896c0.082,0.265-0.066,0.544-0.33,0.625 C69.522,44.618,69.473,44.625,69.424,44.625z"/></g><g><path fill="#472b29" d="M30.104,46.044c-0.036,0-0.072-0.004-0.108-0.012c-0.27-0.06-0.44-0.326-0.38-0.597 C31.705,35.984,40.278,29.125,50,29.125c5.975,0,11.674,2.56,15.636,7.023c0.3,0.337,0.588,0.685,0.865,1.041 c0.17,0.218,0.131,0.531-0.088,0.701c-0.217,0.168-0.532,0.13-0.701-0.088c-0.264-0.339-0.538-0.669-0.823-0.99 c-3.773-4.25-9.199-6.688-14.889-6.688c-9.256,0-17.419,6.53-19.409,15.527C30.54,45.885,30.333,46.044,30.104,46.044z"/></g><g><path fill="#472b29" d="M50,70.75c-10.177,0-18.826-7.244-20.566-17.225c-0.047-0.272,0.135-0.531,0.407-0.578 c0.275-0.054,0.531,0.134,0.579,0.406C32.075,62.854,40.31,69.75,50,69.75c10.959,0,19.875-8.888,19.875-19.813 c0-0.992-0.074-1.992-0.222-2.973c-0.041-0.273,0.146-0.527,0.42-0.568c0.271-0.038,0.527,0.146,0.568,0.42 c0.155,1.029,0.233,2.079,0.233,3.121C70.875,61.413,61.511,70.75,50,70.75z"/></g><g><path fill="#fffef4" d="M49.328,48.79l-4.243-4.243c-0.391-0.39-1.024-0.39-1.414,0c-0.391,0.391-0.391,1.024,0,1.415 l2.538,2.538H24.5c-0.552,0-1,0.448-1,1s0.448,1,1,1h21.709l-2.537,2.538c-0.391,0.391-0.391,1.024,0,1.415s1.024,0.391,1.414,0 l4.243-4.243c0.196-0.196,0.293-0.453,0.292-0.709C49.622,49.243,49.524,48.986,49.328,48.79z"/><path fill="#472b29" d="M44.378,54.994c-0.32,0-0.64-0.121-0.884-0.365c-0.487-0.487-0.487-1.281,0-1.769l2.111-2.11H24.5 c-0.689,0-1.25-0.561-1.25-1.25s0.561-1.25,1.25-1.25h21.106l-2.111-2.111c-0.487-0.487-0.487-1.28,0-1.768 c0.486-0.489,1.279-0.489,1.768,0l4.243,4.242c0.236,0.237,0.366,0.552,0.366,0.887c0,0.335-0.129,0.65-0.366,0.886l-4.243,4.243 C45.019,54.873,44.699,54.994,44.378,54.994z M24.5,48.75c-0.414,0-0.75,0.337-0.75,0.75s0.336,0.75,0.75,0.75h22.313l-2.964,2.964 c-0.292,0.293-0.292,0.769,0,1.062c0.283,0.283,0.778,0.283,1.061,0l4.243-4.243c0.142-0.142,0.22-0.33,0.219-0.532 c0-0.202-0.078-0.392-0.219-0.533l-4.243-4.242c-0.283-0.282-0.778-0.282-1.061,0c-0.292,0.292-0.292,0.769,0,1.061l2.965,2.965 H24.5z"/></g></svg>