<svg xmlns="http://www.w3.org/2000/svg"  viewBox="0 0 100 100" width="100px" height="100px"><path fill="#f1bc19" d="M77 12A1 1 0 1 0 77 14A1 1 0 1 0 77 12Z"/><path fill="#e4e4f9" d="M50 13A37 37 0 1 0 50 87A37 37 0 1 0 50 13Z"/><path fill="#f1bc19" d="M83 11A4 4 0 1 0 83 19A4 4 0 1 0 83 11Z"/><path fill="#8889b9" d="M87 22A2 2 0 1 0 87 26A2 2 0 1 0 87 22Z"/><path fill="#fbcd59" d="M81 74A2 2 0 1 0 81 78 2 2 0 1 0 81 74zM15 59A4 4 0 1 0 15 67 4 4 0 1 0 15 59z"/><path fill="#8889b9" d="M25 85A2 2 0 1 0 25 89A2 2 0 1 0 25 85Z"/><path fill="#fff" d="M79.5 32A1.5 1.5 0 1 0 79.5 35A1.5 1.5 0 1 0 79.5 32Z"/><path fill="#fff6ae" d="M33.562,72.3c-3.232,0-5.862-2.63-5.862-5.862V36.563c0-3.232,2.63-5.862,5.862-5.862h32.875 c3.232,0,5.862,2.63,5.862,5.862v29.875c0,3.232-2.63,5.862-5.862,5.862H33.562z"/><path fill="#472b29" d="M66.437,31.4c2.847,0,5.163,2.316,5.163,5.163v29.875c0,2.847-2.316,5.163-5.163,5.163H33.562 c-2.847,0-5.162-2.316-5.162-5.163V36.563c0-2.847,2.316-5.163,5.162-5.163H66.437 M66.437,30H33.562 C29.953,30,27,32.953,27,36.563v29.875C27,70.047,29.953,73,33.562,73h32.875C70.047,73,73,70.047,73,66.438V36.563 C73,32.953,70.047,30,66.437,30L66.437,30z"/><path fill="#ef7d99" d="M71.625,41.25v-4.67c0-2.912-2.383-5.295-5.295-5.295H33.67c-2.912,0-5.295,2.383-5.295,5.295v4.67 H71.625z"/><path fill="#fceeee" d="M37.75,36.3c-0.854,0-1.55-0.695-1.55-1.55v-8.5c0-0.854,0.695-1.55,1.55-1.55 s1.55,0.695,1.55,1.55v8.5C39.3,35.604,38.604,36.3,37.75,36.3z"/><path fill="#472b29" d="M37.75,25.4c0.461,0,0.85,0.389,0.85,0.85v8.5c0,0.461-0.389,0.85-0.85,0.85s-0.85-0.389-0.85-0.85 v-8.5C36.9,25.789,37.289,25.4,37.75,25.4 M37.75,24c-1.237,0-2.25,1.012-2.25,2.25v8.5c0,1.238,1.013,2.25,2.25,2.25 S40,35.988,40,34.75v-8.5C40,25.012,38.987,24,37.75,24L37.75,24z"/><path fill="#fffef4" d="M68.5,44.625V64c0,2.475-2.025,4.5-4.5,4.5H36c-2.475,0-4.5-2.025-4.5-4.5V45"/><g><path fill="#fceeee" d="M62.75,36.3c-0.854,0-1.55-0.695-1.55-1.55v-8.5c0-0.854,0.695-1.55,1.55-1.55 s1.55,0.695,1.55,1.55v8.5C64.3,35.604,63.604,36.3,62.75,36.3z"/><path fill="#472b29" d="M62.75,25.4c0.461,0,0.85,0.389,0.85,0.85v8.5c0,0.461-0.389,0.85-0.85,0.85s-0.85-0.389-0.85-0.85 v-8.5C61.9,25.789,62.289,25.4,62.75,25.4 M62.75,24c-1.237,0-2.25,1.012-2.25,2.25v8.5c0,1.238,1.013,2.25,2.25,2.25 S65,35.988,65,34.75v-8.5C65,25.012,63.987,24,62.75,24L62.75,24z"/></g><g><path fill="#67ba8c" d="M48.438,63.191c-0.475,0-0.929-0.176-1.278-0.495l-8.413-8.411 c-0.758-0.688-0.814-1.892-0.11-2.666c0.36-0.396,0.873-0.622,1.406-0.622c0.474,0,0.927,0.176,1.277,0.494l7.101,7.184 l11.995-12.046c0.365-0.346,0.829-0.53,1.315-0.53c0.521,0,1.023,0.218,1.381,0.597c0.348,0.368,0.532,0.851,0.518,1.357 s-0.226,0.978-0.595,1.326L49.752,62.663C49.389,63.007,48.926,63.191,48.438,63.191z"/><path fill="#472b29" d="M61.731,46.599c0.371,0,0.742,0.147,1.017,0.439c0.531,0.562,0.506,1.447-0.057,1.978 L49.398,62.309c-0.269,0.255-0.614,0.383-0.96,0.383c-0.337,0-0.674-0.121-0.942-0.365l-8.396-8.396 c-0.572-0.519-0.614-1.405-0.094-1.976c0.276-0.303,0.656-0.458,1.036-0.458c0.336,0,0.672,0.12,0.94,0.364l7.436,7.523 L60.77,46.981C61.041,46.726,61.386,46.599,61.731,46.599 M61.731,45.599L61.731,45.599c-0.615,0-1.2,0.233-1.647,0.656 l-11.661,11.71l-6.727-6.806l-0.019-0.019l-0.02-0.018c-0.442-0.402-1.015-0.624-1.613-0.624c-0.674,0-1.321,0.286-1.775,0.784 c-0.432,0.475-0.653,1.088-0.622,1.729c0.03,0.641,0.308,1.231,0.783,1.661l8.361,8.363c0.476,0.436,1.05,0.657,1.649,0.657 c0.616,0,1.201-0.233,1.648-0.657l13.313-13.312c0.446-0.42,0.713-1.015,0.731-1.656c0.018-0.641-0.214-1.25-0.655-1.716 C63.024,45.873,62.388,45.599,61.731,45.599L61.731,45.599z"/></g><g><path fill="#472b29" d="M68.5,47.375c-0.276,0-0.5-0.224-0.5-0.5V45c0-0.276,0.224-0.5,0.5-0.5S69,44.724,69,45v1.875 C69,47.151,68.776,47.375,68.5,47.375z"/></g><g><path fill="#472b29" d="M36,69c-2.757,0-5-2.243-5-5V45c0-0.276,0.224-0.5,0.5-0.5S32,44.724,32,45v19c0,2.206,1.794,4,4,4 c0.276,0,0.5,0.224,0.5,0.5S36.276,69,36,69z"/></g><g><path fill="#472b29" d="M42.917,69h-4.25c-0.276,0-0.5-0.224-0.5-0.5s0.224-0.5,0.5-0.5h4.25c0.276,0,0.5,0.224,0.5,0.5 S43.193,69,42.917,69z"/></g><g><path fill="#472b29" d="M64,69H45.833c-0.276,0-0.5-0.224-0.5-0.5s0.224-0.5,0.5-0.5H64c2.206,0,4-1.794,4-4V49.625 c0-0.276,0.224-0.5,0.5-0.5s0.5,0.224,0.5,0.5V64C69,66.757,66.757,69,64,69z"/></g><g><path fill="#472b29" d="M57.5,42h-30c-0.276,0-0.5-0.224-0.5-0.5s0.224-0.5,0.5-0.5h30c0.276,0,0.5,0.224,0.5,0.5 S57.776,42,57.5,42z"/></g><g><path fill="#472b29" d="M63.5,42h-3c-0.276,0-0.5-0.224-0.5-0.5s0.224-0.5,0.5-0.5h3c0.276,0,0.5,0.224,0.5,0.5 S63.776,42,63.5,42z"/></g><g><path fill="#472b29" d="M72.5,42h-6c-0.276,0-0.5-0.224-0.5-0.5s0.224-0.5,0.5-0.5h6c0.276,0,0.5,0.224,0.5,0.5 S72.776,42,72.5,42z"/></g></svg>