<svg xmlns="http://www.w3.org/2000/svg"  viewBox="0 0 100 100" width="100px" height="100px"><path fill="#ee3e54" d="M13,27c-1.105,0-2,0.895-2,2s0.895,2,2,2s2-0.895,2-2S14.105,27,13,27z"/><path fill="#f1bc19" d="M77,12c-0.552,0-1,0.448-1,1s0.448,1,1,1s1-0.448,1-1S77.552,12,77,12z"/><path fill="#fce0a2" d="M50,13c-20.435,0-37,16.565-37,37s16.565,37,37,37s37-16.565,37-37S70.435,13,50,13z"/><path fill="#f1bc19" d="M83,11c-2.209,0-4,1.791-4,4s1.791,4,4,4s4-1.791,4-4S85.209,11,83,11z"/><path fill="#ee3e54" d="M87,22c-1.105,0-2,0.895-2,2s0.895,2,2,2s2-0.895,2-2S88.105,22,87,22z"/><path fill="#fbcd59" d="M81,74c-1.105,0-2,0.895-2,2s0.895,2,2,2s2-0.895,2-2S82.105,74,81,74z M15,59c-2.209,0-4,1.791-4,4 c0,2.209,1.791,4,4,4s4-1.791,4-4C19,60.791,17.209,59,15,59z"/><path fill="#ee3e54" d="M25,85c-1.105,0-2,0.895-2,2s0.895,2,2,2s2-0.895,2-2S26.105,85,25,85z"/><path fill="#fff" d="M18.5,51c-1.381,0-2.5,1.119-2.5,2.5s1.119,2.5,2.5,2.5s2.5-1.119,2.5-2.5S19.881,51,18.5,51z"/><path fill="#f1bc19" d="M21,66c-0.552,0-1,0.448-1,1s0.448,1,1,1s1-0.448,1-1S21.552,66,21,66z"/><path fill="#fff" d="M80,33c-0.552,0-1,0.448-1,1s0.448,1,1,1s1-0.448,1-1S80.552,33,80,33z"/><path fill="#e1e0d8" d="M31.7,36.3V31c0-1.82,1.48-3.3,3.3-3.3h30c1.82,0,3.3,1.48,3.3,3.3v5.3H31.7z"/><path fill="#472b29" d="M65,28.4c1.434,0,2.6,1.166,2.6,2.6v4.6H32.4V31c0-1.434,1.166-2.6,2.6-2.6H65 M65,27H35 c-2.209,0-4,1.791-4,4v6h38v-6C69,28.791,67.209,27,65,27L65,27z"/><path fill="#a2b3cb" d="M71.327,67.291L69.093,53.5l-19.693-1l-18.493,1l-2.233,13.792c-0.176,1.074,0.123,2.16,0.819,2.979 c0.663,0.781,1.621,1.229,2.627,1.229H67.88c1.006,0,1.964-0.447,2.627-1.229C71.204,69.452,71.502,68.366,71.327,67.291z"/><path fill="#78a0cf" d="M70.507,36.729c-0.663-0.781-1.621-1.229-2.627-1.229H32.12c-1.006,0-1.964,0.448-2.627,1.229 c-0.696,0.819-0.995,1.906-0.819,2.981L30.907,53.5h38.186l2.233-13.791C71.502,38.634,71.204,37.548,70.507,36.729z"/><path fill="#472b29" d="M67.88,36.4c0.753,0,1.442,0.324,1.942,0.911c0.525,0.618,0.75,1.439,0.616,2.254l-2.22,13.711 L68.182,53.5l0.036,0.224l2.22,13.713c0.133,0.814-0.092,1.635-0.617,2.252c-0.499,0.588-1.189,0.911-1.942,0.911H32.12 c-0.753,0-1.442-0.324-1.942-0.911c-0.525-0.618-0.75-1.439-0.616-2.254l2.22-13.711l0.036-0.224l-0.036-0.224l-2.22-13.713 c-0.133-0.814,0.092-1.635,0.617-2.252c0.499-0.588,1.189-0.911,1.942-0.911H67.88 M67.88,35H32.12c-2.47,0-4.35,2.282-3.94,4.789 L30.4,53.5l-2.22,13.711C27.77,69.718,29.65,72,32.12,72h35.76c2.47,0,4.35-2.282,3.94-4.789L69.6,53.5l2.22-13.711 C72.23,37.282,70.35,35,67.88,35L67.88,35z"/><circle cx="58.5" cy="31.5" r="1.25" fill="#fdfcef"/><path fill="#472b29" d="M58.5,30.5c0.551,0,1,0.449,1,1s-0.449,1-1,1s-1-0.449-1-1S57.949,30.5,58.5,30.5 M58.5,30 c-0.828,0-1.5,0.672-1.5,1.5s0.672,1.5,1.5,1.5s1.5-0.672,1.5-1.5S59.328,30,58.5,30L58.5,30z"/><circle cx="41.5" cy="31.5" r="1.25" fill="#fdfcef"/><path fill="#472b29" d="M41.5,30.5c0.551,0,1,0.449,1,1s-0.449,1-1,1s-1-0.449-1-1S40.949,30.5,41.5,30.5 M41.5,30 c-0.828,0-1.5,0.672-1.5,1.5s0.672,1.5,1.5,1.5s1.5-0.672,1.5-1.5S42.328,30,41.5,30L41.5,30z"/><rect width="37.2" height=".5" x="31.4" y="53.25" fill="#472b29"/><path fill="#e1e0d8" d="M49.49,57.17c0,1.62-0.54,2.92-1.61,3.88c-1.05,0.95-2.42,1.43-4.09,1.43 c-1.65,0-3.03-0.47-4.08-1.38c-1.08-0.93-1.62-2.17-1.62-3.68v-0.5h3.09v0.5c0,0.73,0.23,1.28,0.69,1.71 c0.47,0.43,1.1,0.64,1.92,0.64c0.88,0,1.52-0.21,1.97-0.64c0.43-0.43,0.65-1.06,0.65-1.91c0-0.81-0.23-1.41-0.71-1.82 c-0.49-0.43-1.24-0.66-2.22-0.67h-1.56c-0.27,0-0.5-0.22-0.5-0.5v-1.7c0-0.28,0.23-0.5,0.5-0.5h1.57c0.85-0.01,1.52-0.23,1.99-0.65 c0.46-0.41,0.68-0.96,0.68-1.68c0-1.31-1.15-2.4-2.47-2.37c-0.73,0.01-1.29,0.22-1.72,0.63c-0.44,0.42-0.65,0.97-0.65,1.68v0.5 h-3.09v-0.5c0-1.44,0.54-2.65,1.6-3.61c1.04-0.94,2.37-1.42,3.95-1.42c1.68,0,3.01,0.46,3.99,1.36c0.98,0.92,1.47,2.19,1.47,3.79 c0,0.81-0.26,1.61-0.78,2.36c-0.31,0.45-0.7,0.84-1.16,1.16c0.13,0.07,0.25,0.14,0.36,0.22c0.39,0.26,0.72,0.58,1,0.95 C49.21,55.2,49.49,56.11,49.49,57.17z"/><path fill="#e1e0d8" d="M59.21,44.76v16.99c0,0.28-0.22,0.5-0.5,0.5h-2.1c-0.27,0-0.5-0.22-0.5-0.5V48.57l-3.53,1.29 c-0.33,0.12-0.67-0.12-0.67-0.46v-1.9c0-0.21,0.13-0.39,0.32-0.47l6.06-2.27H59.21z"/><path fill="#fdfcef" d="M48.66,54.45c0.55,0.75,0.83,1.66,0.83,2.72c0,1.62-0.54,2.92-1.61,3.88 c-1.05,0.95-2.42,1.43-4.09,1.43c-1.65,0-3.03-0.47-4.08-1.38c-1.08-0.93-1.62-2.17-1.62-3.68v-0.5h3.09v0.5 c0,0.73,0.23,1.28,0.69,1.71c0.47,0.43,1.1,0.64,1.92,0.64c0.88,0,1.52-0.21,1.97-0.64c0.43-0.43,0.65-1.06,0.65-1.91 c0-0.81-0.23-1.41-0.71-1.82c-0.49-0.43-1.24-0.66-2.22-0.67h-1.56c-0.27,0-0.5-0.22-0.5-0.5V53.5h6.24 C48.05,53.76,48.38,54.08,48.66,54.45z"/><path fill="#fdfcef" d="M59.21,53.5v8.25c0,0.28-0.22,0.5-0.5,0.5h-2.1c-0.27,0-0.5-0.22-0.5-0.5V53.5H59.21z"/><path fill="#472b29" d="M43.784,45.111c1.548,0,2.762,0.41,3.642,1.229c0.879,0.819,1.318,1.958,1.318,3.416 c0,0.714-0.23,1.406-0.693,2.075c-0.462,0.669-1.092,1.168-1.888,1.499c0.901,0.286,1.599,0.759,2.091,1.42 c0.492,0.662,0.738,1.47,0.738,2.424c0,1.473-0.48,2.642-1.442,3.506c-0.963,0.864-2.214,1.296-3.755,1.296 c-1.54,0-2.794-0.417-3.759-1.251c-0.966-0.834-1.449-1.935-1.449-3.303h2.097c0,0.864,0.282,1.556,0.846,2.074 c0.563,0.519,1.319,0.778,2.266,0.778c1.008,0,1.777-0.263,2.312-0.789c0.533-0.526,0.801-1.281,0.801-2.266 c0-0.955-0.294-1.688-0.88-2.199c-0.586-0.511-1.432-0.774-2.536-0.789h-1.567v-1.702h1.567c0.984-0.015,1.759-0.274,2.322-0.778 c0.563-0.503,0.846-1.184,0.846-2.041c0-1.924-0.959-2.886-2.875-2.886c-0.902,0-1.622,0.258-2.159,0.772 c-0.537,0.515-0.806,1.197-0.806,2.046h-2.086c0-1.3,0.476-2.38,1.427-3.241C41.11,45.542,42.318,45.111,43.784,45.111 M43.784,44.111c-1.715,0-3.16,0.521-4.295,1.55c-1.165,1.053-1.755,2.393-1.755,3.982c0,0.552,0.448,1,1,1h2.086 c0.552,0,1-0.448,1-1c0-0.578,0.158-0.999,0.498-1.324c0.347-0.333,0.827-0.494,1.467-0.494c1.367,0,1.875,0.511,1.875,1.886 c0,0.571-0.163,0.983-0.512,1.295c-0.382,0.341-0.928,0.512-1.671,0.524l-1.552,0c-0.552,0-1,0.448-1,1v1.702c0,0.552,0.448,1,1,1 h1.567c0.842,0.012,1.479,0.194,1.879,0.543c0.361,0.315,0.537,0.788,0.537,1.445c0,0.712-0.165,1.22-0.503,1.554 c-0.342,0.337-0.869,0.501-1.609,0.501c-0.693,0-1.213-0.168-1.588-0.514c-0.357-0.328-0.523-0.754-0.523-1.338 c0-0.552-0.448-1-1-1h-2.097c-0.552,0-1,0.448-1,1c0,1.665,0.604,3.031,1.795,4.06c1.147,0.992,2.631,1.495,4.413,1.495 c1.787,0,3.275-0.522,4.423-1.552c1.178-1.058,1.774-2.488,1.774-4.251c0-1.17-0.315-2.186-0.936-3.021 c-0.258-0.347-0.561-0.653-0.906-0.918c0.27-0.25,0.511-0.53,0.723-0.837c0.577-0.834,0.87-1.724,0.87-2.643 c0-1.739-0.551-3.135-1.636-4.147C47.04,44.615,45.586,44.111,43.784,44.111L43.784,44.111z"/><path fill="#472b29" d="M58.711,45.258v16.493h-2.098v-13.9l-4.205,1.544v-1.894l5.976-2.244H58.711 M58.711,44.258h-0.327 c-0.12,0-0.239,0.022-0.352,0.064l-5.976,2.244c-0.39,0.146-0.648,0.519-0.648,0.936v1.894c0,0.327,0.16,0.633,0.428,0.82 c0.17,0.119,0.37,0.18,0.572,0.18c0.116,0,0.233-0.02,0.345-0.061l2.86-1.051v12.467c0,0.552,0.448,1,1,1h2.098 c0.552,0,1-0.448,1-1V45.258C59.711,44.706,59.263,44.258,58.711,44.258L58.711,44.258z"/></svg>