<svg xmlns="http://www.w3.org/2000/svg"  viewBox="0 0 100 100" width="100px" height="100px"><path fill="#ee3e54" d="M13 27A2 2 0 1 0 13 31A2 2 0 1 0 13 27Z"/><path fill="#f1bc19" d="M77 12A1 1 0 1 0 77 14A1 1 0 1 0 77 12Z"/><path fill="#fce0a2" d="M50 13A37 37 0 1 0 50 87A37 37 0 1 0 50 13Z"/><path fill="#f1bc19" d="M83 11A4 4 0 1 0 83 19A4 4 0 1 0 83 11Z"/><path fill="#ee3e54" d="M87 22A2 2 0 1 0 87 26A2 2 0 1 0 87 22Z"/><path fill="#fbcd59" d="M81 74A2 2 0 1 0 81 78 2 2 0 1 0 81 74zM15 59A4 4 0 1 0 15 67 4 4 0 1 0 15 59z"/><path fill="#ee3e54" d="M25 85A2 2 0 1 0 25 89A2 2 0 1 0 25 85Z"/><path fill="#fff" d="M18.5 51A2.5 2.5 0 1 0 18.5 56A2.5 2.5 0 1 0 18.5 51Z"/><path fill="#f1bc19" d="M21 66A1 1 0 1 0 21 68A1 1 0 1 0 21 66Z"/><path fill="#fff" d="M80 33A1 1 0 1 0 80 35A1 1 0 1 0 80 33Z"/><path fill="#fdfcee" d="M29,71.3c-0.166,0-0.3-0.135-0.3-0.3V47.87L50,32.079L71.3,47.87V71c0,0.165-0.134,0.3-0.3,0.3H29z"/><path fill="#472b29" d="M50,32.951l20.6,15.271V70.6H29.4V48.223L50,32.951 M50,31.208l-22,16.31V71c0,0.553,0.448,1,1,1h42 c0.552,0,1-0.447,1-1V47.518L50,31.208z"/><path fill="#b3b2c3" d="M43.5,70.625V52.208c0-0.391,0.291-0.708,0.65-0.708h11.7c0.359,0,0.65,0.317,0.65,0.708v18.417"/><path fill="#472b29" d="M44,70.625V52.208l0.059-0.162L44.15,52h11.7l0.091,0.046L56,52.208v18.417h1l0-18.417 c0-0.32-0.119-0.617-0.322-0.839c-0.201-0.221-0.499-0.37-0.828-0.369h-11.7c-0.329-0.001-0.627,0.148-0.828,0.369 C43.119,51.591,43,51.888,43,52.208v18.417H44L44,70.625z"/><path fill="#ceccbe" d="M72 47.518L72 51.034 50.021 34.725 28.042 51.034 28.042 47.518 50.021 31.208z"/><path fill="#ea5167" d="M25.833 42.507L50 24 74.167 42.507 74.167 49.625 50 31.118 25.833 49.625z"/><path fill="#472b29" d="M25.833,42.507l0.426,0.556L50,24.882l23.466,17.971v5.355L50.426,30.562 c-0.252-0.193-0.599-0.193-0.851,0L26.533,48.207v-5.7H25.833l0.426,0.556L25.833,42.507h-0.7v7.118c0,0.266,0.152,0.51,0.39,0.628 s0.525,0.09,0.735-0.072L50,32l23.741,18.181c0.211,0.161,0.497,0.19,0.735,0.072c0.238-0.118,0.39-0.362,0.39-0.628v-7.118 c0-0.217-0.102-0.424-0.274-0.556L50.426,23.444c-0.252-0.193-0.599-0.193-0.851,0L25.408,41.951 c-0.173,0.132-0.274,0.338-0.274,0.556H25.833z"/><path fill="#fefdef" d="M71.489,24.887v3.018c0,0.211-0.16,0.377-0.364,0.377l-1.58,0.021v12.445 c0,0.144-0.08,0.271-0.204,0.339l-0.16,0.038l-0.218-0.075L64.6,37.655c-0.095-0.067-0.146-0.181-0.146-0.302v-9.051l-1.58-0.021 c-0.204,0-0.364-0.166-0.364-0.377v-3.018c0-0.211,0.16-0.377,0.364-0.377h8.25C71.329,24.51,71.489,24.676,71.489,24.887z"/><path fill="#472b29" d="M66.507 38.506l-1.608-1.251-.009-.007-.075.106h.14l-.065-.106-.075.106h.14v-9.544l-2.073-.028h-.007v.141l.102-.098-.102-.043v.141l.102-.098-.083.08h.117l-.035-.08-.083.08h.117v-3.018h-.117l.082.08.035-.08h-.117l.082.08-.102-.098 0 .141.102-.043-.102-.098 0 .141h8.25v-.141l-.102.098.102.043v-.141l-.102.098.082-.08-.117 0 .035.08.082-.08-.117 0v3.018h.117l-.082-.08-.035.08h.117l-.082-.08.102.098v-.141l-.102.043.102.098v-.141h-.009l-2.071.028v12.939h.112l-.055-.1-.057.1h.112l-.055-.1.239.439L69.226 40.6l-.019.004-.002-.001-.764-.595c-.218-.17-.532-.13-.702.088-.17.218-.13.532.088.702l.895.696.296.102.137.047.302-.072.065-.016.059-.032c.277-.15.464-.445.464-.778V28.796l1.086-.015-.007-.5v.5c.239.001.464-.101.618-.262.156-.161.246-.382.246-.615v-3.018c0-.233-.09-.454-.246-.615-.154-.161-.379-.263-.618-.262h-8.25c-.239-.001-.464.101-.618.262-.156.161-.246.382-.246.615v3.018c0 .233.09.454.246.615.154.161.379.263.618.262v-.5l-.007.5 1.086.015 0 8.558c-.001.257.11.534.356.709l.29-.407-.307.395 1.6 1.245c.218.17.532.13.702-.088C66.764 38.99 66.725 38.675 66.507 38.506L66.507 38.506zM52.5 62h2c.276 0 .5-.224.5-.5 0-.276-.224-.5-.5-.5h-2c-.276 0-.5.224-.5.5C52 61.776 52.224 62 52.5 62"/></svg>