<?xml version="1.0" encoding="UTF-8"?>
<svg xmlns="http://www.w3.org/2000/svg" xmlns:xlink="http://www.w3.org/1999/xlink" width="100pt" height="100pt" viewBox="0 0 100 100" version="1.1">
<g id="surface6908424">
<path style=" stroke:none;fill-rule:nonzero;fill:rgb(94.509804%,76.862746%,5.882353%);fill-opacity:1;" d="M 77 12 C 76.449219 12 76 12.449219 76 13 C 76 13.550781 76.449219 14 77 14 C 77.550781 14 78 13.550781 78 13 C 78 12.449219 77.550781 12 77 12 Z M 77 12 "/>
<path style=" stroke:none;fill-rule:nonzero;fill:rgb(89.411765%,89.411765%,97.647059%);fill-opacity:1;" d="M 50 13 C 29.566406 13 13 29.566406 13 50 C 13 70.433594 29.566406 87 50 87 C 70.433594 87 87 70.433594 87 50 C 87 29.566406 70.433594 13 50 13 Z M 50 13 "/>
<path style=" stroke:none;fill-rule:nonzero;fill:rgb(94.509804%,76.862746%,5.882353%);fill-opacity:1;" d="M 83 11 C 80.789062 11 79 12.789062 79 15 C 79 17.210938 80.789062 19 83 19 C 85.210938 19 87 17.210938 87 15 C 87 12.789062 85.210938 11 83 11 Z M 83 11 "/>
<path style=" stroke:none;fill-rule:nonzero;fill:rgb(53.333336%,53.725493%,72.549021%);fill-opacity:1;" d="M 87 22 C 85.894531 22 85 22.894531 85 24 C 85 25.105469 85.894531 26 87 26 C 88.105469 26 89 25.105469 89 24 C 89 22.894531 88.105469 22 87 22 Z M 87 22 "/>
<path style=" stroke:none;fill-rule:nonzero;fill:rgb(98.431373%,80.392158%,34.901962%);fill-opacity:1;" d="M 81 74 C 79.894531 74 79 74.894531 79 76 C 79 77.105469 79.894531 78 81 78 C 82.105469 78 83 77.105469 83 76 C 83 74.894531 82.105469 74 81 74 Z M 15 59 C 12.789062 59 11 60.789062 11 63 C 11 65.210938 12.789062 67 15 67 C 17.210938 67 19 65.210938 19 63 C 19 60.789062 17.210938 59 15 59 Z M 15 59 "/>
<path style=" stroke:none;fill-rule:nonzero;fill:rgb(53.333336%,53.725493%,72.549021%);fill-opacity:1;" d="M 25 85 C 23.894531 85 23 85.894531 23 87 C 23 88.105469 23.894531 89 25 89 C 26.105469 89 27 88.105469 27 87 C 27 85.894531 26.105469 85 25 85 Z M 25 85 "/>
<path style=" stroke:none;fill-rule:nonzero;fill:rgb(100%,100%,100%);fill-opacity:1;" d="M 18.5 49 C 17.121094 49 16 50.121094 16 51.5 C 16 52.878906 17.121094 54 18.5 54 C 19.878906 54 21 52.878906 21 51.5 C 21 50.121094 19.878906 49 18.5 49 Z M 79.5 32 C 78.671875 32 78 32.671875 78 33.5 C 78 34.328125 78.671875 35 79.5 35 C 80.328125 35 81 34.328125 81 33.5 C 81 32.671875 80.328125 32 79.5 32 Z M 79.5 32 "/>
<path style=" stroke:none;fill-rule:nonzero;fill:rgb(18.039216%,80.000001%,44.313726%);fill-opacity:1;" d="M 50 25.625 C 36.605469 25.625 25.75 36.480469 25.75 49.875 C 25.75 63.269531 36.605469 74.125 50 74.125 C 63.394531 74.125 74.25 63.269531 74.25 49.875 C 74.25 36.480469 63.394531 25.625 50 25.625 Z M 50 25.625 "/>
<path style=" stroke:none;fill-rule:nonzero;fill:rgb(27.843139%,16.862746%,16.078432%);fill-opacity:1;" d="M 50 74.824219 C 36.242188 74.824219 25.050781 63.632812 25.050781 49.875 C 25.050781 36.117188 36.242188 24.925781 50 24.925781 C 63.757812 24.925781 74.949219 36.117188 74.949219 49.875 C 74.949219 63.632812 63.757812 74.824219 50 74.824219 Z M 50 26.324219 C 37.015625 26.324219 26.449219 36.890625 26.449219 49.875 C 26.449219 62.859375 37.015625 73.425781 50 73.425781 C 62.984375 73.425781 73.550781 62.859375 73.550781 49.875 C 73.550781 36.890625 62.984375 26.324219 50 26.324219 Z M 50 26.324219 "/>
<path style=" stroke:none;fill-rule:nonzero;fill:rgb(27.843139%,16.862746%,16.078432%);fill-opacity:1;" d="M 69.425781 44.625 C 69.210938 44.625 69.011719 44.488281 68.945312 44.273438 C 68.855469 43.984375 68.761719 43.699219 68.660156 43.417969 C 68.269531 42.328125 67.777344 41.261719 67.191406 40.25 C 67.054688 40.011719 67.136719 39.703125 67.375 39.566406 C 67.609375 39.429688 67.917969 39.507812 68.058594 39.75 C 68.671875 40.8125 69.191406 41.933594 69.605469 43.082031 C 69.710938 43.375 69.808594 43.675781 69.902344 43.976562 C 69.984375 44.242188 69.835938 44.519531 69.570312 44.601562 C 69.523438 44.617188 69.472656 44.625 69.425781 44.625 Z M 69.425781 44.625 "/>
<path style=" stroke:none;fill-rule:nonzero;fill:rgb(27.843139%,16.862746%,16.078432%);fill-opacity:1;" d="M 50 70.75 C 38.488281 70.75 29.125 61.414062 29.125 49.9375 C 29.125 38.460938 38.488281 29.125 50 29.125 C 55.976562 29.125 61.675781 31.683594 65.636719 36.148438 C 65.9375 36.484375 66.222656 36.832031 66.5 37.191406 C 66.671875 37.40625 66.632812 37.722656 66.414062 37.890625 C 66.195312 38.058594 65.882812 38.019531 65.710938 37.804688 C 65.449219 37.464844 65.175781 37.136719 64.890625 36.8125 C 61.117188 32.5625 55.691406 30.125 50 30.125 C 39.039062 30.125 30.125 39.015625 30.125 49.9375 C 30.125 60.863281 39.039062 69.75 50 69.75 C 60.960938 69.75 69.875 60.863281 69.875 49.9375 C 69.875 48.945312 69.800781 47.945312 69.652344 46.964844 C 69.613281 46.691406 69.800781 46.4375 70.074219 46.394531 C 70.347656 46.359375 70.601562 46.542969 70.640625 46.816406 C 70.796875 47.84375 70.875 48.894531 70.875 49.9375 C 70.875 61.414062 61.511719 70.75 50 70.75 Z M 50 70.75 "/>
<path style=" stroke:none;fill-rule:nonzero;fill:rgb(99.215686%,98.823529%,93.333334%);fill-opacity:1;" d="M 59.660156 48.265625 L 51.675781 48.265625 L 51.675781 39.582031 C 51.675781 38.625 50.898438 37.847656 49.9375 37.847656 C 48.980469 37.847656 48.203125 38.625 48.203125 39.582031 L 48.203125 48.265625 L 40.214844 48.265625 C 39.257812 48.265625 38.480469 49.039062 38.480469 50 C 38.480469 50.960938 39.257812 51.734375 40.214844 51.734375 L 48.203125 51.734375 L 48.203125 60.417969 C 48.203125 61.375 48.980469 62.152344 49.9375 62.152344 C 50.898438 62.152344 51.675781 61.375 51.675781 60.417969 L 51.675781 51.734375 L 59.660156 51.734375 C 60.617188 51.734375 61.394531 50.960938 61.394531 50 C 61.394531 49.039062 60.617188 48.265625 59.660156 48.265625 Z M 59.660156 48.265625 "/>
<path style=" stroke:none;fill-rule:nonzero;fill:rgb(27.843139%,16.862746%,16.078432%);fill-opacity:1;" d="M 49.9375 62.652344 C 48.703125 62.652344 47.703125 61.648438 47.703125 60.417969 L 47.703125 52.238281 L 40.214844 52.238281 C 38.984375 52.238281 37.980469 51.234375 37.980469 50 C 37.980469 48.769531 38.984375 47.765625 40.214844 47.765625 L 47.703125 47.765625 L 47.703125 39.585938 C 47.703125 38.351562 48.703125 37.347656 49.9375 37.347656 C 51.171875 37.347656 52.175781 38.351562 52.175781 39.585938 L 52.175781 47.765625 L 59.660156 47.765625 C 60.890625 47.765625 61.894531 48.769531 61.894531 50 C 61.894531 51.234375 60.890625 52.238281 59.660156 52.238281 L 52.175781 52.238281 L 52.175781 60.417969 C 52.175781 61.648438 51.171875 62.652344 49.9375 62.652344 Z M 40.214844 48.765625 C 39.53125 48.765625 38.980469 49.320312 38.980469 50 C 38.980469 50.679688 39.535156 51.234375 40.214844 51.234375 L 48.699219 51.234375 L 48.699219 60.414062 C 48.699219 61.097656 49.257812 61.652344 49.9375 61.652344 C 50.617188 61.652344 51.171875 61.097656 51.171875 60.414062 L 51.171875 51.234375 L 59.660156 51.234375 C 60.339844 51.234375 60.894531 50.679688 60.894531 50 C 60.894531 49.320312 60.339844 48.765625 59.660156 48.765625 L 51.171875 48.765625 L 51.171875 39.585938 C 51.171875 38.902344 50.617188 38.347656 49.9375 38.347656 C 49.257812 38.347656 48.699219 38.902344 48.699219 39.585938 L 48.699219 48.765625 Z M 40.214844 48.765625 "/>
</g>
</svg>
