<?xml version="1.0" encoding="UTF-8"?>
<svg xmlns="http://www.w3.org/2000/svg" xmlns:xlink="http://www.w3.org/1999/xlink" width="100pt" height="100pt" viewBox="0 0 100 100" version="1.1">
<g id="surface6901408">
<path style=" stroke:none;fill-rule:nonzero;fill:rgb(58.431375%,64.705884%,65.098041%);fill-opacity:1;" d="M 13 27 C 11.894531 27 11 27.894531 11 29 C 11 30.105469 11.894531 31 13 31 C 14.105469 31 15 30.105469 15 29 C 15 27.894531 14.105469 27 13 27 Z M 13 27 "/>
<path style=" stroke:none;fill-rule:nonzero;fill:rgb(94.509804%,73.725492%,9.803922%);fill-opacity:1;" d="M 77 12 C 76.449219 12 76 12.449219 76 13 C 76 13.550781 76.449219 14 77 14 C 77.550781 14 78 13.550781 78 13 C 78 12.449219 77.550781 12 77 12 Z M 77 12 "/>
<path style=" stroke:none;fill-rule:nonzero;fill:rgb(92.54902%,94.117647%,94.509804%);fill-opacity:1;" d="M 50 13 C 29.566406 13 13 29.566406 13 50 C 13 70.433594 29.566406 87 50 87 C 70.433594 87 87 70.433594 87 50 C 87 29.566406 70.433594 13 50 13 Z M 50 13 "/>
<path style=" stroke:none;fill-rule:nonzero;fill:rgb(94.509804%,73.725492%,9.803922%);fill-opacity:1;" d="M 83 11 C 80.789062 11 79 12.789062 79 15 C 79 17.210938 80.789062 19 83 19 C 85.210938 19 87 17.210938 87 15 C 87 12.789062 85.210938 11 83 11 Z M 83 11 "/>
<path style=" stroke:none;fill-rule:nonzero;fill:rgb(58.431375%,64.705884%,65.098041%);fill-opacity:1;" d="M 87 22 C 85.894531 22 85 22.894531 85 24 C 85 25.105469 85.894531 26 87 26 C 88.105469 26 89 25.105469 89 24 C 89 22.894531 88.105469 22 87 22 Z M 87 22 "/>
<path style=" stroke:none;fill-rule:nonzero;fill:rgb(98.431373%,80.392158%,34.901962%);fill-opacity:1;" d="M 81 74 C 79.894531 74 79 74.894531 79 76 C 79 77.105469 79.894531 78 81 78 C 82.105469 78 83 77.105469 83 76 C 83 74.894531 82.105469 74 81 74 Z M 15 59 C 12.789062 59 11 60.789062 11 63 C 11 65.210938 12.789062 67 15 67 C 17.210938 67 19 65.210938 19 63 C 19 60.789062 17.210938 59 15 59 Z M 15 59 "/>
<path style=" stroke:none;fill-rule:nonzero;fill:rgb(58.431375%,64.705884%,65.098041%);fill-opacity:1;" d="M 25 85 C 23.894531 85 23 85.894531 23 87 C 23 88.105469 23.894531 89 25 89 C 26.105469 89 27 88.105469 27 87 C 27 85.894531 26.105469 85 25 85 Z M 25 85 "/>
<path style=" stroke:none;fill-rule:nonzero;fill:rgb(100%,100%,100%);fill-opacity:1;" d="M 18.5 51 C 17.121094 51 16 52.121094 16 53.5 C 16 54.878906 17.121094 56 18.5 56 C 19.878906 56 21 54.878906 21 53.5 C 21 52.121094 19.878906 51 18.5 51 Z M 18.5 51 "/>
<path style=" stroke:none;fill-rule:nonzero;fill:rgb(94.509804%,73.725492%,9.803922%);fill-opacity:1;" d="M 21 66 C 20.449219 66 20 66.449219 20 67 C 20 67.550781 20.449219 68 21 68 C 21.550781 68 22 67.550781 22 67 C 22 66.449219 21.550781 66 21 66 Z M 21 66 "/>
<path style=" stroke:none;fill-rule:nonzero;fill:rgb(100%,100%,100%);fill-opacity:1;" d="M 80 33 C 79.449219 33 79 33.449219 79 34 C 79 34.550781 79.449219 35 80 35 C 80.550781 35 81 34.550781 81 34 C 81 33.449219 80.550781 33 80 33 Z M 80 33 "/>
<path style=" stroke:none;fill-rule:nonzero;fill:rgb(98.039216%,74.901962%,50.980395%);fill-opacity:1;" d="M 69.121094 70.527344 C 68.714844 68.378906 67.839844 67.121094 65.777344 66.5 C 65.6875 66.472656 65.570312 66.429688 65.433594 66.378906 C 65.277344 66.308594 65.078125 66.230469 64.847656 66.140625 C 63.597656 65.609375 56.175781 62.871094 56.175781 62.871094 C 55.5625 62.71875 55.164062 62.28125 54.933594 61.789062 C 54.554688 60.980469 54.703125 58.875 54.703125 58.875 C 54.703125 58.875 51.597656 59.9375 49.660156 60.300781 C 47.761719 60.484375 43.679688 58.027344 43.679688 58.027344 C 43.679688 58.027344 43.582031 61.066406 43.453125 61.738281 C 43.351562 62.269531 42.78125 62.71875 42.167969 62.871094 L 35.046875 65.457031 C 34.257812 65.660156 33.5 65.957031 32.835938 66.367188 C 31.042969 67.472656 30.136719 69.136719 29.671875 70.527344 C 29.671875 70.527344 29.203125 73.84375 29.222656 73.960938 C 29.179688 74.425781 29.132812 74.9375 29.085938 75.472656 C 36.851562 80.730469 43.085938 82.203125 53.785156 81.734375 C 58.644531 81.523438 65.882812 79.121094 69.675781 77.210938 C 69.476562 72.984375 69.121094 70.527344 69.121094 70.527344 Z M 69.121094 70.527344 "/>
<path style=" stroke:none;fill-rule:nonzero;fill:rgb(20.392157%,59.607846%,85.882354%);fill-opacity:1;" d="M 65.777344 66.539062 C 65.6875 66.515625 65.570312 66.46875 65.433594 66.417969 C 65.277344 66.351562 65.078125 66.269531 64.847656 66.179688 C 64.074219 65.851562 60.941406 64.683594 58.664062 63.835938 L 58.558594 63.808594 C 56.039062 65.097656 52.460938 67.03125 49.171875 67.03125 C 45.886719 67.03125 42.589844 65.28125 39.789062 63.808594 L 39.476562 63.890625 L 35.042969 65.496094 C 34.257812 65.703125 33.5 65.996094 32.835938 66.40625 C 31.042969 67.515625 30.132812 69.175781 29.671875 70.566406 C 29.671875 70.566406 29.203125 73.882812 29.222656 74.003906 C 29.179688 74.46875 29.132812 79.445312 29.085938 79.984375 C 36.847656 85.242188 43.085938 86.714844 53.785156 86.246094 C 58.644531 86.03125 65.882812 83.632812 69.675781 81.71875 C 69.472656 77.496094 69.121094 70.566406 69.121094 70.566406 C 68.714844 68.421875 67.839844 67.164062 65.777344 66.539062 Z M 65.777344 66.539062 "/>
<path style=" stroke:none;fill-rule:nonzero;fill:rgb(74.509805%,47.058824%,25.490198%);fill-opacity:1;" d="M 38.535156 46.355469 C 38.378906 46.007812 34.699219 37.796875 37.492188 32.210938 C 38.652344 29.898438 40.75 28.386719 43.734375 27.710938 C 45.453125 26.523438 47.515625 25.875 49.550781 25.875 C 51.261719 25.875 52.917969 26.316406 54.484375 27.1875 C 55.3125 27.652344 55.988281 28.042969 56.550781 28.371094 C 58.328125 29.40625 58.929688 29.753906 59.988281 29.753906 C 60.105469 29.753906 60.230469 29.75 60.359375 29.742188 L 60.488281 29.734375 C 60.640625 29.726562 60.789062 29.714844 60.929688 29.714844 C 61.855469 29.714844 62.113281 30.207031 62.167969 30.621094 C 62.308594 31.664062 61.941406 32.5625 61.617188 33.359375 C 61.324219 34.074219 61.074219 34.691406 61.246094 35.253906 C 63.082031 41.289062 60.234375 46.195312 60.109375 46.402344 L 59.171875 47.988281 L 59.183594 46.144531 C 59.183594 46.09375 59.195312 41.417969 58.085938 38.429688 C 56.667969 39.222656 54.941406 39.636719 53.0625 39.636719 C 49.8125 39.636719 46.222656 38.453125 42.660156 36.207031 C 39.492188 38.695312 39.492188 46.066406 39.492188 46.144531 L 39.503906 48.476562 Z M 38.535156 46.355469 "/>
<path style=" stroke:none;fill-rule:nonzero;fill:rgb(27.843139%,16.862746%,16.078432%);fill-opacity:1;" d="M 49.550781 26.375 C 51.0625 26.375 52.660156 26.746094 54.242188 27.625 C 57.777344 29.597656 58.433594 30.257812 59.992188 30.257812 C 60.117188 30.257812 60.25 30.253906 60.390625 30.242188 C 60.574219 30.230469 60.761719 30.21875 60.929688 30.21875 C 61.3125 30.21875 61.621094 30.296875 61.671875 30.6875 C 61.917969 32.527344 60.328125 33.953125 60.765625 35.398438 C 62.5625 41.292969 59.683594 46.148438 59.683594 46.148438 C 59.683594 46.148438 59.71875 40.765625 58.328125 37.699219 C 56.894531 38.644531 55.097656 39.140625 53.0625 39.140625 C 49.984375 39.140625 46.363281 38.011719 42.640625 35.605469 C 38.945312 38.0625 38.992188 46.148438 38.992188 46.148438 C 38.992188 46.148438 31.996094 30.789062 43.941406 28.175781 C 45.457031 27.109375 47.421875 26.375 49.550781 26.375 M 49.550781 25.375 L 49.550781 26.375 L 49.550781 25.375 C 47.445312 25.375 45.316406 26.039062 43.53125 27.246094 C 40.445312 27.964844 38.261719 29.558594 37.046875 31.988281 C 34.144531 37.785156 37.917969 46.207031 38.082031 46.5625 L 40.011719 50.800781 L 39.992188 46.144531 C 39.980469 44.179688 40.46875 38.941406 42.707031 36.828125 C 46.25 38.996094 49.816406 40.140625 53.0625 40.140625 C 54.800781 40.140625 56.417969 39.796875 57.800781 39.140625 C 58.695312 42.035156 58.683594 46.097656 58.683594 46.144531 L 58.65625 49.835938 L 60.542969 46.660156 C 60.667969 46.445312 63.625 41.355469 61.722656 35.109375 C 61.605469 34.71875 61.824219 34.175781 62.082031 33.550781 C 62.410156 32.738281 62.820312 31.734375 62.664062 30.554688 C 62.621094 30.242188 62.375 29.21875 60.929688 29.21875 C 60.777344 29.21875 60.617188 29.226562 60.457031 29.238281 L 60.328125 29.246094 C 60.210938 29.253906 60.097656 29.257812 59.988281 29.257812 C 59.097656 29.257812 58.632812 29.003906 56.796875 27.9375 C 56.234375 27.609375 55.558594 27.21875 54.726562 26.753906 C 53.089844 25.839844 51.347656 25.375 49.550781 25.375 Z M 49.550781 25.375 "/>
<path style=" stroke:none;fill-rule:nonzero;fill:rgb(0%,64.705884%,64.705884%);fill-opacity:1;" d="M 35.902344 84.214844 C 35.738281 84.214844 35.601562 84.078125 35.601562 83.914062 L 35.601562 79.964844 C 35.601562 79.796875 35.738281 79.664062 35.902344 79.664062 C 36.070312 79.664062 36.203125 79.796875 36.203125 79.964844 L 36.203125 83.914062 C 36.203125 84.078125 36.070312 84.214844 35.902344 84.214844 Z M 62.230469 84.90625 C 62.066406 84.90625 61.929688 84.773438 61.929688 84.609375 L 61.929688 79.964844 C 61.929688 79.796875 62.066406 79.664062 62.230469 79.664062 C 62.398438 79.664062 62.53125 79.796875 62.53125 79.964844 L 62.53125 84.609375 C 62.53125 84.773438 62.398438 84.90625 62.230469 84.90625 Z M 62.230469 84.90625 "/>
<path style=" stroke:none;fill-rule:nonzero;fill:rgb(99.215686%,85.882354%,73.725492%);fill-opacity:1;" d="M 61.417969 44 C 61.300781 43.992188 61.183594 43.992188 61.058594 43.992188 C 60.09375 43.945312 60.175781 44.308594 60.21875 43.710938 C 60.296875 42.652344 59.792969 38.371094 59.792969 38.152344 C 59.792969 33.699219 55.140625 30.0625 49.324219 29.863281 L 49.324219 29.847656 C 49.285156 29.851562 49.25 29.855469 49.210938 29.855469 C 49.171875 29.855469 49.132812 29.851562 49.09375 29.847656 L 49.09375 29.863281 C 43.277344 30.0625 38.625 33.699219 38.625 38.152344 C 38.625 38.371094 38.476562 42.671875 38.554688 43.730469 C 38.601562 44.328125 38.324219 43.945312 37.359375 43.992188 C 37.234375 43.992188 37.117188 43.992188 37 44 C 35.941406 44.070312 35.085938 44.742188 34.902344 45.578125 C 35.03125 45.65625 35.515625 49.308594 36.292969 50.746094 C 36.730469 51.550781 37.410156 51.664062 38.109375 52.183594 C 38.496094 52.46875 38.570312 52.792969 38.675781 53.222656 C 39.070312 54.8125 40.15625 56.164062 41.351562 57.320312 C 41.941406 57.890625 45.851562 62.058594 49.210938 61.847656 C 52.585938 61.71875 56.476562 57.890625 57.066406 57.320312 C 58.261719 56.164062 59.347656 54.8125 59.742188 53.222656 C 59.847656 52.792969 59.921875 52.46875 60.308594 52.183594 C 61.007812 51.664062 61.6875 51.550781 62.125 50.746094 C 62.902344 49.308594 63.386719 45.65625 63.515625 45.578125 C 63.332031 44.742188 62.476562 44.070312 61.417969 44 Z M 61.417969 44 "/>
<path style=" stroke:none;fill-rule:nonzero;fill:rgb(31.764707%,17.254902%,16.862746%);fill-opacity:1;" d="M 49.269531 51.058594 C 49.953125 51.058594 50.613281 50.761719 51.039062 50.261719 C 51.082031 50.210938 51.078125 50.136719 51.027344 50.09375 C 50.976562 50.050781 50.902344 50.054688 50.859375 50.105469 C 50.511719 50.503906 49.929688 50.730469 49.269531 50.730469 C 48.605469 50.730469 48.027344 50.503906 47.679688 50.105469 C 47.65625 50.078125 47.621094 50.0625 47.589844 50.0625 C 47.5625 50.0625 47.53125 50.074219 47.511719 50.09375 C 47.460938 50.136719 47.453125 50.210938 47.496094 50.261719 C 47.925781 50.761719 48.585938 51.058594 49.269531 51.058594 Z M 47.089844 41.832031 L 47.523438 41 C 45.691406 40.570312 43.582031 40.640625 41.84375 41.179688 L 42.386719 41.992188 C 43.820312 41.519531 45.578125 41.460938 47.089844 41.832031 Z M 56.261719 41.832031 L 56.695312 41 C 54.863281 40.570312 52.753906 40.640625 51.011719 41.179688 L 51.558594 41.992188 C 52.992188 41.519531 54.75 41.460938 56.261719 41.832031 Z M 44.453125 43.007812 C 44.015625 43.007812 43.628906 43.296875 43.40625 43.738281 C 43.460938 43.722656 43.519531 43.710938 43.578125 43.710938 C 43.941406 43.710938 44.230469 44.035156 44.230469 44.4375 C 44.230469 44.839844 43.9375 45.167969 43.578125 45.167969 C 43.460938 45.167969 43.351562 45.128906 43.257812 45.066406 C 43.410156 45.730469 43.886719 46.210938 44.453125 46.210938 C 45.144531 46.210938 45.707031 45.492188 45.707031 44.609375 C 45.707031 43.726562 45.144531 43.007812 44.453125 43.007812 Z M 54.03125 43.007812 C 53.65625 43.007812 53.320312 43.21875 53.089844 43.554688 C 53.160156 43.523438 53.238281 43.507812 53.320312 43.507812 C 53.679688 43.507812 53.972656 43.832031 53.972656 44.234375 C 53.972656 44.636719 53.679688 44.964844 53.320312 44.964844 C 53.097656 44.964844 52.898438 44.839844 52.78125 44.644531 C 52.796875 45.511719 53.351562 46.210938 54.03125 46.210938 C 54.722656 46.210938 55.28125 45.492188 55.28125 44.605469 C 55.28125 43.726562 54.722656 43.007812 54.03125 43.007812 Z M 54.5625 52.914062 C 54.613281 52.871094 54.621094 52.796875 54.578125 52.746094 C 54.539062 52.695312 54.464844 52.6875 54.410156 52.730469 C 53.28125 53.628906 51.410156 54.144531 49.269531 54.144531 C 47.132812 54.144531 45.257812 53.628906 44.128906 52.726562 C 44.105469 52.710938 44.078125 52.703125 44.054688 52.703125 C 44.019531 52.703125 43.984375 52.71875 43.960938 52.746094 C 43.917969 52.796875 43.925781 52.875 43.976562 52.914062 C 45.25 53.957031 47.230469 54.578125 49.269531 54.578125 C 51.308594 54.578125 53.285156 53.957031 54.5625 52.914062 Z M 50.664062 58.183594 C 50.726562 58.183594 50.78125 58.113281 50.78125 58.027344 C 50.78125 57.941406 50.726562 57.871094 50.664062 57.871094 L 48.09375 57.871094 C 48.03125 57.871094 47.980469 57.941406 47.980469 58.027344 C 47.980469 58.113281 48.03125 58.183594 48.09375 58.183594 Z M 50.664062 58.183594 "/>
<path style=" stroke:none;fill-rule:nonzero;fill:rgb(27.843139%,16.862746%,16.078432%);fill-opacity:1;" d="M 50.324219 86.960938 C 41.417969 86.960938 35.667969 85.179688 28.804688 80.535156 C 28.652344 80.433594 28.570312 80.257812 28.585938 80.078125 C 28.59375 79.96875 28.601562 79.605469 28.605469 79.078125 C 28.640625 76.894531 28.707031 72.351562 29.1875 70.574219 C 29.84375 68.15625 30.800781 67.210938 32.570312 66.117188 C 33.234375 65.710938 34.023438 65.382812 34.914062 65.148438 L 41.996094 62.582031 C 42.5 62.449219 42.902344 62.125 42.960938 61.824219 C 43.007812 61.574219 43.0625 60.839844 43.113281 59.785156 C 42.082031 59.054688 41.242188 58.398438 41 58.164062 C 39.4375 56.636719 38.546875 55.246094 38.191406 53.78125 C 38.078125 53.335938 38.03125 53.179688 37.808594 53.011719 C 37.601562 52.855469 37.394531 52.738281 37.195312 52.628906 C 36.714844 52.355469 36.214844 52.074219 35.851562 51.398438 C 35.011719 49.835938 34.402344 46.878906 34.402344 45.933594 C 34.402344 45.898438 34.40625 45.863281 34.414062 45.828125 C 34.648438 44.742188 35.695312 43.925781 36.964844 43.839844 C 37.09375 43.828125 37.222656 43.828125 37.359375 43.828125 C 37.628906 43.8125 37.863281 43.835938 38.042969 43.859375 C 38.007812 42.652344 38.078125 40.097656 38.109375 38.945312 C 38.117188 38.65625 38.125 38.46875 38.125 38.425781 C 38.125 33.6875 42.878906 29.800781 48.964844 29.542969 C 49.003906 29.53125 49.046875 29.527344 49.09375 29.527344 C 49.105469 29.527344 49.191406 29.53125 49.203125 29.53125 L 49.324219 29.527344 C 49.371094 29.527344 49.414062 29.53125 49.457031 29.542969 C 55.542969 29.804688 60.292969 33.6875 60.292969 38.425781 C 60.296875 38.492188 60.328125 38.78125 60.371094 39.1875 C 60.566406 40.988281 60.773438 42.972656 60.71875 43.746094 L 60.710938 43.8125 C 60.785156 43.816406 60.867188 43.820312 60.945312 43.824219 L 61.082031 43.828125 C 61.195312 43.828125 61.324219 43.832031 61.449219 43.839844 C 62.71875 43.925781 63.769531 44.742188 64.003906 45.828125 C 64.011719 45.863281 64.015625 45.898438 64.015625 45.933594 C 64.015625 47.023438 63.363281 49.90625 62.5625 51.398438 C 62.199219 52.074219 61.703125 52.355469 61.21875 52.628906 C 61.023438 52.738281 60.816406 52.855469 60.609375 53.011719 C 60.382812 53.179688 60.335938 53.335938 60.230469 53.757812 C 59.871094 55.246094 58.976562 56.636719 57.417969 58.164062 C 57.160156 58.414062 56.257812 59.148438 55.175781 59.929688 C 55.171875 60.800781 55.246094 61.457031 55.386719 61.757812 C 55.53125 62.054688 55.800781 62.441406 56.300781 62.566406 C 56.652344 62.695312 63.796875 65.332031 65.042969 65.859375 C 65.269531 65.945312 65.472656 66.027344 65.632812 66.097656 C 65.734375 66.136719 65.84375 66.175781 65.925781 66.199219 C 68.046875 66.839844 69.152344 68.160156 69.613281 70.613281 C 69.617188 70.632812 69.621094 70.65625 69.621094 70.679688 C 69.621094 70.679688 69.976562 77.605469 70.175781 81.832031 C 70.1875 82.027344 70.078125 82.210938 69.902344 82.300781 C 65.859375 84.34375 58.558594 86.675781 53.808594 86.882812 C 52.589844 86.933594 51.433594 86.960938 50.324219 86.960938 Z M 29.59375 79.859375 C 37.007812 84.824219 43.144531 86.351562 53.761719 85.882812 C 58.269531 85.683594 65.160156 83.511719 69.160156 81.550781 C 68.964844 77.488281 68.648438 71.277344 68.621094 70.761719 C 68.226562 68.699219 67.386719 67.683594 65.636719 67.15625 C 65.535156 67.128906 65.40625 67.078125 65.257812 67.023438 C 65.085938 66.949219 64.894531 66.871094 64.667969 66.785156 C 63.429688 66.261719 56.074219 63.546875 56.003906 63.519531 C 55.367188 63.363281 54.8125 62.878906 54.480469 62.179688 C 54.253906 61.699219 54.152344 60.851562 54.175781 59.660156 C 54.179688 59.503906 54.257812 59.355469 54.386719 59.265625 C 55.597656 58.402344 56.515625 57.644531 56.71875 57.445312 C 58.136719 56.058594 58.945312 54.816406 59.253906 53.546875 C 59.371094 53.070312 59.484375 52.605469 60.007812 52.210938 C 60.253906 52.027344 60.492188 51.890625 60.726562 51.757812 C 61.148438 51.519531 61.453125 51.347656 61.683594 50.925781 C 62.4375 49.519531 62.992188 46.902344 63.011719 45.988281 C 62.851562 45.371094 62.175781 44.886719 61.382812 44.835938 C 61.277344 44.828125 61.167969 44.828125 61.058594 44.828125 L 60.898438 44.820312 C 60.351562 44.796875 60.074219 44.78125 59.863281 44.539062 C 59.664062 44.3125 59.6875 44.054688 59.710938 43.804688 L 59.71875 43.675781 C 59.773438 42.925781 59.507812 40.472656 59.378906 39.296875 C 59.324219 38.816406 59.292969 38.484375 59.292969 38.425781 C 59.292969 34.199219 54.90625 30.734375 49.308594 30.539062 C 49.28125 30.539062 49.257812 30.535156 49.234375 30.53125 C 49.207031 30.53125 49.191406 30.53125 49.183594 30.53125 C 49.160156 30.535156 49.136719 30.539062 49.109375 30.539062 C 43.511719 30.734375 39.125 34.199219 39.125 38.425781 C 39.125 38.46875 39.121094 38.667969 39.113281 38.972656 C 39.078125 40.125 38.992188 43.191406 39.054688 44.03125 C 39.066406 44.1875 39.089844 44.519531 38.84375 44.742188 C 38.605469 44.960938 38.316406 44.914062 38.082031 44.875 C 37.90625 44.847656 37.6875 44.820312 37.382812 44.828125 C 37.246094 44.828125 37.140625 44.828125 37.03125 44.835938 C 36.242188 44.890625 35.566406 45.371094 35.402344 45.988281 C 35.425781 46.894531 36.019531 49.59375 36.734375 50.925781 C 36.960938 51.347656 37.265625 51.519531 37.691406 51.757812 C 37.921875 51.890625 38.164062 52.027344 38.40625 52.210938 C 38.929688 52.605469 39.046875 53.070312 39.15625 53.523438 C 39.472656 54.820312 40.277344 56.058594 41.699219 57.449219 C 41.898438 57.640625 42.773438 58.332031 43.910156 59.125 C 44.050781 59.226562 44.132812 59.386719 44.125 59.558594 C 44.066406 60.855469 44.007812 61.683594 43.941406 62.015625 C 43.789062 62.816406 43.003906 63.355469 42.289062 63.535156 L 35.214844 66.105469 C 34.375 66.328125 33.675781 66.613281 33.097656 66.972656 C 31.492188 67.960938 30.730469 68.71875 30.15625 70.835938 C 29.707031 72.492188 29.636719 77.117188 29.609375 79.09375 C 29.605469 79.410156 29.601562 79.671875 29.59375 79.859375 Z M 29.59375 79.859375 "/>
<path style=" stroke:none;fill-rule:nonzero;fill:rgb(53.725493%,36.470589%,23.921569%);fill-opacity:1;" d="M 61.480469 48.882812 L 60.882812 48.816406 L 61.082031 47.035156 L 60.070312 47.472656 L 59.835938 46.921875 L 61.320312 46.277344 C 61.417969 46.238281 61.53125 46.253906 61.617188 46.3125 C 61.703125 46.375 61.75 46.480469 61.738281 46.585938 Z M 37.261719 48.539062 L 37.003906 46.242188 C 36.992188 46.140625 37.035156 46.03125 37.121094 45.96875 C 37.210938 45.90625 37.320312 45.890625 37.421875 45.9375 L 38.90625 46.578125 L 38.667969 47.132812 L 37.65625 46.691406 L 37.859375 48.472656 Z M 37.261719 48.539062 "/>
<path style=" stroke:none;fill-rule:nonzero;fill:rgb(27.843139%,16.862746%,16.078432%);fill-opacity:1;" d="M 38.601562 52.980469 C 38.601562 52.980469 38.597656 52.980469 38.597656 52.980469 C 38.488281 52.976562 38.398438 52.886719 38.402344 52.777344 L 38.566406 44.128906 C 38.566406 44.019531 38.65625 43.933594 38.765625 43.933594 C 38.765625 43.933594 38.769531 43.933594 38.769531 43.933594 C 38.878906 43.933594 38.96875 44.027344 38.964844 44.136719 L 38.800781 52.785156 C 38.800781 52.894531 38.710938 52.980469 38.601562 52.980469 Z M 59.980469 52.980469 C 59.871094 52.980469 59.78125 52.894531 59.78125 52.785156 L 59.617188 44.136719 C 59.613281 44.027344 59.703125 43.933594 59.8125 43.933594 C 59.8125 43.933594 59.816406 43.933594 59.816406 43.933594 C 59.925781 43.933594 60.015625 44.019531 60.015625 44.128906 L 60.179688 52.777344 C 60.183594 52.886719 60.09375 52.976562 59.984375 52.980469 C 59.984375 52.980469 59.980469 52.980469 59.980469 52.980469 Z M 49.320312 62.09375 C 47.199219 62.09375 43.621094 59.484375 43.464844 59.367188 C 43.355469 59.285156 43.328125 59.128906 43.410156 59.015625 C 43.492188 58.90625 43.652344 58.882812 43.761719 58.964844 C 43.800781 58.992188 47.640625 61.820312 49.523438 61.582031 C 51.4375 61.363281 54.503906 59.203125 54.535156 59.183594 C 54.648438 59.105469 54.804688 59.128906 54.882812 59.242188 C 54.964844 59.355469 54.9375 59.511719 54.824219 59.59375 C 54.695312 59.683594 51.621094 61.847656 49.578125 62.078125 C 49.496094 62.089844 49.410156 62.09375 49.320312 62.09375 Z M 49.320312 62.09375 "/>
<path style=" stroke:none;fill-rule:nonzero;fill:rgb(74.509805%,47.058824%,25.490198%);fill-opacity:1;" d="M 61.671875 30.75 C 61.597656 30.183594 60.988281 30.269531 60.390625 30.304688 C 58.519531 30.417969 58.0625 29.820312 54.238281 27.6875 C 50.433594 25.566406 46.535156 26.410156 43.9375 28.238281 C 31.992188 30.851562 38.988281 46.210938 38.988281 46.210938 C 38.988281 46.210938 38.945312 38.125 42.640625 35.667969 C 48.824219 39.664062 54.726562 40.136719 58.328125 37.761719 C 59.714844 40.828125 59.679688 46.210938 59.679688 46.210938 C 59.679688 46.210938 62.5625 41.355469 60.765625 35.460938 C 60.328125 34.015625 61.917969 32.589844 61.671875 30.75 Z M 61.671875 30.75 "/>
<path style=" stroke:none;fill-rule:nonzero;fill:rgb(27.843139%,16.862746%,16.078432%);fill-opacity:1;" d="M 60.125 46.171875 L 59.625 46.164062 C 59.625 46.113281 59.644531 41.101562 58.382812 38.085938 C 54.460938 40.4375 48.4375 39.621094 42.535156 35.925781 C 39.066406 38.382812 39.066406 46.089844 39.066406 46.167969 L 38.566406 46.167969 C 38.5625 45.835938 38.5625 37.921875 42.394531 35.414062 C 42.472656 35.359375 42.582031 35.359375 42.664062 35.414062 C 48.566406 39.15625 54.578125 39.960938 58.359375 37.507812 C 58.421875 37.46875 58.496094 37.460938 58.566406 37.480469 C 58.636719 37.5 58.691406 37.546875 58.722656 37.613281 C 60.144531 40.695312 60.125 45.945312 60.125 46.171875 Z M 60.125 46.171875 "/>
<path style=" stroke:none;fill-rule:nonzero;fill:rgb(99.215686%,98.823529%,93.333334%);fill-opacity:1;" d="M 78.285156 58.722656 C 76.054688 57.246094 73.582031 57.066406 72.789062 58.328125 L 57.328125 82.957031 C 56.613281 84.097656 55.929688 91.816406 55.59375 93.632812 C 55.5625 93.816406 55.644531 94.003906 55.808594 94.113281 L 56.085938 94.296875 C 56.300781 94.4375 56.570312 94.4375 56.765625 94.296875 C 58.414062 93.105469 64.734375 89.453125 65.4375 88.335938 L 80.898438 63.707031 C 81.691406 62.445312 80.515625 60.203125 78.285156 58.722656 Z M 78.285156 58.722656 "/>
<path style=" stroke:none;fill-rule:nonzero;fill:rgb(95.686275%,55.686277%,56.078434%);fill-opacity:1;" d="M 78.507812 67.511719 L 81.242188 63.160156 C 82.035156 61.894531 80.859375 59.652344 78.628906 58.175781 C 76.398438 56.695312 73.925781 56.519531 73.132812 57.78125 L 70.53125 61.921875 C 73.199219 63.773438 75.832031 65.679688 78.507812 67.511719 Z M 78.507812 67.511719 "/>
<path style=" stroke:none;fill-rule:nonzero;fill:rgb(37.64706%,36.862746%,37.64706%);fill-opacity:1;" d="M 56.085938 90.011719 C 55.890625 91.59375 55.726562 92.964844 55.605469 93.621094 C 55.570312 93.820312 55.660156 94.023438 55.835938 94.140625 L 56.136719 94.335938 C 56.367188 94.492188 56.660156 94.488281 56.871094 94.335938 C 57.445312 93.921875 58.535156 93.234375 59.773438 92.457031 Z M 56.085938 90.011719 "/>
<path style=" stroke:none;fill-rule:nonzero;fill:rgb(93.725491%,60.000002%,13.333334%);fill-opacity:1;" d="M 65.210938 88.695312 L 57.101562 83.316406 L 69.609375 63.394531 L 77.714844 68.773438 Z M 65.210938 88.695312 "/>
<path style=" stroke:none;fill-rule:nonzero;fill:rgb(74.509805%,67.450982%,89.803922%);fill-opacity:1;" d="M 77.714844 68.773438 L 69.609375 63.394531 L 71.78125 59.933594 L 79.890625 65.3125 Z M 77.714844 68.773438 "/>
<path style=" stroke:none;fill-rule:nonzero;fill:rgb(27.843139%,16.862746%,16.078432%);fill-opacity:1;" d="M 55.585938 94.027344 C 55.34375 93.78125 55.230469 93.4375 55.292969 93.09375 C 55.390625 92.550781 55.527344 91.433594 55.683594 90.136719 C 56.167969 86.15625 56.582031 83.046875 57.105469 82.210938 L 72.566406 57.585938 C 72.894531 57.0625 73.441406 56.703125 74.144531 56.554688 C 75.488281 56.261719 77.261719 56.730469 78.878906 57.804688 C 81.417969 59.484375 82.640625 62.027344 81.664062 63.585938 L 66.203125 88.214844 C 65.695312 89.023438 63.335938 90.546875 60.054688 92.605469 C 58.898438 93.335938 57.894531 93.964844 57.378906 94.339844 C 56.984375 94.625 56.457031 94.628906 56.035156 94.347656 L 55.757812 94.164062 C 55.695312 94.125 55.636719 94.078125 55.585938 94.027344 Z M 56.441406 93.304688 L 56.449219 93.3125 Z M 78.234375 58.777344 C 76.914062 57.902344 75.402344 57.476562 74.390625 57.695312 C 73.996094 57.78125 73.71875 57.953125 73.558594 58.207031 L 58.09375 82.835938 C 57.667969 83.511719 57.152344 87.746094 56.847656 90.277344 C 56.691406 91.535156 56.558594 92.628906 56.457031 93.226562 L 56.679688 93.375 C 57.242188 92.996094 58.257812 92.355469 59.433594 91.617188 C 61.441406 90.351562 64.804688 88.238281 65.210938 87.589844 L 80.671875 62.964844 C 81.210938 62.109375 80.339844 60.179688 78.234375 58.777344 Z M 78.234375 58.777344 "/>
<path style=" stroke:none;fill-rule:nonzero;fill:rgb(27.843139%,16.862746%,16.078432%);fill-opacity:1;" d="M 69.523438 63.402344 C 69.417969 63.296875 69.398438 63.132812 69.480469 63.007812 C 69.578125 62.859375 69.773438 62.820312 69.917969 62.917969 L 78.027344 68.296875 C 78.171875 68.390625 78.210938 68.589844 78.113281 68.734375 C 78.019531 68.878906 77.820312 68.917969 77.679688 68.820312 L 69.570312 63.441406 C 69.550781 63.429688 69.535156 63.417969 69.523438 63.402344 Z M 71.921875 60.085938 C 71.816406 59.984375 71.796875 59.816406 71.882812 59.691406 C 71.976562 59.546875 72.175781 59.507812 72.316406 59.601562 L 78.171875 63.492188 C 78.316406 63.585938 78.355469 63.78125 78.261719 63.925781 C 78.164062 64.070312 77.96875 64.109375 77.824219 64.015625 L 71.96875 60.128906 C 71.953125 60.117188 71.9375 60.101562 71.921875 60.085938 Z M 71.105469 61.386719 C 71.003906 61.28125 70.984375 61.117188 71.066406 60.988281 C 71.164062 60.84375 71.359375 60.804688 71.503906 60.902344 L 79.289062 66.066406 C 79.4375 66.160156 79.472656 66.359375 79.378906 66.503906 C 79.28125 66.648438 79.085938 66.6875 78.941406 66.59375 L 71.15625 61.425781 C 71.136719 61.414062 71.121094 61.402344 71.105469 61.386719 Z M 56.878906 83.539062 C 56.773438 83.433594 56.753906 83.269531 56.839844 83.140625 C 56.933594 82.996094 57.132812 82.957031 57.273438 83.054688 L 65.382812 88.433594 C 65.527344 88.523438 65.566406 88.722656 65.46875 88.867188 C 65.375 89.015625 65.179688 89.054688 65.035156 88.957031 L 56.925781 83.578125 C 56.910156 83.566406 56.894531 83.554688 56.878906 83.539062 Z M 56.230469 90.160156 C 56.125 90.058594 56.105469 89.894531 56.191406 89.765625 C 56.285156 89.621094 56.480469 89.582031 56.625 89.679688 L 59.777344 91.769531 C 59.925781 91.863281 59.964844 92.0625 59.867188 92.207031 C 59.769531 92.351562 59.574219 92.390625 59.429688 92.292969 L 56.277344 90.203125 C 56.261719 90.191406 56.242188 90.175781 56.230469 90.160156 Z M 56.230469 90.160156 "/>
<path style=" stroke:none;fill-rule:nonzero;fill:rgb(27.843139%,16.862746%,16.078432%);fill-opacity:1;" d="M 62.738281 85.890625 C 62.636719 85.789062 62.613281 85.628906 62.695312 85.503906 L 73.027344 69.046875 C 73.117188 68.902344 73.3125 68.855469 73.460938 68.949219 C 73.613281 69.035156 73.652344 69.234375 73.558594 69.382812 L 63.226562 85.835938 C 63.136719 85.984375 62.941406 86.027344 62.792969 85.9375 C 62.773438 85.925781 62.753906 85.90625 62.738281 85.890625 Z M 62.738281 85.890625 "/>
<path style=" stroke:none;fill-rule:nonzero;fill:rgb(27.843139%,16.862746%,16.078432%);fill-opacity:1;" d="M 60.488281 84.398438 C 60.386719 84.296875 60.363281 84.132812 60.441406 84.007812 L 72.40625 64.953125 C 72.5 64.808594 72.691406 64.761719 72.839844 64.855469 C 72.992188 64.941406 73.03125 65.144531 72.941406 65.289062 L 60.976562 84.34375 C 60.882812 84.488281 60.6875 84.535156 60.542969 84.441406 C 60.519531 84.429688 60.503906 84.414062 60.488281 84.398438 Z M 60.488281 84.398438 "/>
<path style=" stroke:none;fill-rule:nonzero;fill:rgb(27.843139%,16.862746%,16.078432%);fill-opacity:1;" d="M 73.613281 68.570312 C 73.511719 68.46875 73.488281 68.308594 73.570312 68.179688 L 74.65625 66.449219 C 74.75 66.300781 74.945312 66.257812 75.089844 66.351562 C 75.242188 66.4375 75.28125 66.636719 75.191406 66.785156 L 74.105469 68.515625 C 74.011719 68.664062 73.816406 68.707031 73.671875 68.613281 C 73.648438 68.601562 73.632812 68.585938 73.613281 68.570312 Z M 73.613281 68.570312 "/>
<path style=" stroke:none;fill-rule:nonzero;fill:rgb(27.843139%,16.862746%,16.078432%);fill-opacity:1;" d="M 78.679688 64.570312 C 78.574219 64.464844 78.554688 64.300781 78.640625 64.171875 C 78.734375 64.027344 78.929688 63.988281 79.074219 64.085938 L 80.105469 64.769531 C 80.25 64.863281 80.289062 65.058594 80.191406 65.203125 C 80.097656 65.351562 79.902344 65.390625 79.757812 65.292969 L 78.726562 64.609375 C 78.710938 64.597656 78.691406 64.585938 78.679688 64.570312 Z M 78.679688 64.570312 "/>
</g>
</svg>
