<svg xmlns="http://www.w3.org/2000/svg"  viewBox="0 0 128 128" width="64px" height="64px"><path fill="#fff" d="M24,86h80c5.5,0,10-4.5,10-10V14c0-5.5-4.5-10-10-10H24c-5.5,0-10,4.5-10,10v62C14,81.5,18.5,86,24,86z"/><path fill="#444b54" d="M14 47c-1.7 0-3-1.3-3-3V27c0-1.7 1.3-3 3-3s3 1.3 3 3v17C17 45.7 15.7 47 14 47zM104 89H67c-1.7 0-3-1.3-3-3s1.3-3 3-3h37c3.9 0 7-3.2 7-6V27c0-1.7 1.3-3 3-3s3 1.3 3 3v50C117 83.4 110.9 89 104 89zM64 50c-14.2 0-27.4-5.6-37.2-15.9-1.1-1.2-1.1-3.1.1-4.2 1.2-1.1 3.1-1.1 4.2.1 8.7 9 20.3 14 32.8 14 12.5 0 24.2-5 32.8-14 1.1-1.2 3-1.2 4.2-.1 1.2 1.1 1.2 3 .1 4.2C91.4 44.4 78.2 50 64 50z"/><g><path fill="#444b54" d="M114,17c-1.7,0-3-1.3-3-3c0-3.9-3.1-7-7-7H24c-3.9,0-7,3.1-7,7c0,1.7-1.3,3-3,3s-3-1.3-3-3c0-7.2,5.8-13,13-13h80c7.2,0,13,5.8,13,13C117,15.7,115.7,17,114,17z"/></g><g><path fill="#fff" d="M30,119L30,119c-12.2,0-22-9.8-22-22v-6c0-2.8,2.2-5,5-5h34c2.8,0,5,2.2,5,5v6C52,109.2,42.2,119,30,119z"/><path fill="#71c2ff" d="M46 89c-1.7 0-3-1.3-3-3V70c0-7.2-5.8-13-13-13s-13 5.8-13 13v16c0 1.7-1.3 3-3 3s-3-1.3-3-3V70c0-10.5 8.5-19 19-19s19 8.5 19 19v16C49 87.7 47.7 89 46 89zM30 106.7c-1.7 0-3-1.3-3-3v-4.6c0-1.7 1.3-3 3-3s3 1.3 3 3v4.6C33 105.4 31.7 106.7 30 106.7z"/><path fill="#71c2ff" d="M30,122c-13.8,0-25-11.2-25-25v-6c0-4.4,3.6-8,8-8h34c4.4,0,8,3.6,8,8v6C55,110.8,43.8,122,30,122z M13,89c-1.1,0-2,0.9-2,2v6c0,10.5,8.5,19,19,19s19-8.5,19-19v-6c0-1.1-0.9-2-2-2H13z"/></g></svg>