<?xml version="1.0" encoding="UTF-8"?>
<svg xmlns="http://www.w3.org/2000/svg" xmlns:xlink="http://www.w3.org/1999/xlink" width="100pt" height="100pt" viewBox="0 0 100 100" version="1.1">
<g id="surface6903095">
<path style=" stroke:none;fill-rule:nonzero;fill:rgb(80.000001%,80.000001%,80.000001%);fill-opacity:1;" d="M 78 13 C 78 13.550781 77.550781 14 77 14 C 76.449219 14 76 13.550781 76 13 C 76 12.449219 76.449219 12 77 12 C 77.550781 12 78 12.449219 78 13 Z M 78 13 "/>
<path style=" stroke:none;fill-rule:nonzero;fill:rgb(92.54902%,94.117647%,94.509804%);fill-opacity:1;" d="M 87 50 C 87 70.433594 70.433594 87 50 87 C 29.566406 87 13 70.433594 13 50 C 13 29.566406 29.566406 13 50 13 C 70.433594 13 87 29.566406 87 50 Z M 87 50 "/>
<path style=" stroke:none;fill-rule:nonzero;fill:rgb(80.000001%,80.000001%,80.000001%);fill-opacity:1;" d="M 87 15 C 87 17.210938 85.210938 19 83 19 C 80.789062 19 79 17.210938 79 15 C 79 12.789062 80.789062 11 83 11 C 85.210938 11 87 12.789062 87 15 Z M 87 15 "/>
<path style=" stroke:none;fill-rule:nonzero;fill:rgb(58.431375%,64.705884%,65.098041%);fill-opacity:1;" d="M 89 24 C 89 25.105469 88.105469 26 87 26 C 85.894531 26 85 25.105469 85 24 C 85 22.894531 85.894531 22 87 22 C 88.105469 22 89 22.894531 89 24 Z M 89 24 "/>
<path style=" stroke:none;fill-rule:nonzero;fill:rgb(40.000001%,40.000001%,40.000001%);fill-opacity:1;" d="M 83 76 C 83 77.105469 82.105469 78 81 78 C 79.894531 78 79 77.105469 79 76 C 79 74.894531 79.894531 74 81 74 C 82.105469 74 83 74.894531 83 76 Z M 83 76 "/>
<path style=" stroke:none;fill-rule:nonzero;fill:rgb(40.000001%,40.000001%,40.000001%);fill-opacity:1;" d="M 19 63 C 19 65.210938 17.210938 67 15 67 C 12.789062 67 11 65.210938 11 63 C 11 60.789062 12.789062 59 15 59 C 17.210938 59 19 60.789062 19 63 Z M 19 63 "/>
<path style=" stroke:none;fill-rule:nonzero;fill:rgb(58.431375%,64.705884%,65.098041%);fill-opacity:1;" d="M 27 87 C 27 88.105469 26.105469 89 25 89 C 23.894531 89 23 88.105469 23 87 C 23 85.894531 23.894531 85 25 85 C 26.105469 85 27 85.894531 27 87 Z M 27 87 "/>
<path style=" stroke:none;fill-rule:nonzero;fill:rgb(100%,100%,100%);fill-opacity:1;" d="M 21 51.5 C 21 52.878906 19.878906 54 18.5 54 C 17.121094 54 16 52.878906 16 51.5 C 16 50.121094 17.121094 49 18.5 49 C 19.878906 49 21 50.121094 21 51.5 Z M 21 51.5 "/>
<path style=" stroke:none;fill-rule:nonzero;fill:rgb(100%,100%,100%);fill-opacity:1;" d="M 81 33.5 C 81 34.328125 80.328125 35 79.5 35 C 78.671875 35 78 34.328125 78 33.5 C 78 32.671875 78.671875 32 79.5 32 C 80.328125 32 81 32.671875 81 33.5 Z M 81 33.5 "/>
<path style=" stroke:none;fill-rule:nonzero;fill:rgb(20.392157%,59.607846%,85.882354%);fill-opacity:1;" d="M 37.085938 74.300781 C 36.871094 74.300781 36.699219 74.128906 36.699219 73.914062 L 36.699219 69.085938 C 36.699219 68.871094 36.871094 68.699219 37.085938 68.699219 L 42.808594 68.699219 C 43.851562 68.699219 44.699219 67.851562 44.699219 66.808594 L 44.699219 46.191406 C 44.699219 45.148438 43.851562 44.300781 42.808594 44.300781 L 39.085938 44.300781 C 38.871094 44.300781 38.699219 44.128906 38.699219 43.914062 L 38.699219 39.082031 C 38.699219 38.871094 38.871094 38.699219 39.085938 38.699219 L 55.914062 38.699219 C 56.128906 38.699219 56.300781 38.871094 56.300781 39.082031 L 56.300781 66.808594 C 56.300781 67.851562 57.148438 68.699219 58.191406 68.699219 L 64.917969 68.699219 C 65.128906 68.699219 65.300781 68.871094 65.300781 69.085938 L 65.300781 73.914062 C 65.300781 74.128906 65.128906 74.300781 64.917969 74.300781 Z M 37.085938 74.300781 "/>
<path style=" stroke:none;fill-rule:nonzero;fill:rgb(27.843139%,16.862746%,16.078432%);fill-opacity:1;" d="M 55.601562 39.398438 L 55.601562 66.808594 C 55.601562 68.238281 56.761719 69.398438 58.191406 69.398438 L 64.601562 69.398438 L 64.601562 73.601562 L 37.398438 73.601562 L 37.398438 69.398438 L 42.808594 69.398438 C 44.238281 69.398438 45.398438 68.238281 45.398438 66.808594 L 45.398438 46.191406 C 45.398438 44.761719 44.238281 43.601562 42.808594 43.601562 L 39.398438 43.601562 L 39.398438 39.398438 L 55.601562 39.398438 M 55.914062 38 L 39.085938 38 C 38.484375 38 38 38.484375 38 39.085938 L 38 43.914062 C 38 44.515625 38.484375 45 39.085938 45 L 42.808594 45 C 43.464844 45 44 45.535156 44 46.191406 L 44 66.808594 C 44 67.464844 43.464844 68 42.808594 68 L 37.082031 68 C 36.484375 68 36 68.484375 36 69.085938 L 36 73.914062 C 36 74.515625 36.484375 75 37.085938 75 L 64.914062 75 C 65.515625 75 66 74.515625 66 73.914062 L 66 69.085938 C 66 68.484375 65.515625 68 64.914062 68 L 58.191406 68 C 57.535156 68 57 67.464844 57 66.808594 L 57 39.085938 C 57 38.484375 56.515625 38 55.914062 38 Z M 55.914062 38 "/>
<path style=" stroke:none;fill-rule:nonzero;fill:rgb(20.392157%,59.607846%,85.882354%);fill-opacity:1;" d="M 56.300781 27.5 C 56.300781 30.703125 53.253906 33.300781 49.5 33.300781 C 45.746094 33.300781 42.699219 30.703125 42.699219 27.5 C 42.699219 24.296875 45.746094 21.699219 49.5 21.699219 C 53.253906 21.699219 56.300781 24.296875 56.300781 27.5 Z M 56.300781 27.5 "/>
<path style=" stroke:none;fill-rule:nonzero;fill:rgb(27.843139%,16.862746%,16.078432%);fill-opacity:1;" d="M 49.5 22.398438 C 52.863281 22.398438 55.601562 24.6875 55.601562 27.5 C 55.601562 30.3125 52.863281 32.601562 49.5 32.601562 C 46.136719 32.601562 43.398438 30.3125 43.398438 27.5 C 43.398438 24.6875 46.136719 22.398438 49.5 22.398438 M 49.5 21 C 45.359375 21 42 23.910156 42 27.5 C 42 31.089844 45.359375 34 49.5 34 C 53.640625 34 57 31.089844 57 27.5 C 57 23.910156 53.640625 21 49.5 21 Z M 49.5 21 "/>
<path style=" stroke:none;fill-rule:nonzero;fill:rgb(27.843139%,16.862746%,16.078432%);fill-opacity:1;" d="M 62.5 71.25 L 57.207031 71.25 C 55.023438 71.25 53.25 69.476562 53.25 67.292969 L 53.25 63 C 53.25 62.863281 53.363281 62.75 53.5 62.75 C 53.636719 62.75 53.75 62.863281 53.75 63 L 53.75 67.292969 C 53.75 69.199219 55.300781 70.75 57.207031 70.75 L 62.5 70.75 C 62.636719 70.75 62.75 70.863281 62.75 71 C 62.75 71.136719 62.636719 71.25 62.5 71.25 Z M 62.5 71.25 "/>
<path style=" stroke:none;fill-rule:nonzero;fill:rgb(27.843139%,16.862746%,16.078432%);fill-opacity:1;" d="M 53.5 60.667969 C 53.363281 60.667969 53.25 60.554688 53.25 60.417969 L 53.25 41.75 L 51.082031 41.75 C 50.945312 41.75 50.832031 41.636719 50.832031 41.5 C 50.832031 41.363281 50.945312 41.25 51.082031 41.25 L 53.75 41.25 L 53.75 60.417969 C 53.75 60.554688 53.636719 60.667969 53.5 60.667969 Z M 53.5 60.667969 "/>
<path style=" stroke:none;fill-rule:nonzero;fill:rgb(27.843139%,16.862746%,16.078432%);fill-opacity:1;" d="M 49.167969 41.75 L 46.25 41.75 C 46.113281 41.75 46 41.636719 46 41.5 C 46 41.363281 46.113281 41.25 46.25 41.25 L 49.167969 41.25 C 49.304688 41.25 49.417969 41.363281 49.417969 41.5 C 49.417969 41.636719 49.304688 41.75 49.167969 41.75 Z M 49.167969 41.75 "/>
<path style=" stroke:none;fill-rule:nonzero;fill:rgb(27.843139%,16.862746%,16.078432%);fill-opacity:1;" d="M 44.25 41.75 L 41.5 41.75 C 41.363281 41.75 41.25 41.636719 41.25 41.5 C 41.25 41.363281 41.363281 41.25 41.5 41.25 L 44.25 41.25 C 44.386719 41.25 44.5 41.363281 44.5 41.5 C 44.5 41.636719 44.386719 41.75 44.25 41.75 Z M 44.25 41.75 "/>
</g>
</svg>
