<svg xmlns="http://www.w3.org/2000/svg"  viewBox="0 0 100 100" width="150px" height="150px"><path fill="#c8ede6" d="M86.618,56.877c0.299-0.613,0.562-1.257,0.791-1.931c2.618-7.726-1.341-16.98-9.677-19.214c-0.901-11.319-8.855-19.083-17.838-20.408C49.612,13.807,40.193,20.339,37.06,30.72c-3.778-1.338-7.458-1.175-10.927,0.852c-1.574,0.728-3.013,1.802-4.305,3.215c-1.896,2.074-3.129,4.692-3.631,7.452c-0.744,0.117-1.474,0.234-2.164,0.482c-4.017,1.44-6.551,4.406-7.246,8.871c-0.433,2.781,0.44,5.555,0.927,6.676c1.924,4.429,6.386,6.94,10.918,6.276c0.226-0.033,0.553,0.069,0.748,0.231c0.24,7.079,3.677,13.339,8.833,16.916c8.274,5.739,18.917,3.971,25.633-3.899c2.877,2.943,6.302,4.373,10.325,3.854c4-0.516,7.106-2.723,9.372-6.312c1.046,0.281,2.04,0.687,3.066,0.799c4.019,0.439,7.255-1.177,9.676-4.772c0.083-0.123,0.202-0.218,0.304-0.326c0.346-0.794,0.692-1.587,1.038-2.381c0.154-1.204,0.427-2.409,0.441-3.611C90.105,61.805,88.782,58.855,86.618,56.877z"/><path fill="#fdfcef" d="M39.275,67.671c1.883,0,3.515,0,3.539,0c2.109,0,3.819-1.673,3.819-3.737c0-1.801-1.302-3.303-3.034-3.658c0.02-0.158,0.034-0.317,0.034-0.48c0-2.138-1.771-3.871-3.955-3.871c-1.29,0-2.432,0.607-3.154,1.542c-0.185-2.38-2.357-4.216-4.898-3.911c-1.858,0.222-3.395,1.628-3.737,3.429c-0.11,0.578-0.098,1.139,0.011,1.665c-0.498-0.525-1.207-0.856-1.997-0.856c-1.446,0-2.625,1.101-2.718,2.493c-0.656-0.142-1.37-0.133-2.122,0.143c-1.437,0.528-2.461,1.853-2.521,3.354c-0.085,2.132,1.656,3.887,3.816,3.887c0.164,0,0.74,0,0.874,0h7.93 M32.801,67.671h0.359"/><path fill="#472b29" d="M42.814,68.171h-3.539c-0.276,0-0.5-0.224-0.5-0.5s0.224-0.5,0.5-0.5h3.539c1.83,0,3.319-1.453,3.319-3.238c0-1.523-1.108-2.855-2.634-3.168c-0.256-0.052-0.429-0.293-0.396-0.553c0.018-0.137,0.03-0.275,0.03-0.417c0-1.859-1.55-3.371-3.455-3.371c-1.091,0-2.097,0.491-2.757,1.348c-0.127,0.164-0.34,0.232-0.539,0.173c-0.198-0.059-0.339-0.234-0.355-0.44c-0.079-1.019-0.565-1.942-1.369-2.602c-0.828-0.679-1.884-0.984-2.971-0.852c-1.646,0.197-3.004,1.441-3.305,3.026c-0.094,0.493-0.091,0.988,0.01,1.47c0.045,0.219-0.06,0.441-0.258,0.544c-0.197,0.104-0.44,0.064-0.594-0.099c-0.428-0.451-1.008-0.7-1.635-0.7c-1.168,0-2.143,0.89-2.219,2.026c-0.01,0.145-0.082,0.279-0.198,0.366c-0.116,0.088-0.263,0.12-0.407,0.089c-0.638-0.139-1.241-0.097-1.844,0.124c-1.261,0.463-2.143,1.63-2.194,2.905c-0.035,0.875,0.283,1.707,0.895,2.343c0.634,0.66,1.495,1.024,2.422,1.024h8.803c0.276,0,0.5,0.224,0.5,0.5s-0.224,0.5-0.5,0.5h-8.803c-1.185,0-2.33-0.485-3.143-1.331c-0.802-0.834-1.218-1.927-1.172-3.076c0.067-1.674,1.211-3.202,2.848-3.803c0.61-0.224,1.24-0.305,1.879-0.245c0.344-1.395,1.628-2.423,3.134-2.423c0.493,0,0.976,0.113,1.413,0.323c0.009-0.242,0.037-0.483,0.083-0.725c0.381-2.008,2.095-3.584,4.168-3.833c1.357-0.162,2.683,0.217,3.725,1.072c0.747,0.613,1.277,1.409,1.545,2.3c0.791-0.647,1.785-1.006,2.841-1.006c2.457,0,4.455,1.961,4.455,4.371c0,0.034,0,0.068-0.001,0.102c1.763,0.555,3.002,2.187,3.002,4.036C47.133,66.271,45.195,68.171,42.814,68.171z M33.161,68.171h-0.359c-0.276,0-0.5-0.224-0.5-0.5s0.224-0.5,0.5-0.5h0.359c0.276,0,0.5,0.224,0.5,0.5S33.437,68.171,33.161,68.171z"/><path fill="#fdfcef" d="M31.413,59.438c-1.413-0.091-2.628,0.864-2.716,2.133c-0.011,0.158-0.004,0.313,0.02,0.463c-0.273-0.301-0.676-0.506-1.139-0.535c-0.847-0.054-1.579,0.493-1.685,1.238c-0.154-0.041-0.315-0.069-0.482-0.08c-1.236-0.079-2.3,0.756-2.376,1.866"/><path fill="#472b29" d="M23.035,64.773c-0.006,0-0.012,0-0.018,0c-0.138-0.01-0.242-0.129-0.232-0.267c0.085-1.245,1.264-2.193,2.642-2.099c0.093,0.006,0.186,0.017,0.279,0.033c0.241-0.739,1.02-1.248,1.888-1.191c0.31,0.02,0.602,0.107,0.857,0.254c0.125-1.378,1.447-2.417,2.978-2.315c0.138,0.009,0.242,0.127,0.233,0.266c-0.008,0.138-0.125,0.252-0.266,0.233c-1.267-0.072-2.373,0.771-2.45,1.9c-0.009,0.136-0.003,0.273,0.018,0.408c0.017,0.109-0.04,0.217-0.14,0.264c-0.098,0.047-0.219,0.024-0.293-0.058c-0.239-0.264-0.592-0.429-0.969-0.453c-0.707-0.042-1.333,0.404-1.422,1.024c-0.01,0.071-0.05,0.134-0.11,0.174c-0.061,0.04-0.133,0.051-0.203,0.032c-0.143-0.038-0.288-0.062-0.433-0.072c-1.096-0.068-2.044,0.663-2.11,1.634C23.275,64.672,23.165,64.773,23.035,64.773z"/><path fill="#fdfcef" d="M44.36,60.714c-1.327-0.612-2.862-0.179-3.428,0.968c-0.07,0.143-0.122,0.289-0.157,0.438"/><path fill="#472b29" d="M40.775 62.371c-.019 0-.038-.002-.057-.006-.134-.031-.218-.166-.187-.3.04-.17.099-.335.176-.492.624-1.267 2.311-1.753 3.757-1.085.125.058.18.207.123.332-.058.126-.208.179-.332.123-1.205-.555-2.594-.173-3.1.853-.061.122-.106.251-.137.384C40.991 62.293 40.888 62.371 40.775 62.371zM35.618 68.171h-1.106c-.276 0-.5-.224-.5-.5s.224-.5.5-.5h1.106c.276 0 .5.224.5.5S35.895 68.171 35.618 68.171zM30.949 61.729c-.207 0-.375-.168-.375-.375v-2.349c0-.207.168-.375.375-.375s.375.168.375.375v2.349C31.324 61.561 31.156 61.729 30.949 61.729z"/><path fill="#fdfcef" d="M77.192,68.015V38.748c0-2.496-1.667-4.538-3.705-4.538H31.491c-2.038,0-3.705,2.042-3.705,4.538v29.266"/><path fill="#472b29" d="M77.192,68.715c-0.387,0-0.7-0.313-0.7-0.7V38.749c0-2.116-1.348-3.838-3.005-3.838H31.491c-1.657,0-3.005,1.722-3.005,3.838v29.266c0,0.387-0.313,0.7-0.7,0.7s-0.7-0.313-0.7-0.7V38.749c0-2.888,1.977-5.238,4.406-5.238h41.995c2.429,0,4.406,2.35,4.406,5.238v29.266C77.892,68.401,77.578,68.715,77.192,68.715z"/><path fill="#c0e5e4" d="M74.266 41.445L74.266 65.089 30.711 65.089 30.711 62.08 30.711 52.622 30.711 38.436 73.333 38.436 74.266 38.436z"/><path fill="#e1e0d8" d="M25.185,68.015v1.95c0,1.788,1.843,3.25,4.096,3.25h46.416c2.253,0,4.096-1.463,4.096-3.25v-1.95H25.185z"/><path fill="#472b29" d="M75.696 73.916H29.281c-2.645 0-4.796-1.772-4.796-3.951v-1.95c0-.387.313-.7.7-.7h54.607c.387 0 .7.313.7.7v1.95C80.492 72.143 78.341 73.916 75.696 73.916zM25.885 68.715v1.25c0 1.382 1.555 2.55 3.396 2.55h46.416c1.841 0 3.396-1.168 3.396-2.55v-1.25H25.885zM52.845 36.811h-1.363c-.161 0-.294-.132-.294-.294v-.063c0-.161.132-.294.294-.294h1.363c.161 0 .294.132.294.294v.063C53.139 36.679 53.006 36.811 52.845 36.811z"/><path fill="#472b29" d="M54.795 71.265h-4.613c-.161 0-.294-.132-.294-.294v-.063c0-.161.132-.294.294-.294h4.613c.161 0 .294.132.294.294v.063C55.089 71.133 54.957 71.265 54.795 71.265zM74.266 65.464H30.711c-.207 0-.375-.168-.375-.375v-2.601c0-.207.168-.375.375-.375s.375.168.375.375v2.226h42.805V41.687c0-.207.168-.375.375-.375s.375.168.375.375v23.403C74.641 65.296 74.473 65.464 74.266 65.464zM30.711 56.363c-.207 0-.375-.168-.375-.375V38.436c0-.207.168-.375.375-.375h43.555c.207 0 .375.168.375.375s-.168.375-.375.375h-43.18v17.177C31.086 56.195 30.918 56.363 30.711 56.363z"/><g><path fill="#a2b3cb" d="M48.3 43.808L37.812 55.499 37.924 58.718 41.4 58.718 41.516 58.589 40.931 56.947 42.384 56.832 42.083 55.663 43.536 55.548 43.235 54.378 45.252 54.425 51.888 47.027"/><path fill="#472b29" d="M41.4,59.218h-3.476c-0.27,0-0.49-0.213-0.5-0.482l-0.112-3.219c-0.005-0.129,0.041-0.255,0.127-0.352l10.488-11.691c0.185-0.205,0.501-0.223,0.706-0.038c0.206,0.184,0.223,0.5,0.038,0.706L38.319,55.684l0.088,2.535h2.446l-0.393-1.104c-0.052-0.147-0.033-0.31,0.052-0.44c0.084-0.13,0.225-0.214,0.38-0.227l0.86-0.067l-0.153-0.594c-0.037-0.143-0.008-0.295,0.078-0.415c0.085-0.12,0.22-0.196,0.367-0.208l0.86-0.068l-0.153-0.593c-0.039-0.151-0.005-0.312,0.093-0.436c0.097-0.123,0.239-0.196,0.403-0.189l1.786,0.041l6.483-7.226c0.185-0.205,0.501-0.222,0.706-0.038c0.206,0.184,0.223,0.5,0.038,0.706l-6.637,7.397c-0.097,0.109-0.235,0.161-0.384,0.166l-1.356-0.031l0.137,0.53c0.037,0.143,0.008,0.295-0.078,0.415c-0.085,0.12-0.22,0.196-0.367,0.208l-0.86,0.068l0.153,0.594c0.037,0.143,0.008,0.295-0.078,0.415s-0.22,0.196-0.368,0.208l-0.802,0.063l0.366,1.027c0.062,0.173,0.023,0.366-0.099,0.502l-0.116,0.129C41.678,59.158,41.542,59.218,41.4,59.218z"/><path fill="#ee3e54" d="M61.861,34.611c-2.678-3.631-7.793-4.403-11.424-1.725c-3.631,2.678-4.403,7.793-1.725,11.424c2.678,3.631,7.793,4.403,11.424,1.725C63.767,43.356,64.539,38.242,61.861,34.611z M60.421,42.579l-8.587-7.703c2.262-1.478,5.268-1.362,7.319,0.479C61.205,37.195,61.646,40.171,60.421,42.579z"/><path fill="#472b29" d="M55.298 48.126c-2.662 0-5.29-1.218-6.988-3.52-1.375-1.864-1.941-4.151-1.596-6.44.346-2.29 1.562-4.308 3.426-5.683 3.848-2.837 9.286-2.017 12.124 1.831l0 0c2.837 3.847 2.016 9.286-1.831 12.123C58.887 47.577 57.085 48.126 55.298 48.126zM55.277 31.793c-1.581 0-3.176.486-4.543 1.495-1.648 1.216-2.725 3.001-3.031 5.027-.306 2.026.196 4.049 1.412 5.698 2.51 3.404 7.321 4.13 10.725 1.62 3.403-2.51 4.129-7.321 1.62-10.725C59.957 32.872 57.632 31.793 55.277 31.793zM60.421 43.079c-.122 0-.241-.045-.334-.128L51.5 35.248c-.116-.104-.176-.255-.165-.41s.095-.295.225-.38c2.502-1.634 5.76-1.418 7.927.525 2.166 1.943 2.733 5.16 1.379 7.823-.07.139-.201.236-.354.265C60.482 43.076 60.452 43.079 60.421 43.079zM52.682 34.965l7.56 6.781c.789-2.125.247-4.522-1.422-6.019C57.151 34.23 54.707 33.95 52.682 34.965zM38.054 58.123c-.06 0-.119-.021-.167-.064-.103-.092-.111-.25-.019-.353l7.094-7.907c.092-.103.251-.111.353-.019.103.092.111.25.019.353L38.24 58.04C38.19 58.095 38.122 58.123 38.054 58.123zM45.927 49.347c-.06 0-.119-.021-.167-.064-.103-.092-.111-.25-.019-.353l.73-.814c.092-.103.25-.111.353-.019.103.092.111.25.019.353l-.73.814C46.063 49.319 45.995 49.347 45.927 49.347zM47.372 47.736c-.06 0-.119-.021-.167-.064-.103-.092-.111-.25-.019-.353l.105-.118c.092-.103.251-.111.353-.019.103.092.111.25.019.353l-.105.118C47.509 47.708 47.44 47.736 47.372 47.736z"/><path fill="#472b29" d="M60.759,38.546c-0.012,0-0.025,0-0.037-0.001c-0.964-0.071-1.757-0.428-2.571-1.159c-0.927-0.832-1.475-1.975-1.542-3.218c-0.067-1.244,0.354-2.439,1.186-3.367c1.716-1.914,4.67-2.074,6.585-0.357c1.914,1.717,2.074,4.671,0.357,6.585c-0.24,0.268-0.51,0.506-0.801,0.71c-0.227,0.159-0.538,0.104-0.696-0.123c-0.158-0.226-0.103-0.538,0.123-0.696c0.229-0.16,0.441-0.349,0.63-0.559c1.349-1.503,1.223-3.824-0.281-5.173c-1.503-1.347-3.824-1.222-5.173,0.281c-0.653,0.728-0.984,1.667-0.931,2.645c0.053,0.977,0.483,1.875,1.212,2.528c0.655,0.588,1.228,0.851,1.976,0.906c0.275,0.02,0.482,0.26,0.462,0.535C61.238,38.346,61.018,38.546,60.759,38.546z"/><g><path fill="#472b29" d="M52.649,57.245H47.98c-0.207,0-0.375-0.168-0.375-0.375s0.168-0.375,0.375-0.375h4.669c0.207,0,0.375,0.168,0.375,0.375S52.856,57.245,52.649,57.245z"/><path fill="#472b29" d="M50.315,59.871c-0.207,0-0.375-0.168-0.375-0.375v-5.252c0-0.207,0.168-0.375,0.375-0.375s0.375,0.168,0.375,0.375v5.252C50.69,59.703,50.522,59.871,50.315,59.871z"/><path fill="#472b29" d="M52.076,59.007c-0.096,0-0.192-0.037-0.265-0.11l-3.523-3.523c-0.146-0.146-0.146-0.384,0-0.53s0.384-0.146,0.53,0l3.523,3.523c0.146,0.146,0.146,0.384,0,0.53C52.268,58.97,52.173,59.007,52.076,59.007z"/><path fill="#472b29" d="M48.553,59.007c-0.096,0-0.192-0.037-0.265-0.11c-0.146-0.146-0.146-0.384,0-0.53l3.523-3.523c0.146-0.146,0.384-0.146,0.53,0s0.146,0.384,0,0.53l-3.523,3.523C48.745,58.97,48.649,59.007,48.553,59.007z"/></g><g><path fill="#472b29" d="M59.293,57.245h-4.668c-0.207,0-0.375-0.168-0.375-0.375s0.168-0.375,0.375-0.375h4.668c0.207,0,0.375,0.168,0.375,0.375S59.5,57.245,59.293,57.245z"/><path fill="#472b29" d="M56.958,59.871c-0.207,0-0.375-0.168-0.375-0.375v-5.252c0-0.207,0.168-0.375,0.375-0.375s0.375,0.168,0.375,0.375v5.252C57.333,59.703,57.165,59.871,56.958,59.871z"/><path fill="#472b29" d="M58.721,59.007c-0.096,0-0.192-0.037-0.265-0.11l-3.524-3.523c-0.146-0.146-0.146-0.384,0-0.53s0.384-0.146,0.53,0l3.524,3.523c0.146,0.146,0.146,0.384,0,0.53C58.912,58.97,58.817,59.007,58.721,59.007z"/><path fill="#472b29" d="M55.197,59.007c-0.096,0-0.192-0.037-0.265-0.11c-0.146-0.146-0.146-0.384,0-0.53l3.524-3.523c0.146-0.146,0.384-0.146,0.53,0s0.146,0.384,0,0.53l-3.524,3.523C55.388,58.97,55.293,59.007,55.197,59.007z"/></g><g><path fill="#472b29" d="M66.514,57.221h-5.252c-0.207,0-0.375-0.168-0.375-0.375s0.168-0.375,0.375-0.375h5.252c0.207,0,0.375,0.168,0.375,0.375S66.721,57.221,66.514,57.221z"/><path fill="#472b29" d="M63.888,59.847c-0.207,0-0.375-0.168-0.375-0.375V54.22c0-0.207,0.168-0.375,0.375-0.375c0.207,0,0.375,0.168,0.375,0.375v5.252C64.263,59.679,64.095,59.847,63.888,59.847z"/><path fill="#472b29" d="M65.65,58.982c-0.096,0-0.192-0.037-0.265-0.11l-3.523-3.523c-0.146-0.146-0.146-0.384,0-0.53s0.384-0.146,0.53,0l3.523,3.523c0.146,0.146,0.146,0.384,0,0.53C65.842,58.946,65.746,58.982,65.65,58.982z"/><path fill="#472b29" d="M62.127,58.982c-0.096,0-0.192-0.037-0.265-0.11c-0.146-0.146-0.146-0.384,0-0.53l3.523-3.523c0.146-0.146,0.384-0.146,0.53,0s0.146,0.384,0,0.53l-3.523,3.523C62.319,58.946,62.223,58.982,62.127,58.982z"/></g></g><g><path fill="#fdfcef" d="M84.902,69.541c2.179,0,4.068,0,4.095,0c2.441,0,4.419-1.937,4.419-4.325c0-2.084-1.506-3.823-3.511-4.233c0.023-0.182,0.039-0.367,0.039-0.556c0-2.474-2.049-4.48-4.577-4.48c-1.493,0-2.814,0.702-3.65,1.784c-0.214-2.754-2.727-4.879-5.668-4.527c-2.15,0.257-3.929,1.884-4.325,3.969c-0.127,0.669-0.114,1.318,0.013,1.926c-0.576-0.608-1.397-0.99-2.311-0.99c-1.673,0-3.038,1.275-3.146,2.885c-0.759-0.164-1.586-0.154-2.456,0.166c-1.663,0.611-2.848,2.144-2.917,3.881c-0.098,2.468,1.916,4.499,4.416,4.499c0.19,0,0.857,0,1.011,0h9.177 M77.409,69.541h0.416"/><path fill="#472b29" d="M88.997,70.042h-4.095c-0.276,0-0.5-0.224-0.5-0.5s0.224-0.5,0.5-0.5h4.095c2.161,0,3.919-1.716,3.919-3.825c0-1.8-1.309-3.375-3.111-3.744c-0.256-0.052-0.429-0.294-0.396-0.553c0.021-0.162,0.035-0.325,0.035-0.492c0-2.194-1.829-3.98-4.077-3.98c-1.288,0-2.473,0.58-3.253,1.59c-0.126,0.164-0.34,0.233-0.539,0.173c-0.198-0.059-0.339-0.234-0.355-0.44c-0.093-1.2-0.666-2.289-1.613-3.066c-0.976-0.801-2.222-1.158-3.498-1.003c-1.938,0.232-3.539,1.698-3.893,3.565c-0.11,0.582-0.107,1.165,0.011,1.732c0.045,0.219-0.06,0.441-0.258,0.544c-0.197,0.103-0.44,0.064-0.594-0.099c-0.51-0.538-1.202-0.834-1.948-0.834c-1.394,0-2.557,1.062-2.647,2.419c-0.01,0.145-0.082,0.279-0.198,0.366c-0.116,0.088-0.264,0.12-0.407,0.089c-0.752-0.163-1.466-0.116-2.178,0.146c-1.489,0.547-2.53,1.927-2.59,3.433c-0.041,1.034,0.334,2.017,1.057,2.77c0.75,0.78,1.765,1.209,2.859,1.209H75.51c0.276,0,0.5,0.224,0.5,0.5s-0.224,0.5-0.5,0.5H65.322c-1.35,0-2.654-0.553-3.58-1.517c-0.913-0.95-1.387-2.194-1.335-3.502c0.076-1.905,1.379-3.646,3.244-4.331c0.717-0.263,1.458-0.354,2.208-0.271c0.365-1.614,1.836-2.811,3.566-2.811c0.6,0,1.187,0.147,1.71,0.42c0.004-0.316,0.037-0.633,0.097-0.95c0.435-2.291,2.391-4.089,4.756-4.372c1.554-0.185,3.063,0.249,4.251,1.223c0.885,0.726,1.503,1.675,1.797,2.74c0.915-0.787,2.084-1.224,3.33-1.224c2.799,0,5.077,2.234,5.077,4.98c0,0.059-0.001,0.117-0.004,0.176c2.039,0.614,3.476,2.488,3.476,4.613C93.916,67.877,91.709,70.042,88.997,70.042z M77.825,70.042h-0.416c-0.276,0-0.5-0.224-0.5-0.5s0.224-0.5,0.5-0.5h0.416c0.276,0,0.5,0.224,0.5,0.5S78.101,70.042,77.825,70.042z"/><path fill="#fdfcef" d="M75.802,60.013c-1.635-0.105-3.042,1-3.143,2.468c-0.013,0.182-0.004,0.362,0.023,0.536c-0.315-0.348-0.782-0.585-1.318-0.619c-0.981-0.063-1.828,0.571-1.951,1.433c-0.178-0.048-0.364-0.08-0.557-0.092c-1.431-0.092-2.662,0.875-2.75,2.159"/><path fill="#472b29" d="M66.107,66.148c-0.006,0-0.012,0-0.018,0c-0.138-0.01-0.242-0.129-0.232-0.267c0.097-1.419,1.438-2.498,3.016-2.392c0.116,0.007,0.234,0.022,0.352,0.043c0.261-0.855,1.148-1.444,2.156-1.384c0.375,0.024,0.726,0.135,1.029,0.321c0-0.002,0-0.003,0-0.005c0.11-1.603,1.629-2.812,3.409-2.701c0.138,0.009,0.242,0.128,0.233,0.266s-0.128,0.244-0.266,0.233c-1.503-0.104-2.786,0.907-2.877,2.236c-0.011,0.161-0.004,0.322,0.021,0.48c0.017,0.109-0.04,0.217-0.139,0.264c-0.1,0.048-0.218,0.024-0.293-0.058c-0.283-0.313-0.702-0.509-1.149-0.538c-0.846-0.049-1.582,0.481-1.687,1.219c-0.01,0.071-0.05,0.134-0.109,0.173c-0.059,0.04-0.131,0.052-0.203,0.033c-0.171-0.045-0.342-0.074-0.508-0.084c-1.293-0.091-2.406,0.782-2.485,1.927C66.346,66.047,66.237,66.148,66.107,66.148z"/><g><path fill="#fdfcef" d="M90.786,61.49c-1.536-0.709-3.313-0.207-3.968,1.121c-0.081,0.165-0.141,0.335-0.182,0.507"/><path fill="#472b29" d="M86.637,63.368c-0.019,0-0.038-0.002-0.057-0.007c-0.134-0.031-0.218-0.166-0.186-0.3c0.045-0.193,0.113-0.382,0.2-0.561c0.715-1.446,2.644-2.001,4.297-1.237c0.125,0.058,0.18,0.207,0.122,0.332c-0.059,0.125-0.206,0.179-0.332,0.122c-1.41-0.651-3.044-0.202-3.639,1.004c-0.071,0.144-0.125,0.297-0.163,0.454C86.853,63.291,86.75,63.368,86.637,63.368z"/></g><g><path fill="#472b29" d="M80.669,70.042h-1.28c-0.276,0-0.5-0.224-0.5-0.5s0.224-0.5,0.5-0.5h1.28c0.276,0,0.5,0.224,0.5,0.5S80.946,70.042,80.669,70.042z"/></g></g><g><path fill="#fff" d="M18.576 51.151H8.66c-.276 0-.5-.224-.5-.5s.224-.5.5-.5h9.917c.276 0 .5.224.5.5S18.853 51.151 18.576 51.151zM21.441 51.151h-1.438c-.276 0-.5-.224-.5-.5s.224-.5.5-.5h1.438c.276 0 .5.224.5.5S21.717 51.151 21.441 51.151zM25.472 51.151h-2.531c-.276 0-.5-.224-.5-.5s.224-.5.5-.5h2.531c.276 0 .5.224.5.5S25.748 51.151 25.472 51.151zM25.472 53.005h-9.561c-.276 0-.5-.224-.5-.5s.224-.5.5-.5h9.561c.276 0 .5.224.5.5S25.748 53.005 25.472 53.005zM14.19 53.005h-.577c-.276 0-.5-.224-.5-.5s.224-.5.5-.5h.577c.276 0 .5.224.5.5S14.466 53.005 14.19 53.005zM11.826 53.005h-1.448c-.276 0-.5-.224-.5-.5s.224-.5.5-.5h1.448c.276 0 .5.224.5.5S12.103 53.005 11.826 53.005zM20.909 49.297h-4.999c-.276 0-.5-.224-.5-.5s.224-.5.5-.5h4.999c.276 0 .5.224.5.5S21.186 49.297 20.909 49.297zM20.909 47.442h-1.25c-.276 0-.5-.224-.5-.5s.224-.5.5-.5h1.25c.276 0 .5.224.5.5S21.186 47.442 20.909 47.442zM17.659 54.859h-1.749c-.276 0-.5-.224-.5-.5s.224-.5.5-.5h1.749c.276 0 .5.224.5.5S17.936 54.859 17.659 54.859z"/></g><g><path fill="#fff" d="M69.486 26.491H58.377c-.276 0-.5-.224-.5-.5s.224-.5.5-.5h11.109c.276 0 .5.224.5.5S69.762 26.491 69.486 26.491zM72.156 26.491h-1.34c-.276 0-.5-.224-.5-.5s.224-.5.5-.5h1.34c.276 0 .5.224.5.5S72.432 26.491 72.156 26.491zM74.914 26.491h-1.36c-.276 0-.5-.224-.5-.5s.224-.5.5-.5h1.36c.276 0 .5.224.5.5S75.19 26.491 74.914 26.491zM75.914 28.345h-8.913c-.276 0-.5-.224-.5-.5s.224-.5.5-.5h8.913c.276 0 .5.224.5.5S76.19 28.345 75.914 28.345zM65.396 28.345h-.538c-.276 0-.5-.224-.5-.5s.224-.5.5-.5h.538c.276 0 .5.224.5.5S65.673 28.345 65.396 28.345zM63.193 28.345h-1.35c-.276 0-.5-.224-.5-.5s.224-.5.5-.5h1.35c.276 0 .5.224.5.5S63.47 28.345 63.193 28.345zM71.66 24.637h-4.66c-.276 0-.5-.224-.5-.5s.224-.5.5-.5h4.66c.276 0 .5.224.5.5S71.937 24.637 71.66 24.637zM71.66 22.783h-1.165c-.276 0-.5-.224-.5-.5s.224-.5.5-.5h1.165c.276 0 .5.224.5.5S71.937 22.783 71.66 22.783zM68.631 30.199h-1.63c-.276 0-.5-.224-.5-.5s.224-.5.5-.5h1.63c.276 0 .5.224.5.5S68.908 30.199 68.631 30.199z"/></g><path fill="#472b29" d="M25.369 72.038c-.022 0-.044-.006-.064-.018-.06-.036-.079-.112-.043-.171l2.306-3.86c.035-.06.111-.079.171-.043.06.036.079.112.043.171l-2.306 3.86C25.453 72.016 25.411 72.038 25.369 72.038zM26.331 72.599c-.023 0-.046-.006-.066-.019-.059-.037-.076-.114-.04-.172l2.909-4.634c.038-.059.115-.075.172-.04.059.037.076.114.04.172l-2.909 4.634C26.413 72.578 26.372 72.599 26.331 72.599zM27.355 73.057c-.023 0-.046-.006-.066-.019-.059-.037-.076-.114-.04-.172l2.909-4.634c.038-.059.115-.074.172-.04.059.037.076.114.04.172l-2.909 4.634C27.437 73.037 27.397 73.057 27.355 73.057zM29.372 72.294c-.023 0-.046-.006-.066-.019-.059-.037-.076-.114-.04-.172l2.435-3.879c.037-.059.116-.075.172-.04.059.037.076.114.04.172l-2.435 3.879C29.454 72.273 29.413 72.294 29.372 72.294zM31.486 71.271c-.023 0-.046-.006-.066-.019-.059-.037-.076-.114-.04-.172l1.716-2.734c.038-.059.116-.075.172-.04.059.037.076.114.04.172l-1.716 2.734C31.568 71.25 31.528 71.271 31.486 71.271z"/></svg>