<svg xmlns="http://www.w3.org/2000/svg"  viewBox="0 0 100 100" width="100px" height="100px"><path fill="#fefdef" d="M76.921,84.268h-54c-3.85,0-7-3.15-7-7v-54c0-3.85,3.15-7,7-7h54c3.85,0,7,3.15,7,7v54C83.921,81.118,80.771,84.268,76.921,84.268z"/><path fill="#1f212b" d="M76.921,85.268h-54c-4.411,0-8-3.589-8-8v-54c0-4.411,3.589-8,8-8h54c4.411,0,8,3.589,8,8v54C84.921,81.679,81.332,85.268,76.921,85.268z M22.921,17.268c-3.309,0-6,2.691-6,6v54c0,3.309,2.691,6,6,6h54c3.309,0,6-2.691,6-6v-54c0-3.309-2.691-6-6-6H22.921z"/><path fill="#1f212b" d="M70.421 27.268h-6c-.276 0-.5-.224-.5-.5s.224-.5.5-.5h6c.276 0 .5.224.5.5S70.698 27.268 70.421 27.268zM61.421 27.268h-44c-.276 0-.5-.224-.5-.5s.224-.5.5-.5h44c.276 0 .5.224.5.5S61.698 27.268 61.421 27.268zM84.421 27.268h-9c-.276 0-.5-.224-.5-.5s.224-.5.5-.5h9c.276 0 .5.224.5.5S84.698 27.268 84.421 27.268zM83.421 77.268h-55c-.276 0-.5-.224-.5-.5s.224-.5.5-.5h55c.276 0 .5.224.5.5S83.698 77.268 83.421 77.268zM25.421 77.268h-9c-.276 0-.5-.224-.5-.5s.224-.5.5-.5h9c.276 0 .5.224.5.5S25.698 77.268 25.421 77.268z"/><path fill="#ef5390" d="M24.421 19.768A2 2 0 1 0 24.421 23.768A2 2 0 1 0 24.421 19.768Z"/><path fill="#1f212b" d="M24.421,24.268c-1.379,0-2.5-1.121-2.5-2.5s1.121-2.5,2.5-2.5s2.5,1.121,2.5,2.5S25.8,24.268,24.421,24.268z M24.421,20.268c-0.827,0-1.5,0.673-1.5,1.5s0.673,1.5,1.5,1.5s1.5-0.673,1.5-1.5S25.248,20.268,24.421,20.268z"/><path fill="#f9e65c" d="M31.421 19.768A2 2 0 1 0 31.421 23.768A2 2 0 1 0 31.421 19.768Z"/><path fill="#1f212b" d="M31.421,24.268c-1.379,0-2.5-1.121-2.5-2.5s1.121-2.5,2.5-2.5c1.379,0,2.5,1.121,2.5,2.5S32.8,24.268,31.421,24.268z M31.421,20.268c-0.827,0-1.5,0.673-1.5,1.5s0.673,1.5,1.5,1.5c0.827,0,1.5-0.673,1.5-1.5S32.248,20.268,31.421,20.268z"/><path fill="#60be92" d="M38.421 19.768A2 2 0 1 0 38.421 23.768A2 2 0 1 0 38.421 19.768Z"/><path fill="#1f212b" d="M38.421 24.268c-1.379 0-2.5-1.121-2.5-2.5s1.121-2.5 2.5-2.5 2.5 1.121 2.5 2.5S39.8 24.268 38.421 24.268zM38.421 20.268c-.827 0-1.5.673-1.5 1.5s.673 1.5 1.5 1.5 1.5-.673 1.5-1.5S39.248 20.268 38.421 20.268zM35.421 47.268h-14c-.276 0-.5-.224-.5-.5s.224-.5.5-.5h14c.276 0 .5.224.5.5S35.698 47.268 35.421 47.268zM35.421 40.268h-14c-.276 0-.5-.224-.5-.5s.224-.5.5-.5h14c.276 0 .5.224.5.5S35.698 40.268 35.421 40.268z"/><path fill="#fef6aa" d="M44.421 44.768L44.421 32.768 78.421 32.768 78.421 46.768 52.421 46.768"/><path fill="#1f212b" d="M78.421 47.268h-26c-.276 0-.5-.224-.5-.5s.224-.5.5-.5h25.5v-13h-33v11.5c0 .276-.224.5-.5.5s-.5-.224-.5-.5v-12c0-.276.224-.5.5-.5h34c.276 0 .5.224.5.5v14C78.921 47.044 78.698 47.268 78.421 47.268zM35.421 33.268h-14c-.276 0-.5-.224-.5-.5s.224-.5.5-.5h14c.276 0 .5.224.5.5S35.698 33.268 35.421 33.268zM35.421 68.268h-14c-.276 0-.5-.224-.5-.5s.224-.5.5-.5h14c.276 0 .5.224.5.5S35.698 68.268 35.421 68.268zM35.421 61.268h-14c-.276 0-.5-.224-.5-.5s.224-.5.5-.5h14c.276 0 .5.224.5.5S35.698 61.268 35.421 61.268zM35.421 54.268h-14c-.276 0-.5-.224-.5-.5s.224-.5.5-.5h14c.276 0 .5.224.5.5S35.698 54.268 35.421 54.268zM39.421 73.268c-.276 0-.5-.224-.5-.5v-41c0-.276.224-.5.5-.5s.5.224.5.5v41C39.921 73.044 39.698 73.268 39.421 73.268zM61.421 54.268h-17c-.276 0-.5-.224-.5-.5s.224-.5.5-.5h17c.276 0 .5.224.5.5S61.698 54.268 61.421 54.268zM61.421 61.268h-17c-.276 0-.5-.224-.5-.5s.224-.5.5-.5h17c.276 0 .5.224.5.5S61.698 61.268 61.421 61.268zM61.421 68.268h-17c-.276 0-.5-.224-.5-.5s.224-.5.5-.5h17c.276 0 .5.224.5.5S61.698 68.268 61.421 68.268z"/><path fill="#fef6aa" d="M64.421 53.768H78.421V67.768H64.421z"/><path fill="#1f212b" d="M78.421 68.268h-14c-.276 0-.5-.224-.5-.5v-14c0-.276.224-.5.5-.5h14c.276 0 .5.224.5.5v14C78.921 68.044 78.698 68.268 78.421 68.268zM64.921 67.268h13v-13h-13V67.268zM50.421 47.268h-3c-.276 0-.5-.224-.5-.5s.224-.5.5-.5h3c.276 0 .5.224.5.5S50.698 47.268 50.421 47.268z"/></svg>